<?xml version="1.0" encoding="UTF-8" standalone="no"?>
<svg
   width="203mm"
   height="305mm"
   viewBox="0 0 203 305"
   version="1.1"
   id="svg6"
   sodipodi:docname="cartel_CRM_nuevo.svg"
   inkscape:version="1.2.2 (1:1.2.2+202212051552+b0a8486541)"
   xmlns:inkscape="http://www.inkscape.org/namespaces/inkscape"
   xmlns:sodipodi="http://sodipodi.sourceforge.net/DTD/sodipodi-0.dtd"
   xmlns="http://www.w3.org/2000/svg"
   xmlns:svg="http://www.w3.org/2000/svg"
   xmlns:rdf="http://www.w3.org/1999/02/22-rdf-syntax-ns#"
   xmlns:cc="http://creativecommons.org/ns#"
   xmlns:dc="http://purl.org/dc/elements/1.1/">
  <defs
     id="defs10">
    <inkscape:path-effect
       effect="offset"
       id="path-effect479"
       is_visible="true"
       lpeversion="1.2"
       linejoin_type="miter"
       unit="mm"
       offset="0.049803833"
       miter_limit="4"
       attempt_force_join="false"
       update_on_knot_move="true" />
    <inkscape:path-effect
       effect="offset"
       id="path-effect462"
       is_visible="true"
       lpeversion="1.2"
       linejoin_type="miter"
       unit="mm"
       offset="0.049803833"
       miter_limit="4"
       attempt_force_join="false"
       update_on_knot_move="true" />
    <inkscape:path-effect
       effect="offset"
       id="path-effect215265"
       is_visible="true"
       lpeversion="1.2"
       linejoin_type="miter"
       unit="mm"
       offset="0.049803833"
       miter_limit="4"
       attempt_force_join="false"
       update_on_knot_move="true" />
    <inkscape:path-effect
       effect="offset"
       id="path-effect822"
       is_visible="true"
       lpeversion="1.2"
       linejoin_type="miter"
       unit="mm"
       offset="0.049803833"
       miter_limit="4"
       attempt_force_join="false"
       update_on_knot_move="true" />
  </defs>
  <sodipodi:namedview
     id="namedview8"
     pagecolor="#ffffff"
     bordercolor="#666666"
     borderopacity="1.0"
     inkscape:pageshadow="2"
     inkscape:pageopacity="0.0"
     inkscape:pagecheckerboard="0"
     inkscape:document-units="mm"
     showgrid="false"
     inkscape:zoom="0.70710678"
     inkscape:cx="434.16356"
     inkscape:cy="562.857"
     inkscape:window-width="1280"
     inkscape:window-height="995"
     inkscape:window-x="1280"
     inkscape:window-y="0"
     inkscape:window-maximized="1"
     inkscape:current-layer="svg6"
     inkscape:snap-page="true"
     inkscape:snap-global="false"
     inkscape:showpageshadow="2"
     inkscape:deskcolor="#d1d1d1" />
  <title
     id="title2">OpenSCAD Model</title>
  <metadata
     id="metadata823">
    <rdf:RDF>
      <cc:Work
         rdf:about="">
        <dc:title>OpenSCAD Model</dc:title>
      </cc:Work>
    </rdf:RDF>
  </metadata>
  <path
     d="m 93.917486,1.2152679 -1.473043,0.1276682 -1.470971,0.1495205 -1.468568,0.1715383 -1.124891,3.5206391 -0.346165,1.0834506 -0.39019,1.7983575 -0.120103,0.5540488 -0.209861,1.4748331 -0.0644,0.452669 -0.09741,1.46399 -0.0053,0.205057 0.0064,0.871986 0.02157,0.296247 0.01709,0.219681 0.08149,0.511492 -0.124716,0.458914 -0.218448,0.422602 -0.302407,0.367065 -0.372867,0.295263 -0.426622,0.210315 -0.461333,0.115837 -0.566109,0.112387 -0.565382,0.116166 -0.564571,0.12011 -0.46975,0.07541 -0.474855,-0.02497 L 82.266835,16.261163 81.844229,16.043125 81.47683,15.740962 81.181248,15.36831 81.054396,14.866184 80.970766,14.6235 80.873466,14.342368 80.523795,13.5205 80.437385,13.333189 79.795433,12.080007 79.372016,11.419981 77.994777,9.2734536 77.605366,8.7744489 76.341832,7.1546949 74.718461,5.3579805 74.219126,4.8054113 72.801974,5.227027 71.39122,5.6696737 l -1.404026,0.4635152 -0.393181,3.6750884 -0.120935,1.1309357 -0.02019,1.840092 -0.0064,0.566864 0.09132,1.486828 0.02809,0.456449 0.199298,1.453638 0.03599,0.201935 0.181237,0.852926 0.08085,0.285897 0.06099,0.211629 0.182711,0.484546 -0.02969,0.474688 -0.128817,0.457928 -0.222475,0.420465 -0.305782,0.364272 -0.375441,0.291976 -0.428683,0.206372 -0.531867,0.223953 -0.530383,0.227567 -0.528909,0.231347 -0.444789,0.168415 -0.470411,0.07114 -0.474695,-0.02941 -0.457926,-0.128654 -0.42063,-0.22198 -0.3646,-0.305451 -0.225262,-0.466307 -0.130794,-0.220831 -0.151823,-0.255828 -0.507879,-0.734624 -0.122569,-0.166116 -0.881023,-1.098402 -0.547472,-0.561278 -1.781111,-1.825304 -0.481914,-0.410443 -1.563892,-1.332213 -1.951817,-1.4331 -0.600383,-0.440675 -1.303298,0.698146 -1.292777,0.717536 -1.281937,0.73676 0.354742,3.678868 0.109101,1.132251 0.35063,1.806408 0.108118,0.556513 0.388749,1.438028 0.11929,0.441498 0.487832,1.383642 0.07594,0.190597 0.349316,0.799033 0.136711,0.263715 0.102319,0.195034 0.276529,0.437883 0.06643,0.471072 -0.03418,0.474359 -0.13309,0.456614 -0.226085,0.418494 -0.309232,0.361479 -0.378239,0.288362 -0.475998,0.32648 -0.473701,0.329768 -0.471565,0.333053 -0.401736,0.254514 -0.446423,0.164308 -0.470914,0.06671 -0.474353,-0.03369 -0.456783,-0.132761 -0.418654,-0.225924 -0.314487,-0.411428 -0.172522,-0.189941 -0.200292,-0.22001 -0.645411,-0.617307 -0.153457,-0.138184 -1.083953,-0.898439 -0.649342,-0.439525 -2.112185,-1.429484 -0.554542,-0.305122 -1.800005,-0.989959 -2.200417,-1.01099 -0.676791,-0.310871 -1.13603,0.946252 -1.12189,0.963013 -1.107279,0.979772 1.087883,3.532305 0.334866,1.087065 0.707016,1.698786 0.217872,0.523487 0.670222,1.330243 0.205877,0.40847 0.756307,1.257125 0.112722,0.171374 0.503105,0.712442 0.186823,0.230689 0.139498,0.170553 0.359174,0.373144 0.159877,0.44807 0.06195,0.471566 -0.03845,0.47403 -0.137362,0.455463 -0.230037,0.416358 -0.312351,0.358521 -0.400582,0.4157 -0.397624,0.41833 -0.394837,0.421123 -0.342256,0.330096 -0.404193,0.250899 -0.447908,0.160201 -0.471405,0.06244 -0.474192,-0.03812 -0.455459,-0.137034 -0.390896,-0.339626 -0.207351,-0.151327 -0.240386,-0.175153 -0.756478,-0.474853 -0.178107,-0.104337 -1.242836,-0.662 -0.724437,-0.299699 -2.356512,-0.975006 -0.604815,-0.187312 -1.962338,-0.607449 -2.358819,-0.547311 -0.725579,-0.168252 -0.922271,1.155582 -0.905172,1.169219 -0.887432,1.182529 1.776839,3.240986 0.546649,0.997353 1.034652,1.521826 0.318759,0.468772 0.924397,1.168234 0.283759,0.358521 0.993906,1.079179 0.144923,0.145249 0.636205,0.59644 0.229535,0.188461 0.170877,0.139006 0.426878,0.29329 0.246794,0.406665 0.155764,0.449383 0.05767,0.472059 -0.04294,0.473701 -0.141463,0.454149 -0.233817,0.414222 -0.30857,0.487832 -0.305452,0.489804 -0.301991,0.491939 -0.268817,0.392205 -0.345375,0.327138 -0.4065,0.24712 -0.449221,0.156094 -0.472057,0.05799 -0.473861,-0.04239 -0.451198,-0.254185 -0.233475,-0.106474 -0.270783,-0.123232 -0.836496,-0.312678 -0.195528,-0.06655 -1.350612,-0.398119 -0.769957,-0.147714 -2.504715,-0.480766 -0.629957,-0.06162 -2.044492,-0.199963 -2.420755,-0.06128 -0.744484,-0.01889 -0.670874,1.317591 -0.651158,1.327449 -0.63127,1.337142 2.392665,2.816906 0.736431,0.866892 1.319725,1.282264 0.40666,0.395162 1.140463,0.958083 0.350309,0.294277 1.190747,0.856869 0.171208,0.113044 0.74317,0.456285 0.26273,0.138512 0.195528,0.10154 0.477151,0.201442 0.323523,0.348663 0.243013,0.408799 0.151652,0.450863 0.0534,0.472716 -0.04732,0.473209 -0.145575,0.452834 -0.204232,0.539917 -0.200463,0.541233 -0.19667,0.542547 -0.184527,0.43854 -0.272417,0.389904 -0.348333,0.323852 -0.408636,0.243341 -0.450866,0.151821 -0.472548,0.05389 -0.493257,-0.158065 -0.250074,-0.05734 -0.290007,-0.06622 -0.882337,-0.13802 -0.204895,-0.02563 -1.403032,-0.118138 -0.784076,0.01015 -2.550075,0.03336 -0.629626,0.06638 -2.0428475,0.215737 -2.383459,0.427203 -0.7331518,0.131446 -0.3918673,1.425708 -0.3706879,1.431293 -0.3491565,1.436708 2.9108943,2.277647 0.8958157,0.700939 1.550744,0.990456 0.477973,0.30512 1.310027,0.708993 0.402227,0.21754 1.33895,0.599731 0.190433,0.07637 0.819739,0.297238 0.285404,0.08267 0.211794,0.06035 0.508039,0.101251 0.387115,0.276358 0.320233,0.35158 0.239232,0.411103 0.147551,0.452212 0.04902,0.473114 -0.05159,0.472847 -0.09121,0.569954 -0.08737,0.570541 -0.08363,0.571118 -0.09239,0.466609 -0.188297,0.436726 -0.276037,0.387339 -0.351452,0.320639 -0.410932,0.239552 -0.45202,0.147722 -0.514939,-0.05554 -0.256652,-0.0064 -0.297238,-0.0064 -0.892195,0.0424 -0.205877,0.01645 -1.398098,0.16669 -0.765846,0.167823 -2.4912461,0.545976 -0.6033411,0.191822 -1.9575743,0.622459 -2.2487251,0.898358 -0.6915727,0.276304 -0.096979,1.475371 -0.074977,1.476664 -0.052762,1.477601 3.309672,1.645044 1.0185453,0.506247 1.7185021,0.657967 0.5294001,0.202707 1.4260378,0.43075 0.437719,0.13227 1.432436,0.31791 0.201776,0.0365 0.862952,0.12619 0.296085,0.0235 0.219676,0.0165 0.517897,-0.003 0.434761,0.19276 0.384647,0.27991 0.317114,0.35453 0.235463,0.41329 0.143108,0.45356 0.04464,0.47353 0.02553,0.57665 0.02905,0.57647 0.03322,0.57625 0.0032,0.47564 -0.09666,0.46572 -0.192398,0.43497 -0.279658,0.3848 -0.354251,0.31738 -0.413068,0.23576 -0.515601,0.0493 -0.25254,0.046 -0.292475,0.0536 -0.865408,0.22118 -0.198326,0.0571 -1.335991,0.44472 -0.716384,0.31857 -2.3302275,1.03627 -0.5524058,0.30933 -1.7922723,1.00379 -2.021818,1.33263 -0.6219037,0.40987 0.2020963,1.4647 0.2239486,1.46149 0.2456406,1.45795 3.5730529,0.94526 1.099717,0.29083 1.8156089,0.29854 0.559477,0.0921 1.483542,0.1349 0.455459,0.0412 1.466955,0.0232 0.205055,-0.005 0.870674,-0.0501 0.29476,-0.0365 0.218374,-0.0283 0.506725,-0.10728 0.464826,0.10125 0.432955,0.19684 0.38202,0.28343 0.313825,0.35738 0.231681,0.41554 0.138996,0.4548 0.140822,0.5598 0.144753,0.55864 0.148534,0.55783 0.09911,0.46516 -9.94e-4,0.47568 -0.10093,0.46482 -0.19634,0.43312 -0.283268,0.38235 -0.357049,0.314 -0.495222,0.15214 -0.23809,0.0958 -0.275706,0.1114 -0.803141,0.39073 -0.182872,0.096 -1.219007,0.70455 -0.637679,0.45628 -2.073906,1.48421 -0.478796,0.41406 -1.553532,1.34404 -1.7122647,1.71243 -0.5264415,0.5266 0.492595,1.394 0.513625,1.38659 0.5341742,1.37872 3.690207,0.20653 1.135529,0.0635 1.838786,-0.073 0.566536,-0.0225 1.480252,-0.1666 0.454477,-0.0511 1.441642,-0.27275 0.1998,-0.046 0.842734,-0.22429 0.281303,-0.0952 0.208344,-0.0717 0.474684,-0.20721 0.475677,0.006 0.463672,0.10553 0.431311,0.20079 0.379392,0.28688 0.310375,0.36032 0.227901,0.41752 0.250735,0.52003 0.254185,0.51823 0.257635,0.51642 0.190764,0.43574 0.09484,0.46615 -0.0053,0.47551 -0.105203,0.46384 -0.200462,0.43147 -0.286718,0.37956 -0.454305,0.2486 -0.213931,0.1418 -0.247777,0.16463 -0.707849,0.54436 -0.159866,0.13079 -1.052231,0.93557 -0.53269,0.57525 -1.732803,1.8713 -0.38563,0.50214 -1.251209,1.62911 -1.332381,2.02198 -0.409779,0.62191 0.763207,1.26633 0.782111,1.25466 0.800845,1.24299 3.656189,-0.54057 1.12519,-0.16628 1.786355,-0.44166 0.550441,-0.13622 1.41634,-0.46105 0.434921,-0.14147 1.357191,-0.55733 0.186493,-0.0855 0.780295,-0.38941 0.256492,-0.14968 0.189611,-0.11222 0.423257,-0.29838 0.467122,-0.0902 0.475517,0.01 0.46269,0.10992 0.429334,0.20473 0.376766,0.29033 0.307256,0.36312 0.350139,0.45892 0.353268,0.45645 0.356386,0.45399 0.274553,0.38841 0.186823,0.4374 0.09057,0.46696 -0.0096,0.47567 -0.109421,0.46286 -0.204404,0.42951 -0.394996,0.33485 -0.181067,0.18206 -0.209498,0.21097 -0.583956,0.67597 -0.130131,0.1602 -0.842402,1.12814 -0.406009,0.67087 -1.320546,2.18169 -0.2767,0.5695 -0.897621,1.84765 -0.898101,2.24888 -0.276208,0.69158 1.002449,1.08674 1.018706,1.07161 1.034491,1.05635 3.472667,-1.2655 1.068658,-0.38941 1.660827,-0.79214 0.51182,-0.24416 1.294594,-0.73676 0.397463,-0.22626 1.217192,-0.81907 0.165462,-0.12126 0.685987,-0.53845 0.221161,-0.19831 0.163155,-0.14804 0.354582,-0.37758 0.439193,-0.18222 0.467955,-0.086 0.475346,0.0147 0.461707,0.11404 0.427529,0.20867 0.373967,0.29395 0.435412,0.37889 0.43805,0.37594 0.440346,0.37298 0.34718,0.32516 0.270953,0.3909 0.182712,0.43919 0.0863,0.46779 -0.01314,0.4755 -0.113875,0.46171 -0.319411,0.40765 -0.140652,0.21476 -0.162824,0.24893 -0.435914,0.77947 -0.09516,0.18321 -0.598086,1.2747 -0.262729,0.73874 -0.854408,2.40301 -0.156416,0.61336 -0.507227,1.99076 -0.427038,2.38347 -0.131445,0.73297 1.200765,0.86279 1.213582,0.84471 1.226078,0.82631 3.146666,-1.93851 0.968443,-0.59662 1.467435,-1.11039 0.45218,-0.34209 1.119765,-0.98223 0.34373,-0.30167 1.027581,-1.04731 0.137533,-0.15215 0.563577,-0.66545 0.176634,-0.23874 0.130132,-0.17795 0.271273,-0.44117 0.393513,-0.26699 0.441008,-0.17828 0.468607,-0.0815 0.475346,0.0187 0.460553,0.11831 0.425564,0.21262 0.502785,0.28358 0.504749,0.27999 0.506405,0.27669 0.405517,0.24877 0.344222,0.32829 0.267332,0.39335 0.1786,0.44084 0.08203,0.4686 -0.01837,0.47535 -0.231019,0.46352 -0.09452,0.23857 -0.109432,0.2767 -0.269961,0.85128 -0.05639,0.19865 -0.329279,1.36902 -0.10861,0.77636 -0.353257,2.52575 -0.02959,0.63243 -0.09623,2.05204 0.06141,2.42059 0.01891,0.74465 1.349961,0.60318 1.358665,0.58313 1.367221,0.56276 2.692189,-2.53233 0.828443,-0.77948 1.213913,-1.38281 0.373967,-0.42622 0.899266,-1.18763 0.276037,-0.3646 0.795419,-1.2328 0.104349,-0.17664 0.418002,-0.76534 0.124876,-0.26947 0.09164,-0.20029 0.176965,-0.48669 0.331736,-0.34093 0.39615,-0.26339 0.442483,-0.17417 0.469429,-0.0772 0.475015,0.0232 0.459571,0.12257 0.549618,0.17647 0.550761,0.17285 0.551744,0.16908 0.447245,0.16184 0.403221,0.25238 0.341103,0.33157 0.263712,0.39582 0.174498,0.44248 0.07775,0.46926 -0.13293,0.50049 -0.04454,0.25287 -0.05137,0.29297 -0.09313,0.88824 -0.01474,0.20589 -0.04678,1.40713 0.04977,0.7826 0.162504,2.54515 0.09826,0.62535 0.31876,2.02938 0.547471,2.35881 0.168421,0.72543 1.443778,0.31925 1.448211,0.29756 1.452654,0.27603 2.127191,-3.02245 0.654672,-0.93015 0.910608,-1.59905 0.280545,-0.49276 0.641716,-1.34421 0.19698,-0.41274 0.531141,-1.36771 0.06654,-0.19405 0.255413,-0.83369 0.06814,-0.28919 0.04945,-0.21459 0.0753,-0.51247 0.256396,-0.4006 0.334918,-0.33781 0.398447,-0.25961 0.44417,-0.17023 0.470027,-0.0729 0.474833,0.0275 0.573852,0.0623 0.574237,0.0583 0.574621,0.0546 0.470679,0.0685 0.445718,0.16612 0.400818,0.25616 0.338016,0.33453 0.26006,0.39828 0.170503,0.44397 -0.02937,0.51707 0.0064,0.25665 0.0085,0.29724 0.08758,0.88891 0.02649,0.20472 0.237278,1.38792 0.2064,0.75631 0.671462,2.46035 0.222133,0.59284 0.720805,1.92371 1.0111,2.20026 0.310973,0.67679 1.478386,0.022 h 1.47855 l 1.47839,-0.022 1.4753,-3.38887 0.454,-1.04286 0.5701,-1.74956 0.17563,-0.53909 0.35798,-1.44591 0.10992,-0.44397 0.24494,-1.44658 0.0262,-0.20357 0.0823,-0.86804 0.009,-0.29691 0.005,-0.22034 -0.0294,-0.51707 0.17049,-0.44397 0.26007,-0.39828 0.33801,-0.33453 0.40082,-0.25616 0.44572,-0.16612 0.47068,-0.0685 0.57462,-0.0546 0.57424,-0.0583 0.57385,-0.0623 0.47483,-0.0275 0.47003,0.0729 0.44417,0.17023 0.39845,0.25961 0.3349,0.33781 0.25641,0.4006 0.0754,0.51247 0.0586,0.24975 0.0684,0.28951 0.26471,0.85309 0.0672,0.1952 0.51182,1.31168 0.35443,0.69945 1.153,2.27469 0.33691,0.53598 1.09328,1.7392 1.43326,1.95166 0.44083,0.60038 1.45266,-0.27603 1.44822,-0.29756 1.44378,-0.31925 0.76287,-3.61644 0.2348,-1.11287 0.20621,-1.82858 0.0636,-0.56342 0.0595,-1.48846 0.0183,-0.45695 -0.0513,-1.46629 -0.0147,-0.20439 -0.0942,-0.86707 -0.0514,-0.29246 -0.0391,-0.21689 -0.13291,-0.50049 0.0777,-0.46926 0.1745,-0.44248 0.26371,-0.39582 0.34111,-0.33157 0.40321,-0.25238 0.44725,-0.16184 0.55175,-0.16908 0.55076,-0.17285 0.54961,-0.17647 0.45957,-0.12257 0.47502,-0.0232 0.46943,0.0772 0.44248,0.17417 0.39615,0.26339 0.33173,0.34093 0.17697,0.48669 0.10779,0.23298 0.12519,0.2698 0.43099,0.78227 0.10499,0.17762 0.76536,1.18187 0.48799,0.61369 1.58739,1.99619 0.43788,0.45711 1.42094,1.48354 1.79688,1.6232 0.55273,0.49934 1.36721,-0.56276 1.35867,-0.58313 1.34996,-0.60318 0.0193,-3.69595 0.006,-1.13751 -0.16611,-1.83254 -0.0513,-0.56473 -0.2412,-1.4699 -0.0741,-0.45119 -0.34539,-1.42604 -0.0562,-0.19733 -0.26667,-0.83025 -0.10926,-0.2762 -0.082,-0.2044 -0.23102,-0.46352 -0.0184,-0.47535 0.082,-0.4686 0.1786,-0.44084 0.26733,-0.39335 0.34423,-0.32829 0.40551,-0.24877 0.5064,-0.27669 0.50476,-0.27999 0.50278,-0.28358 0.42557,-0.21262 0.46055,-0.11831 0.47534,-0.0187 0.46861,0.0815 0.441,0.17828 0.39352,0.26699 0.27128,0.44117 0.15247,0.20654 0.17697,0.23907 0.57968,0.67958 0.13867,0.15281 0.98766,1.0036 0.60154,0.50294 1.95658,1.63569 0.52086,0.35968 1.69057,1.16707 2.08688,1.22838 0.64179,0.37775 1.22607,-0.82631 1.21358,-0.84471 1.20077,-0.86279 -0.72509,-3.62415 -0.22313,-1.11533 -0.53155,-1.76155 -0.1638,-0.54287 -0.5322,-1.3912 -0.16349,-0.42721 -0.62536,-1.32728 -0.0948,-0.18189 -0.42836,-0.7596 -0.1625,-0.2486 -0.12159,-0.1837 -0.31942,-0.40765 -0.11386,-0.46171 -0.0131,-0.4755 0.0863,-0.46779 0.18271,-0.43919 0.27094,-0.3909 0.34719,-0.32516 0.44035,-0.37298 0.43804,-0.37594 0.43542,-0.37889 0.37397,-0.29395 0.42753,-0.20867 0.4617,-0.11404 0.47535,-0.0147 0.46795,0.086 0.4392,0.18222 0.35457,0.37758 0.19093,0.17154 0.22133,0.19864 0.70472,0.5488 0.1666,0.12192 1.16939,0.78423 0.69042,0.3715 2.24593,1.2085 0.58265,0.24745 1.89086,0.80281 2.29145,0.78309 0.70472,0.24088 1.03448,-1.05635 1.01871,-1.07161 1.00245,-1.08674 -1.43967,-3.40398 -0.44315,-1.04763 -0.87526,-1.61861 -0.26963,-0.49867 -0.8015,-1.25581 -0.24597,-0.38547 -0.87971,-1.17414 -0.12947,-0.15906 -0.57245,-0.65789 -0.20933,-0.21064 -0.1561,-0.15561 -0.39499,-0.33485 -0.20441,-0.42951 -0.10943,-0.46286 -0.01,-0.47567 0.0906,-0.46696 0.18682,-0.4374 0.27457,-0.38841 0.35637,-0.45399 0.35327,-0.45645 0.35014,-0.45892 0.30726,-0.36312 0.37676,-0.29033 0.42934,-0.20473 0.46268,-0.10992 0.47552,-0.01 0.46712,0.0902 0.42326,0.29838 0.22149,0.12964 0.25682,0.15001 0.80067,0.39582 0.18781,0.0858 1.30329,0.53285 0.75123,0.22494 2.4431,0.73151 0.6206,0.12519 2.01376,0.40585 2.40202,0.30577 0.73874,0.094 0.80083,-1.24299 0.78212,-1.25466 0.76321,-1.26633 -2.09542,-3.04447 -0.64491,-0.93705 -1.1832,-1.40928 -0.3646,-0.43427 -1.03777,-1.0685 -0.31859,-0.32812 -1.09808,-0.97303 -0.15888,-0.12981 -0.69322,-0.52924 -0.24729,-0.16414 -0.18418,-0.12093 -0.45432,-0.2486 -0.28672,-0.37956 -0.20045,-0.43147 -0.1052,-0.46384 -0.005,-0.47551 0.0948,-0.46615 0.19075,-0.43574 0.25764,-0.51642 0.2542,-0.51823 0.25072,-0.52003 0.2279,-0.41752 0.31038,-0.36032 0.37939,-0.28688 0.43131,-0.20079 0.46368,-0.10553 0.47567,-0.006 0.47469,0.20721 0.24301,0.0823 0.28179,0.0952 0.86393,0.22659 0.20128,0.0464 1.38381,0.25944 0.78112,0.0692 2.54038,0.22478 0.63308,-0.002 2.05419,-0.009 2.4145,-0.18402 0.74252,-0.0565 0.53417,-1.37871 0.51362,-1.3866 0.4926,-1.39399 -2.66542,-2.56043 -0.82022,-0.78786 -1.44263,-1.14226 -0.44462,-0.35196 -1.23165,-0.83797 -0.37808,-0.25714 -1.27142,-0.73216 -0.18173,-0.0952 -0.78556,-0.37874 -0.27537,-0.11107 -0.20474,-0.0813 -0.49522,-0.15215 -0.35704,-0.314 -0.28327,-0.38234 -0.19635,-0.43312 -0.10093,-0.46483 -9.8e-4,-0.47567 0.0991,-0.46516 0.14854,-0.55783 0.14475,-0.55864 0.14081,-0.55981 0.13901,-0.45481 0.23167,-0.41553 0.31383,-0.35737 0.38202,-0.28343 0.43295,-0.19684 0.46484,-0.10125 0.50672,0.1073 0.25452,0.0317 0.29526,0.0365 0.89186,0.0482 0.20637,0.005 1.4078,-0.0245 0.77899,-0.0894 2.53364,-0.29115 0.61961,-0.1298 2.01064,-0.42129 2.32792,-0.66611 0.71605,-0.20506 0.24564,-1.45794 0.22396,-1.4615 0.2021,-1.4647 -3.1263,-1.97141 -0.96219,-0.60672 -1.64309,-0.82845 -0.50623,-0.25525 -1.3751,-0.57281 -0.42211,-0.1758 -1.39284,-0.46119 -0.19718,-0.0567 -0.84569,-0.21286 -0.29214,-0.0534 -0.21688,-0.0384 -0.5156,-0.0493 -0.41308,-0.23577 -0.35425,-0.31738 -0.27965,-0.38479 -0.19241,-0.43497 -0.0967,-0.46573 0.003,-0.47563 0.0332,-0.57624 0.0291,-0.57648 0.0255,-0.57665 0.0446,-0.47354 0.14312,-0.45356 0.23545,-0.41328 0.31711,-0.35453 0.38465,-0.27991 0.43476,-0.19277 0.5179,0.003 0.25583,-0.0202 0.29657,-0.0237 0.88332,-0.13243 0.20309,-0.0369 1.37411,-0.30728 0.74498,-0.24445 2.42306,-0.795207 0.58082,-0.251857 1.88479,-0.817327 2.1462,-1.121238 0.66003,-0.344851 -0.0528,-1.477612 -0.075,-1.476654 -0.097,-1.475371 -3.45919,-1.30177 -1.06456,-0.400604 -1.77617,-0.480751 -0.54731,-0.148042 -1.46219,-0.284283 -0.44889,-0.08726 -1.45724,-0.171357 -0.20441,-0.01645 -0.87132,-0.03824 -0.29691,0.0064 -0.22018,0.0064 -0.51493,0.05554 -0.45201,-0.147722 -0.41095,-0.239553 -0.35145,-0.320639 -0.27604,-0.387339 -0.18829,-0.436725 -0.0924,-0.46661 -0.0836,-0.571118 -0.0874,-0.570541 -0.0912,-0.569954 -0.0516,-0.472847 0.0489,-0.473114 0.14754,-0.452212 0.23925,-0.411103 0.32023,-0.35158 0.38712,-0.276358 0.50803,-0.101251 0.24647,-0.07135 0.28573,-0.08277 0.83846,-0.307588 0.19159,-0.0769 1.28407,-0.577707 0.68056,-0.389411 2.21357,-1.266653 0.51823,-0.363618 1.68153,-1.179895 1.87657,-1.530376 0.57721,-0.470743 -0.34915,-1.436719 -0.37068,-1.431282 -0.39188,-1.425709 -3.65044,-0.578859 -1.12338,-0.178111 -1.83663,-0.113208 -0.56589,-0.035 -1.48962,0.01593 -0.45726,0.0049 -1.46186,0.125368 -0.20341,0.02579 -0.86115,0.137854 -0.2895,0.06605 -0.21443,0.05027 -0.49325,0.158065 -0.47255,-0.05389 -0.45087,-0.151821 -0.40863,-0.243341 -0.34834,-0.323852 -0.27242,-0.389904 -0.18452,-0.438539 -0.19668,-0.542547 -0.20045,-0.541232 -0.20424,-0.539919 -0.14557,-0.452834 -0.0473,-0.473208 0.0534,-0.472717 0.15165,-0.450862 0.24301,-0.4088 0.32353,-0.348663 0.47715,-0.201441 0.22723,-0.119453 0.26307,-0.138512 0.75943,-0.470087 0.17219,-0.11403 1.14146,-0.824171 0.58822,-0.518559 1.9132,-1.686298 0.43444,-0.460557 1.4096,-1.494222 1.53021,-1.876733 0.47059,-0.577215 -0.63129,-1.337144 -0.65115,-1.327448 -0.67087,-1.317591 -3.69218,0.167924 -1.13619,0.05176 -1.82186,0.258622 -0.56144,0.07969 -1.45577,0.315473 -0.44692,0.09678 -1.40665,0.417179 -0.19421,0.06605 -0.81563,0.308407 -0.27028,0.123231 -0.20013,0.09217 -0.45119,0.254185 -0.47387,0.04239 -0.47206,-0.05801 -0.44922,-0.156092 -0.4065,-0.247121 -0.34538,-0.327138 -0.2688,-0.392204 -0.302,-0.49194 -0.30546,-0.489804 -0.30857,-0.487832 -0.2338,-0.414222 -0.14148,-0.454149 -0.0428,-0.473702 0.0577,-0.472058 0.15576,-0.449384 0.2468,-0.406663 0.42686,-0.293292 0.19849,-0.162665 0.22987,-0.18879 0.64918,-0.613364 0.14574,-0.146399 0.95217,-1.037116 0.4719,-0.626179 1.53447,-2.036934 0.33289,-0.538603 1.08,-1.747422 1.12092,-2.146363 0.34489,-0.660191 -0.88744,-1.182529 -0.90517,-1.16922 -0.92227,-1.155582 -3.58291,0.907641 -1.10251,0.279324 -1.73248,0.620101 -0.53383,0.191255 -1.36262,0.601862 -0.41816,0.184848 -1.29393,0.691902 -0.17695,0.103847 -0.73693,0.466143 -0.23989,0.174989 -0.17746,0.13079 -0.39088,0.339626 -0.45547,0.137032 -0.47419,0.03812 -0.4714,-0.06244 -0.44791,-0.160201 -0.4042,-0.250899 -0.34226,-0.330096 -0.39482,-0.421123 -0.39764,-0.418329 -0.40058,-0.415701 -0.31235,-0.358522 -0.23003,-0.416357 -0.13736,-0.455464 -0.0385,-0.47403 0.062,-0.471565 0.15986,-0.44807 0.3592,-0.373145 0.16167,-0.199306 0.18699,-0.231182 0.51265,-0.731501 0.1132,-0.172689 0.72394,-1.207503 0.33618,-0.708499 1.09314,-2.304099 0.21755,-0.594468 0.70604,-1.929147 0.6661,-2.328088 0.20473,-0.716057 -1.10728,-0.979772 -1.1219,-0.963012 -1.13603,-0.946253 -3.32675,1.610388 -1.02381,0.495554 -1.57226,0.956112 -0.48439,0.294605 -1.21342,0.863935 -0.37265,0.265359 -1.12798,0.938037 -0.15247,0.137361 -0.628,0.604985 -0.1998,0.219844 -0.14738,0.163652 -0.31448,0.411429 -0.41866,0.225924 -0.45678,0.132761 -0.47435,0.03369 -0.47092,-0.06671 -0.44642,-0.164309 -0.40174,-0.254514 -0.47156,-0.333054 -0.4737,-0.329767 -0.476,-0.326481 -0.37824,-0.288362 -0.30923,-0.361479 -0.22609,-0.418494 -0.13309,-0.456613 -0.0342,-0.474358 0.0664,-0.471073 0.27653,-0.437882 0.11832,-0.227732 0.13669,-0.264208 0.35474,-0.819571 0.0763,-0.191913 0.46615,-1.328599 0.18665,-0.76157 0.60679,-2.476951 0.0934,-0.62618 0.30332,-2.03184 0.18386,-2.414514 0.0565,-0.742511 -1.28192,-0.736759 -1.29278,-0.717535 -1.3033,-0.698148 -2.93455,2.24692 -0.90305,0.691574 -1.34765,1.253018 -0.4152,0.386125 -1.01461,1.090516 -0.31154,0.33486 -0.91617,1.145888 -0.12159,0.165294 -0.49343,0.719016 -0.15149,0.255498 -0.1114,0.190106 -0.22526,0.466308 -0.3646,0.305449 -0.42063,0.221981 -0.45793,0.128653 -0.47469,0.02941 -0.47041,-0.07114 -0.44479,-0.168417 -0.52891,-0.231346 -0.53038,-0.227568 -0.53187,-0.223952 -0.42868,-0.206371 -0.37544,-0.291977 -0.30578,-0.364272 -0.22248,-0.420466 -0.12882,-0.457927 -0.0298,-0.474688 0.18271,-0.484545 0.07,-0.246957 0.0809,-0.286225 0.18238,-0.874286 0.0362,-0.20325 0.18895,-1.395308 0.0296,-0.783588 0.0958,-2.548425 -0.0344,-0.632095 -0.11191,-2.0512264 -0.3061,-2.4020275 -0.0941,-0.7388958 -1.40401,-0.4635142 -1.41076,-0.4426478 -1.41716,-0.4216156 -2.42207,2.7917672 -0.74547,0.85917 -1.06767,1.4986574 -0.32895,0.4618717 -0.77439,1.272405 -0.23775,0.390726 -0.66677,1.306909 -0.0858,0.186326 -0.33848,0.803633 -0.0971,0.280639 -0.0708,0.208672 -0.12684,0.502128 -0.29559,0.372651 -0.36739,0.302164 -0.42261,0.218037 -0.45924,0.124381 -0.47485,0.02497 -0.46976,-0.07541 -0.56456,-0.120109 -0.56538,-0.116166 -0.56611,-0.112387 -0.46134,-0.115838 -0.42663,-0.210315 -0.37285,-0.295262 -0.30242,-0.367065 -0.21845,-0.422602 -0.12471,-0.458914 0.0815,-0.511493 0.0187,-0.255992 0.0216,-0.296577 0.003,-0.893181 -0.005,-0.206371 -0.0956,-1.404839 -0.12882,-0.7733997 -0.4191,-2.5155631 -0.16102,-0.6122148 -0.52253,-1.9868186 -0.7833,-2.2912832 -0.24091,-0.7047193 -1.46857,-0.1715384 -1.47098,-0.1495205 -1.47303,-0.1276682 -1.81056,3.222256 -0.5572,0.9916016 -0.74417,1.6828485 -0.22926,0.5185587 -0.50244,1.4023736 -0.15429,0.430488 -0.39005,1.4143674 -0.0465,0.199799 -0.16975,0.85539 -0.0385,0.294441 -0.0274,0.218695 -0.0232,0.517243 -0.21455,0.424573 -0.29902,0.369858 -0.37012,0.298713 -0.42469,0.214259 -0.46023,0.120109 -0.4752,0.0207 -0.57718,-0.004 h -0.57722 l -0.57717,0.004 -0.4752,-0.0207 -0.460233,-0.120109 -0.424689,-0.214259 -0.370122,-0.298713 -0.299021,-0.369858 -0.214561,-0.424573 -0.02318,-0.517243 -0.033,-0.254514 -0.03789,-0.29451 -0.17706,-0.875436 -0.04699,-0.201113 L 97.918912,9.4630386 97.637054,8.7313719 96.720112,6.3516915 96.439162,5.7843341 95.527432,3.9434207 94.29893,1.856702 Z M 105.54152,22.495197 h 15.03179 l -0.0302,7.379426 -0.0289,7.379425 -9.32758,3.935191 -9.41855,3.933711 -0.091,-0.106805 3.80236,-22.209094 z m -42.158102,26.68716 v 1.929475 l -0.824662,0.139991 -0.774059,0.264373 -0.698963,0.405678 -0.59924,0.558977 -0.492424,0.723451 -0.381198,0.896796 -0.249912,1.074413 -0.09954,1.257782 0.09954,1.27372 0.249912,1.07885 0.381198,0.888088 0.492424,0.732159 0.618134,0.579024 0.706034,0.424573 0.766827,0.260101 0.805929,0.125531 v 1.909101 l -1.473022,-0.179096 -1.373287,-0.381197 -1.237741,-0.597918 -1.059954,-0.808563 -0.847668,-1.028242 -0.649844,-1.229028 -0.39286,-1.426692 -0.131445,-1.620411 0.131445,-1.614495 0.39286,-1.412396 0.649844,-1.224593 0.847668,-1.012304 1.055682,-0.814478 1.217362,-0.593483 1.379205,-0.392861 z m 0.997846,0 1.467276,0.169073 1.354564,0.391384 1.228866,0.60942 1.042704,0.817271 0.862119,1.01822 0.661347,1.218677 0.411594,1.412396 0.137191,1.614495 -0.137191,1.620411 -0.411594,1.426692 -0.65559,1.229028 -0.867876,1.028242 -1.035474,0.804291 -1.211616,0.60219 -1.360311,0.381197 -1.486009,0.179096 v -1.909101 l 0.824673,-0.13999 0.773888,-0.265852 0.698974,-0.418658 0.599389,-0.564729 0.492435,-0.732159 0.381197,-0.888088 0.249913,-1.07885 0.09954,-1.27372 -0.09954,-1.267804 -0.249913,-1.064391 -0.386943,-0.896796 -0.511329,-0.723451 -0.59924,-0.573436 -0.698963,-0.410114 -0.768312,-0.275711 -0.805769,-0.129968 z m 34.953443,0 v 1.929475 l -0.418804,0.0534 -0.405795,0.08659 -0.392795,0.115509 -0.38124,0.148863 -0.361044,0.183368 -0.337909,0.222311 -0.311945,0.259935 -0.28737,0.299042 -0.259942,0.339297 -0.232514,0.384154 -0.205055,0.426051 -0.176185,0.470745 -0.142948,0.514122 -0.106805,0.560291 -0.06782,0.606627 -0.03172,0.651155 0.03172,0.661507 0.06782,0.612213 0.106805,0.56325 0.142948,0.5156 0.176185,0.463515 0.205055,0.424573 0.232514,0.385632 0.259942,0.346527 0.298937,0.309064 0.319143,0.26996 0.342246,0.231182 0.363927,0.193391 0.378357,0.145906 0.38847,0.114195 0.398585,0.07936 0.407237,0.04617 v 1.909101 l -0.749493,-0.06491 -0.723517,-0.114195 -0.698953,-0.164637 -0.674399,-0.216559 -0.63974,-0.275874 -0.59642,-0.326317 -0.551648,-0.376923 -0.508338,-0.427367 -0.450567,-0.488161 -0.398564,-0.540081 -0.349487,-0.589211 -0.300368,-0.639817 -0.235387,-0.687304 -0.163166,-0.736595 -0.09527,-0.788517 -0.03044,-0.834688 0.03322,-0.831729 0.09826,-0.782766 0.163155,-0.732159 0.22962,-0.680237 0.300378,-0.639654 0.349476,-0.584938 0.398564,-0.532852 0.450568,-0.479453 0.506896,-0.436075 0.547311,-0.378402 0.587758,-0.324838 0.629637,-0.268645 0.675851,-0.223788 0.703289,-0.171867 0.732157,-0.118467 z m 0.997873,0 0.74807,0.05784 0.71916,0.111236 0.69173,0.167431 0.66285,0.223953 0.6383,0.277187 0.59064,0.329276 0.54588,0.384153 0.49677,0.436074 0.46067,0.479453 0.40726,0.532852 0.3538,0.584939 0.30182,0.639653 0.23828,0.681716 0.17185,0.73068 0.10403,0.782766 0.0347,0.83173 -0.0347,0.834688 -0.10253,0.785723 -0.17185,0.73791 -0.23974,0.688782 -0.30181,0.639817 -0.35381,0.589211 -0.40726,0.540082 -0.46067,0.48816 -0.49532,0.427367 -0.5401,0.376923 -0.58342,0.326317 -0.62819,0.275874 -0.6643,0.216559 -0.69606,0.164638 -0.72638,0.114194 -0.75962,0.06491 V 61.79535 l 0.41879,-0.05488 0.40581,-0.08511 0.39279,-0.116988 0.38125,-0.148864 0.36247,-0.192077 0.33648,-0.226581 0.31192,-0.264373 0.28739,-0.300356 0.25994,-0.346526 0.2325,-0.385632 0.20506,-0.424574 0.1762,-0.463515 0.14295,-0.5156 0.1068,-0.563249 0.0678,-0.612214 0.0317,-0.661507 -0.0317,-0.658384 -0.0678,-0.60942 -0.1068,-0.557499 -0.14295,-0.506892 -0.17764,-0.470744 -0.20939,-0.426052 -0.23973,-0.384154 -0.27149,-0.339296 -0.28739,-0.307586 -0.31192,-0.265851 -0.33791,-0.226582 -0.36105,-0.183532 -0.37979,-0.155929 -0.38847,-0.119782 -0.39859,-0.08231 -0.40723,-0.04765 z m 42.39346,0 v 1.929475 l -0.40567,0.06342 -0.39286,0.0953 -0.3812,0.125695 -0.36821,0.158887 -0.34949,0.18764 -0.32928,0.220995 -0.30906,0.258458 -0.2859,0.296083 -0.25993,0.340776 -0.2325,0.382839 -0.20522,0.427368 -0.17614,0.469429 -0.13276,0.505412 -0.0983,0.550106 -0.0635,0.59644 -0.0302,0.64261 0.0302,0.65132 0.0635,0.602191 0.0983,0.554541 0.13276,0.506892 0.17039,0.464993 0.20505,0.423258 0.23546,0.385469 0.26289,0.345212 0.2859,0.309064 0.30759,0.26996 0.32927,0.231018 0.35097,0.193555 0.37675,0.155929 0.38416,0.122738 0.3899,0.08954 0.39713,0.05636 v 1.888891 l -0.74793,-0.06491 -0.71917,-0.118466 -0.69174,-0.170388 -0.66283,-0.223789 -0.61664,-0.275874 -0.57475,-0.327796 -0.53581,-0.376923 -0.49392,-0.427531 -0.45054,-0.479452 -0.3986,-0.528416 -0.34949,-0.579189 -0.30036,-0.631108 -0.23676,-0.685989 -0.16333,-0.73791 -0.0938,-0.787038 -0.0302,-0.836166 0.0332,-0.83173 0.098,-0.782766 0.16333,-0.732158 0.22953,-0.680238 0.30036,-0.630944 0.34949,-0.579189 0.39861,-0.529894 0.45053,-0.478138 0.49392,-0.427367 0.53581,-0.376923 0.57475,-0.327797 0.61665,-0.275874 0.66282,-0.225266 0.69174,-0.17466 0.71917,-0.124218 z m 1.02397,0 1.34158,0.131447 1.22887,0.297563 1.11779,0.464993 1.00507,0.62963 -1.03679,0.713427 -0.51707,0.356715 -0.5184,0.356714 -0.29164,-0.233976 -0.30183,-0.203742 -0.31055,-0.173181 -0.31909,-0.140156 -0.33075,-0.112551 -0.34373,-0.08527 -0.35523,-0.05915 -0.36823,-0.03319 z M 40.06524,49.394644 h 2.995025 V 63.607663 H 40.06524 Z m 4.018996,0 h 1.273712 l 1.166759,0.0723 1.153942,0.218037 1.087392,0.360986 0.960379,0.505577 0.830259,0.641132 0.642602,0.766828 0.430488,0.863606 0.144273,0.968928 -0.23102,1.426855 -0.693217,1.195674 -1.085918,0.940173 -1.410914,0.659863 2.096901,2.797354 2.098226,2.79571 h -3.171156 l -1.734449,-2.574716 -1.735751,-2.574879 -0.08096,0.0058 -0.09388,0.01446 h -1.64768 v -1.696815 h 1.698294 l 0.548786,-0.03467 0.548625,-0.101219 0.52579,-0.193392 0.473541,-0.288854 0.405837,-0.389904 0.317777,-0.515601 0.206528,-0.665778 0.06782,-0.800018 -0.03044,-0.371173 -0.09378,-0.420138 -0.195036,-0.44774 -0.32928,-0.420137 -0.456281,-0.385633 -0.618134,-0.307585 -0.81004,-0.218038 -1.036948,-0.0723 h -1.223109 z m 31.782041,0 h 2.996658 v 14.213019 h -2.996658 z m 4.018984,0 h 1.273713 l 1.155427,0.05356 1.116304,0.158722 1.036787,0.274396 0.91126,0.401569 0.761039,0.534332 0.586327,0.680074 0.372567,0.805933 0.127013,0.948717 -0.06216,0.573273 -0.187731,0.525787 -0.28016,0.453327 -0.343698,0.395819 -0.405795,0.336341 -0.467902,0.280146 -0.467848,0.193555 -0.456452,0.115508 0.593643,0.10122 0.629605,0.18764 0.625289,0.280146 0.573318,0.375445 0.52421,0.472222 0.424581,0.569001 0.278708,0.647047 0.09677,0.742182 -0.09388,0.895481 -0.281601,0.762392 -0.424571,0.63686 -0.52421,0.519872 -0.580538,0.400091 -0.642645,0.313337 -0.642656,0.222474 -0.631111,0.163158 -0.567529,0.111073 -0.505412,0.06359 -0.39286,0.01873 H 79.88512 V 61.91085 h 2.722265 l 1.179736,-0.164638 0.892526,-0.490953 0.561773,-0.766829 0.186289,-0.987823 -0.19352,-0.960219 -0.580506,-0.795747 -0.954634,-0.534331 -1.316926,-0.179096 H 79.88512 v -1.561096 h 1.198629 l 0.556026,-0.0058 0.567519,-0.01446 0.556027,-0.06211 0.518388,-0.150178 0.449222,-0.259937 0.349487,-0.395654 0.238239,-0.566208 0.08662,-0.763871 -0.03172,-0.352277 -0.09399,-0.36115 -0.189119,-0.366737 -0.310546,-0.327795 -0.454808,-0.278832 -0.618123,-0.22231 -0.811525,-0.144427 -1.035474,-0.04913 h -0.97484 z m 30.808859,0 h 14.00645 v 1.58147 h -5.49333 v 12.631549 h -3.02113 V 50.976114 h -5.49199 z m 17.65147,0 h 3.04563 v 14.213019 h -3.04563 z m 30.13436,0.02038 h 2.97054 l 6.39176,14.192641 h -3.09623 l -4.76839,-10.644566 -4.81918,10.644566 h -3.12071 z m -0.20062,9.67991 h 3.34598 l 0.72345,1.56241 h -4.7684 z m -11.90827,1.659188 0.5184,0.350963 0.51707,0.352441 0.5184,0.352278 0.51839,0.350964 -0.41011,0.220995 -0.59496,0.411429 -0.54436,0.254185 -0.57343,0.213764 -0.60072,0.171868 -0.62815,0.131447 -0.65706,0.08955 -0.68452,0.05044 v -1.909101 l 0.2744,-0.0419 0.44906,-0.06491 0.34373,-0.08955 0.33075,-0.112717 0.32928,-0.13999 0.31334,-0.169073 0.29739,-0.197829 z m -50.297171,11.708956 0.07081,0.09103 6.517311,18.828362 8.89721,25.35437 3.10196,0.15741 h 3.04275 v 1.2448 H 96.434964 v -1.2448 h 9.591836 l -0.73218,-2.29036 -2.36689,-7.29858 L 97.564277,90.861145 93.616051,79.095897 95.977188,72.5035 Z m -53.098737,0.280146 4.330844,0.197828 0.592169,16.343107 0.01645,3.916441 0.04336,11.75222 0.06355,0.22095 0.186332,0.66285 0.690259,1.72717 0.992089,1.3546 1.309707,0.99787 1.642093,0.65563 1.202912,0.19496 1.494714,0.065 1.488797,-0.065 1.189924,-0.19496 0.902545,-0.28883 0.749578,-0.34225 0.657064,-0.4289 0.622406,-0.54733 0.772574,-0.92423 0.580506,-1.07731 0.408796,-1.27806 0.256983,-1.52932 0.04913,-1.43255 0.0361,-3.221827 0.02296,-4.832008 0.0085,-6.263149 0.135717,-15.026041 4.824924,-0.619444 h 4.06664 l 0.352275,0.399928 0.349487,0.400091 v 16.088858 l -0.0064,10.066935 -0.06643,5.297017 -0.186321,2.47089 -0.368221,1.59285 -0.378399,1.12786 -0.53285,1.21162 -0.626838,1.16686 -0.652632,0.99067 -1.958236,2.05931 -2.442116,1.62744 -2.915658,1.1914 -3.379169,0.75106 -1.436879,0.13868 -1.79507,0.0794 -1.821025,0.009 -1.513447,-0.0678 v 0.01 l -5.890463,-1.30543 -4.488424,-2.71354 -2.989257,-4.03631 -1.397938,-5.27249 -0.04187,-1.62895 -0.03322,-3.64496 -0.02467,-5.177143 -0.0085,-6.225606 0.586252,-16.421108 4.331015,-0.197828 z m 80.847518,0.02596 h 3.83266 l 2.59788,0.0073 1.60448,0.02465 0.85917,0.04896 0.36247,0.0838 0.51412,0.530059 1.16692,1.322848 1.64621,1.91765 1.95116,2.309187 3.9973,4.764173 2.04778,2.404468 0.80428,0.850573 0.26569,0.105523 0.38415,-0.303262 0.98635,-1.075857 1.80805,-2.105531 2.8565,-3.389422 2.26434,-2.690395 1.90039,-2.245596 1.33584,-1.566852 0.57343,-0.652633 0.0764,-0.07081 0.0751,-0.07081 0.0766,-0.07065 0.0751,-0.07081 1.30264,-0.0073 1.30265,-0.0088 1.30246,-0.0073 1.30265,-0.0085 2.77714,-0.01015 1.61154,0.01446 0.78852,0.0506 0.31053,0.09678 0.36246,0.404199 0.17319,2.254309 0.0491,6.596828 -0.0147,13.428788 -0.0289,21.733899 -0.31614,0.29033 -0.10696,0.0968 -0.42161,0.38695 h -3.91647 l -1.99585,-0.006 -1.24759,-0.0245 -0.6947,-0.0519 -0.3365,-0.0867 -0.4231,-0.28014 -0.20785,-1.54229 -0.081,-4.65439 -0.039,-9.61206 -0.0131,-3.85289 -0.0434,-11.557286 -1.64917,1.923568 -1.64769,1.923578 -1.64916,1.922115 -1.64785,1.923557 -2.79292,3.242051 -2.13289,2.44199 -1.39498,1.550977 -0.57623,0.57332 -0.15889,0.0461 -0.1574,0.01 -0.16316,-0.0259 -0.18337,-0.0622 -0.53006,-0.49388 -1.26353,-1.39068 -2.0854,-2.384232 -2.99503,-3.478881 -2.53741,-2.956115 -2.09674,-2.431895 -1.43704,-1.654942 -0.55882,-0.628206 -0.0519,0.891031 -0.0362,2.803021 -0.0217,4.800252 -0.006,6.881207 v 15.44912 l -0.24696,0.27735 -0.0836,0.0924 -0.0824,0.091 -0.24696,0.27736 -2.02756,0.0147 -1.01231,0.005 -1.01378,0.006 -2.09264,0.006 -1.27798,-0.0164 -0.68452,-0.0476 -0.30906,-0.0866 -0.39713,-0.33946 -0.1906,-2.16468 -0.0607,-6.56929 -0.003,-13.554497 v -21.79491 l 0.19207,-0.192076 0.0953,-0.09678 0.0968,-0.0953 0.0953,-0.09678 0.0968,-0.0953 0.0953,-0.09678 0.0968,-0.09678 z m -30.849297,8.150692 0.629626,1.903349 -0.4809,1.393517 -3.344564,9.908101 -4.400225,13.069257 -2.400088,7.14118 -0.762556,2.40304 3.120755,0.15593 h 3.179946 v 1.2448 H 74.59847 v -1.2448 h 5.617545 l 1.09035,-2.91278 7.82421,-22.139774 z m 6.564946,19.881104 0.495341,1.49901 H 88.323311 l 0.486667,-1.47157 h 5.379327 z m 19.356901,28.92576 h 6.07696 v 21.16065 h -6.07696 z m 7.63362,0 h 0.65855 l 1.67233,0.0649 1.51772,0.19635 1.36474,0.32796 1.21162,0.45776 1.35455,0.81449 0.96614,1.02824 0.5805,1.24331 0.19356,1.45562 -0.16908,1.36178 -0.50393,1.17842 -0.84044,0.99654 -1.17842,0.813 1.17842,0.80725 0.84044,0.99209 0.50393,1.17546 0.16908,1.36048 v 6.88699 h -6.13315 v -6.88699 l -0.0419,-0.65133 -0.12274,-0.58345 -0.20653,-0.5156 -0.28738,-0.4461 -0.39713,-0.4001 -0.47797,-0.28589 -0.5575,-0.17186 -0.63686,-0.0564 h -0.65855 v -2.4781 h 0.65855 l 0.63686,-0.0564 0.5575,-0.17187 0.47797,-0.28589 0.39713,-0.39992 0.28738,-0.44626 0.20653,-0.51133 0.12274,-0.57903 0.0419,-0.64557 -0.0419,-0.65131 -0.12274,-0.5833 -0.20653,-0.5156 -0.28738,-0.44626 -0.39713,-0.39993 -0.47797,-0.28606 -0.5575,-0.17187 -0.63686,-0.0562 h -0.65855 z m -87.213167,0.0147 h 7.616356 l 7.945465,21.13172 -6.078258,0.0149 -0.01869,-0.0149 -3.386571,-9.02431 v 9.03877 h -6.078259 z m 17.336684,0 h 7.616196 v 21.14618 h -6.078269 v -9.03877 l -2.635508,6.97506 -3.039871,-8.09565 z m 20.643728,0 h 6.078269 l -7.853132,21.14618 h -6.078269 z m 19.160497,0 h 6.078268 v 21.14618 h -6.078268 z m 7.616278,0 h 0.67727 l 1.67085,0.0664 1.51922,0.19635 1.3647,0.32633 1.2116,0.45792 1.34593,0.81448 0.96032,1.02528 0.57765,1.23757 0.19208,1.44987 v 9.99768 l -0.19208,1.45708 -0.57765,1.24201 -0.96032,1.02825 -1.34593,0.81447 -1.20439,0.45201 -1.36325,0.32205 -1.52067,0.19339 -1.67806,0.0651 h -0.67727 v -2.47663 h 0.67727 l 0.63686,-0.0578 0.55743,-0.17187 0.47656,-0.28441 0.39714,-0.40009 0.28882,-0.44627 0.20651,-0.51264 0.12274,-0.57902 0.0419,-0.64557 h -0.0187 v -9.99768 h 0.0187 l -0.0419,-0.64541 -0.12274,-0.57771 -0.20651,-0.51264 -0.28882,-0.44627 -0.39714,-0.40009 -0.47656,-0.28589 -0.55743,-0.17186 -0.63686,-0.0562 h -0.67727 z m 37.22206,0 h 6.07843 v 21.14618 h -6.07843 z m 11.34501,0 h 6.07695 v 21.14618 h -6.07695 z m 7.61488,0 h 0.67728 l 1.67233,0.0664 1.51772,0.19635 1.36475,0.32633 1.21161,0.45792 1.34585,0.81448 0.96186,1.02528 0.57623,1.23757 0.19208,1.44987 v 9.99768 l -0.19208,1.45708 -0.57623,1.24201 -0.96186,1.02825 -1.34585,0.81447 -1.20439,0.45201 -1.36327,0.32205 -1.52066,0.19339 -1.67809,0.0651 h -0.67728 v -2.47663 h 0.67728 l 0.63685,-0.0578 0.5575,-0.17187 0.47798,-0.28441 0.39713,-0.40009 0.28738,-0.44627 0.20654,-0.51264 0.12273,-0.57902 0.0419,-0.64557 h -0.0189 v -9.99768 h 0.0189 l -0.0419,-0.64541 -0.12273,-0.57771 -0.20654,-0.51264 -0.28738,-0.44627 -0.39713,-0.40009 -0.47798,-0.28589 -0.5575,-0.17186 -0.63685,-0.0562 h -0.67728 z m -76.148297,2.1835 7.048699,18.96268 h -6.078291 l -1.40944,-3.78945 H 78.46859 l 0.914218,-2.4781 h 3.369141 l -1.683834,-4.51141 z"
     stroke="black"
     fill="lightgray"
     stroke-width="0.821543"
     id="path4-3"
     style="fill:#000000;stroke:none" />
  <rect
     style="fill:#000000;fill-opacity:1;stroke:none;stroke-width:0.264583"
     id="rect1003"
     width="191.44223"
     height="34.454365"
     x="9.7435913"
     y="199.28763"
     ry="10.159587" />
  <text
     xml:space="preserve"
     style="font-weight:bold;font-size:27.5167px;line-height:125%;font-family:'Courier 10 Pitch';-inkscape-font-specification:'Courier 10 Pitch Bold';letter-spacing:0px;word-spacing:0px;fill:#fefefe;fill-opacity:1;stroke:none;stroke-width:0.264583px;stroke-linecap:butt;stroke-linejoin:miter;stroke-opacity:1"
     x="20.233782"
     y="223.45372"
     id="text341"><tspan
       sodipodi:role="line"
       id="tspan339"
       style="font-style:normal;font-variant:normal;font-weight:normal;font-stretch:normal;font-size:27.5167px;font-family:'Stencil Export';-inkscape-font-specification:'Stencil Export';fill:#fefefe;fill-opacity:1;stroke:none;stroke-width:0.264583px"
       x="20.233782"
       y="223.45372">crm.ii.uam.es</tspan></text>
  <rect
     style="fill:#000000;fill-opacity:1;stroke:none;stroke-width:0.264583"
     id="rect1300"
     width="191.44223"
     height="34.454365"
     x="9.7435913"
     y="234.50931"
     ry="10.159587" />
  <text
     xml:space="preserve"
     style="font-weight:bold;font-size:27.5167px;line-height:125%;font-family:'Courier 10 Pitch';-inkscape-font-specification:'Courier 10 Pitch Bold';letter-spacing:0px;word-spacing:0px;fill:#fefefe;fill-opacity:1;stroke:none;stroke-width:0.264583px;stroke-linecap:butt;stroke-linejoin:miter;stroke-opacity:1"
     x="20.233782"
     y="258.67523"
     id="text1304"><tspan
       sodipodi:role="line"
       id="tspan1302"
       style="font-style:normal;font-variant:normal;font-weight:normal;font-stretch:normal;font-size:27.5167px;font-family:'Stencil Export';-inkscape-font-specification:'Stencil Export';fill:#fefefe;fill-opacity:1;stroke:none;stroke-width:0.264583px"
       x="20.233782"
       y="258.67523">crm.ii.uam.es</tspan></text>
  <rect
     style="fill:#000000;fill-opacity:1;stroke:none;stroke-width:0.264583"
     id="rect1306"
     width="191.44223"
     height="34.454365"
     x="9.7435913"
     y="269.52036"
     ry="10.159587" />
  <text
     xml:space="preserve"
     style="font-weight:bold;font-size:27.5167px;line-height:125%;font-family:'Courier 10 Pitch';-inkscape-font-specification:'Courier 10 Pitch Bold';letter-spacing:0px;word-spacing:0px;fill:#fefefe;fill-opacity:1;stroke:none;stroke-width:0.264583px;stroke-linecap:butt;stroke-linejoin:miter;stroke-opacity:1"
     x="20.233782"
     y="293.68646"
     id="text1310"><tspan
       sodipodi:role="line"
       id="tspan1308"
       style="font-style:normal;font-variant:normal;font-weight:normal;font-stretch:normal;font-size:27.5167px;font-family:'Stencil Export';-inkscape-font-specification:'Stencil Export';fill:#fefefe;fill-opacity:1;stroke:none;stroke-width:0.264583px"
       x="20.233782"
       y="293.68646">crm.ii.uam.es</tspan></text>
</svg>
