  0
SECTION
  2
HEADER
  9
$ACADVER
  1
AC1014
  9
$HANDSEED
  5
FFFF
  9
$MEASUREMENT
 70
     1
  0
ENDSEC
  0
SECTION
  2
TABLES
  0
TABLE
  2
VPORT
  5
8
330
0
100
AcDbSymbolTable
 70
     4
  0
VPORT
  5
2E
330
8
100
AcDbSymbolTableRecord
100
AcDbViewportTableRecord
  2
*ACTIVE
 70
     0
 10
0.0
 20
0.0
 11
1.0
 21
1.0
 12
210.0
 22
148.5
 13
0.0
 23
0.0
 14
10.0
 24
10.0
 15
10.0
 25
10.0
 16
0.0
 26
0.0
 36
1.0
 17
0.0
 27
0.0
 37
0.0
 40
341.0
 41
1.24
 42
50.0
 43
0.0
 44
0.0
 50
0.0
 51
0.0
 71
     0
 72
   100
 73
     1
 74
     3
 75
     0
 76
     0
 77
     0
 78
     0
  0
ENDTAB
  0
TABLE
  2
LTYPE
  5
5
330
0
100
AcDbSymbolTable
 70
     1
  0
LTYPE
  5
14
330
5
100
AcDbSymbolTableRecord
100
AcDbLinetypeTableRecord
  2
BYBLOCK
 70
     0
  3

 72
    65
 73
     0
 40
0.0
  0
LTYPE
  5
15
330
5
100
AcDbSymbolTableRecord
100
AcDbLinetypeTableRecord
  2
BYLAYER
 70
     0
  3

 72
    65
 73
     0
 40
0.0
  0
LTYPE
  5
16
330
5
100
AcDbSymbolTableRecord
100
AcDbLinetypeTableRecord
  2
CONTINUOUS
 70
     0
  3
Solid line
 72
    65
 73
     0
 40
0.0
  0
ENDTAB
  0
TABLE
  2
LAYER
  5
2
100
AcDbSymbolTable
 70
2
  0
LAYER
  5
50
100
AcDbSymbolTableRecord
100
AcDbLayerTableRecord
  2
0
 70
0
  6
CONTINUOUS
  0
LAYER
  5
51
100
AcDbSymbolTableRecord
100
AcDbLayerTableRecord
  2
Layer_1
 70
0
  6
CONTINUOUS
  0
ENDTAB
  0
TABLE
  2
STYLE
  5
3
330
0
100
AcDbSymbolTable
 70
     1
  0
STYLE
  5
11
330
3
100
AcDbSymbolTableRecord
100
AcDbTextStyleTableRecord
  2
STANDARD
 70
     0
 40
0.0
 41
1.0
 50
0.0
 71
     0
 42
2.5
  3
txt
  4

  0
ENDTAB
  0
TABLE
  2
VIEW
  5
6
330
0
100
AcDbSymbolTable
 70
     0
  0
ENDTAB
  0
TABLE
  2
UCS
  5
7
330
0
100
AcDbSymbolTable
 70
     0
  0
ENDTAB
  0
TABLE
  2
APPID
  5
9
330
0
100
AcDbSymbolTable
 70
     2
  0
APPID
  5
12
330
9
100
AcDbSymbolTableRecord
100
AcDbRegAppTableRecord
  2
ACAD
 70
     0
  0
ENDTAB
  0
TABLE
  2
DIMSTYLE
  5
A
330
0
100
AcDbSymbolTable
 70
     1
  0
DIMSTYLE
105
27
330
A
100
AcDbSymbolTableRecord
100
AcDbDimStyleTableRecord
  2
ISO-25
 70
     0
  3

  4

  5

  6

  7

 40
1.0
 41
2.5
 42
0.625
 43
3.75
 44
1.25
 45
0.0
 46
0.0
 47
0.0
 48
0.0
140
2.5
141
2.5
142
0.0
143
0.03937007874016
144
1.0
145
0.0
146
1.0
147
0.625
 71
     0
 72
     0
 73
     0
 74
     0
 75
     0
 76
     0
 77
     1
 78
     8
170
     0
171
     3
172
     1
173
     0
174
     0
175
     0
176
     0
177
     0
178
     0
270
     2
271
     2
272
     2
273
     2
274
     3
340
11
275
     0
280
     0
281
     0
282
     0
283
     0
284
     8
285
     0
286
     0
287
     3
288
     0
  0
ENDTAB
  0
TABLE
  2
BLOCK_RECORD
  5
1
330
0
100
AcDbSymbolTable
 70
     1
  0
BLOCK_RECORD
  5
1F
330
1
100
AcDbSymbolTableRecord
100
AcDbBlockTableRecord
  2
*MODEL_SPACE
  0
BLOCK_RECORD
  5
1B
330
1
100
AcDbSymbolTableRecord
100
AcDbBlockTableRecord
  2
*PAPER_SPACE
  0
ENDTAB
  0
ENDSEC
  0
SECTION
  2
BLOCKS
  0
BLOCK
  5
20
330
1F
100
AcDbEntity
  8
0
100
AcDbBlockBegin
  2
*MODEL_SPACE
 70
     0
 10
0.0
 20
0.0
 30
0.0
  3
*MODEL_SPACE
  1

  0
ENDBLK
  5
21
330
1F
100
AcDbEntity
  8
0
100
AcDbBlockEnd
  0
BLOCK
  5
1C
330
1B
100
AcDbEntity
 67
     1
  8
0
100
AcDbBlockBegin
  2
*PAPER_SPACE
  1

  0
ENDBLK
  5
1D
330
1B
100
AcDbEntity
 67
     1
  8
0
100
AcDbBlockEnd
  0
ENDSEC
  0
SECTION
  2
ENTITIES
  0
LWPOLYLINE
  5
100
100
AcDbEntity
  8
Layer_1
 62
7
100
AcDbPolyline
 90
4
 70
1
 10
43.501040
 20
34.433206
 30
0.0
 10
43.501040
 20
38.543250
 30
0.0
 10
29.201438
 20
38.543250
 30
0.0
 10
29.201438
 20
34.433206
 30
0.0
  0
LWPOLYLINE
  5
101
100
AcDbEntity
  8
Layer_1
 62
7
100
AcDbPolyline
 90
72
 70
1
 10
39.731694
 20
46.020558
 30
0.0
 10
40.716411
 20
45.890572
 30
0.0
 10
41.556540
 20
45.500612
 30
0.0
 10
42.252074
 20
44.850681
 30
0.0
 10
42.803011
 20
43.940776
 30
0.0
 10
43.108403
 20
43.126041
 30
0.0
 10
43.326531
 20
42.204530
 30
0.0
 10
43.457413
 20
41.176247
 30
0.0
 10
43.501031
 20
40.041187
 30
0.0
 10
43.501031
 20
39.926676
 30
0.0
 10
43.501031
 20
39.812164
 30
0.0
 10
43.501031
 20
39.697652
 30
0.0
 10
43.501031
 20
39.583140
 30
0.0
 10
43.082214
 20
39.583140
 30
0.0
 10
42.663397
 20
39.583140
 30
0.0
 10
42.244579
 20
39.583140
 30
0.0
 10
41.825762
 20
39.583140
 30
0.0
 10
41.825762
 20
39.697652
 30
0.0
 10
41.825762
 20
39.812164
 30
0.0
 10
41.825762
 20
39.926676
 30
0.0
 10
41.825762
 20
40.041187
 30
0.0
 10
41.787170
 20
40.472153
 30
0.0
 10
41.671240
 20
40.848959
 30
0.0
 10
41.478045
 20
41.171604
 30
0.0
 10
41.207557
 20
41.440087
 30
0.0
 10
40.905908
 20
41.635067
 30
0.0
 10
40.559384
 20
41.774338
 30
0.0
 10
40.167995
 20
41.857903
 30
0.0
 10
39.731730
 20
41.885759
 30
0.0
 10
39.731730
 20
41.882639
 30
0.0
 10
39.731730
 20
41.879519
 30
0.0
 10
39.731730
 20
41.876399
 30
0.0
 10
39.731730
 20
41.873279
 30
0.0
 10
38.041500
 20
41.873279
 30
0.0
 10
36.351279
 20
41.873279
 30
0.0
 10
34.661049
 20
41.873279
 30
0.0
 10
32.970828
 20
41.873279
 30
0.0
 10
32.970828
 20
41.876399
 30
0.0
 10
32.970828
 20
41.879519
 30
0.0
 10
32.970828
 20
41.882639
 30
0.0
 10
32.970828
 20
41.885759
 30
0.0
 10
32.534555
 20
41.857903
 30
0.0
 10
32.143165
 20
41.774338
 30
0.0
 10
31.796641
 20
41.635067
 30
0.0
 10
31.495001
 20
41.440087
 30
0.0
 10
31.224514
 20
41.171604
 30
0.0
 10
31.031309
 20
40.848959
 30
0.0
 10
30.915380
 20
40.472153
 30
0.0
 10
30.876787
 20
40.041187
 30
0.0
 10
30.876787
 20
39.926676
 30
0.0
 10
30.876787
 20
39.812164
 30
0.0
 10
30.876787
 20
39.697652
 30
0.0
 10
30.876787
 20
39.583140
 30
0.0
 10
30.457970
 20
39.583140
 30
0.0
 10
30.039153
 20
39.583140
 30
0.0
 10
29.620336
 20
39.583140
 30
0.0
 10
29.201518
 20
39.583140
 30
0.0
 10
29.201518
 20
39.697652
 30
0.0
 10
29.201518
 20
39.812164
 30
0.0
 10
29.201518
 20
39.926676
 30
0.0
 10
29.201518
 20
40.041187
 30
0.0
 10
29.245765
 20
41.171604
 30
0.0
 10
29.378514
 20
42.198341
 30
0.0
 10
29.599765
 20
43.121398
 30
0.0
 10
29.909518
 20
43.940776
 30
0.0
 10
30.459837
 20
44.850681
 30
0.0
 10
31.153504
 20
45.500612
 30
0.0
 10
31.990519
 20
45.890572
 30
0.0
 10
32.970873
 20
46.020558
 30
0.0
 10
34.661094
 20
46.020558
 30
0.0
 10
36.351324
 20
46.020558
 30
0.0
 10
38.041545
 20
46.020558
 30
0.0
  0
LWPOLYLINE
  5
102
100
AcDbEntity
  8
Layer_1
 62
7
100
AcDbPolyline
 90
4
 70
1
 10
43.501040
 20
26.762188
 30
0.0
 10
43.501040
 20
30.872232
 30
0.0
 10
29.201438
 20
30.872232
 30
0.0
 10
29.201438
 20
26.762188
 30
0.0
  0
LWPOLYLINE
  5
103
100
AcDbEntity
  8
Layer_1
 62
7
100
AcDbPolyline
 90
81
 70
1
 10
35.912484
 20
21.393786
 30
0.0
 10
35.362165
 20
22.189952
 30
0.0
 10
34.688441
 20
22.758642
 30
0.0
 10
33.891319
 20
23.099855
 30
0.0
 10
32.970792
 20
23.213594
 30
0.0
 10
31.986076
 20
23.082834
 30
0.0
 10
31.145947
 20
22.690554
 30
0.0
 10
30.450413
 20
22.036754
 30
0.0
 10
29.899466
 20
21.121434
 30
0.0
 10
29.589713
 20
20.302056
 30
0.0
 10
29.368462
 20
19.378998
 30
0.0
 10
29.235713
 20
18.352261
 30
0.0
 10
29.191466
 20
17.221844
 30
0.0
 10
29.191466
 20
17.110423
 30
0.0
 10
29.191466
 20
16.999002
 30
0.0
 10
29.191466
 20
16.887582
 30
0.0
 10
29.191466
 20
16.776161
 30
0.0
 10
29.610284
 20
16.776161
 30
0.0
 10
30.029101
 20
16.776161
 30
0.0
 10
30.447918
 20
16.776161
 30
0.0
 10
30.866735
 20
16.776161
 30
0.0
 10
30.866735
 20
16.887582
 30
0.0
 10
30.866735
 20
16.999002
 30
0.0
 10
30.866735
 20
17.110423
 30
0.0
 10
30.866735
 20
17.221844
 30
0.0
 10
30.905328
 20
17.652810
 30
0.0
 10
31.021248
 20
18.029616
 30
0.0
 10
31.214453
 20
18.352261
 30
0.0
 10
31.484940
 20
18.620744
 30
0.0
 10
31.787209
 20
18.815724
 30
0.0
 10
32.135599
 20
18.954996
 30
0.0
 10
32.530112
 20
19.038561
 30
0.0
 10
32.970747
 20
19.066417
 30
0.0
 10
33.407012
 20
19.038561
 30
0.0
 10
33.798402
 20
18.954996
 30
0.0
 10
34.144925
 20
18.815724
 30
0.0
 10
34.446574
 20
18.620744
 30
0.0
 10
34.717062
 20
18.352261
 30
0.0
 10
34.910266
 20
18.029616
 30
0.0
 10
35.026196
 20
17.652810
 30
0.0
 10
35.064788
 20
17.221844
 30
0.0
 10
35.064788
 20
17.110423
 30
0.0
 10
35.064788
 20
16.999002
 30
0.0
 10
35.064788
 20
16.887582
 30
0.0
 10
35.064788
 20
16.776161
 30
0.0
 10
35.483606
 20
16.776161
 30
0.0
 10
35.902423
 20
16.776161
 30
0.0
 10
36.321240
 20
16.776161
 30
0.0
 10
36.740057
 20
16.776161
 30
0.0
 10
36.740057
 20
16.887582
 30
0.0
 10
36.740057
 20
16.999002
 30
0.0
 10
36.740057
 20
17.110423
 30
0.0
 10
36.740057
 20
17.221844
 30
0.0
 10
36.778650
 20
17.652810
 30
0.0
 10
36.894579
 20
18.029616
 30
0.0
 10
37.087775
 20
18.352261
 30
0.0
 10
37.358262
 20
18.620744
 30
0.0
 10
37.660531
 20
18.815724
 30
0.0
 10
38.008921
 20
18.954996
 30
0.0
 10
38.403434
 20
19.038561
 30
0.0
 10
38.844060
 20
19.066417
 30
0.0
 10
38.844060
 20
19.066417
 30
0.0
 10
38.844060
 20
19.066417
 30
0.0
 10
38.844060
 20
19.066417
 30
0.0
 10
38.844060
 20
19.066417
 30
0.0
 10
40.008267
 20
19.066417
 30
0.0
 10
41.172483
 20
19.066417
 30
0.0
 10
42.336699
 20
19.066417
 30
0.0
 10
43.500905
 20
19.066417
 30
0.0
 10
43.500905
 20
20.103212
 30
0.0
 10
43.500905
 20
21.140008
 30
0.0
 10
43.500905
 20
22.176803
 30
0.0
 10
43.500905
 20
23.213598
 30
0.0
 10
42.336699
 20
23.213598
 30
0.0
 10
41.172483
 20
23.213598
 30
0.0
 10
40.008267
 20
23.213598
 30
0.0
 10
38.844060
 20
23.213598
 30
0.0
 10
37.924161
 20
23.099860
 30
0.0
 10
37.128907
 20
22.758647
 30
0.0
 10
36.458306
 20
22.189957
 30
0.0
 10
35.912349
 20
21.393790
 30
0.0
  0
LWPOLYLINE
  5
104
100
AcDbEntity
  8
Layer_1
 62
7
100
AcDbPolyline
 90
4
 70
1
 10
29.191466
 20
11.613863
 30
0.0
 10
29.191466
 20
15.723907
 30
0.0
 10
43.501040
 20
15.723907
 30
0.0
 10
43.501040
 20
11.613863
 30
0.0
  0
LWPOLYLINE
  5
105
100
AcDbEntity
  8
Layer_1
 62
7
100
AcDbPolyline
 90
4
 70
1
 10
43.501040
 20
-3.559221
 30
0.0
 10
43.501040
 20
0.550822
 30
0.0
 10
29.201438
 20
0.550822
 30
0.0
 10
29.201438
 20
-3.559221
 30
0.0
  0
LWPOLYLINE
  5
106
100
AcDbEntity
  8
Layer_1
 62
7
100
AcDbPolyline
 90
72
 70
1
 10
39.731694
 20
8.028130
 30
0.0
 10
40.716411
 20
7.898144
 30
0.0
 10
41.556540
 20
7.508185
 30
0.0
 10
42.252074
 20
6.858254
 30
0.0
 10
42.803011
 20
5.948349
 30
0.0
 10
43.108403
 20
5.133614
 30
0.0
 10
43.326531
 20
4.212104
 30
0.0
 10
43.457413
 20
3.183819
 30
0.0
 10
43.501031
 20
2.048759
 30
0.0
 10
43.501031
 20
1.934248
 30
0.0
 10
43.501031
 20
1.819736
 30
0.0
 10
43.501031
 20
1.705224
 30
0.0
 10
43.501031
 20
1.590712
 30
0.0
 10
43.082214
 20
1.590712
 30
0.0
 10
42.663397
 20
1.590712
 30
0.0
 10
42.244579
 20
1.590712
 30
0.0
 10
41.825762
 20
1.590712
 30
0.0
 10
41.825762
 20
1.705224
 30
0.0
 10
41.825762
 20
1.819736
 30
0.0
 10
41.825762
 20
1.934248
 30
0.0
 10
41.825762
 20
2.048759
 30
0.0
 10
41.787170
 20
2.479725
 30
0.0
 10
41.671240
 20
2.856532
 30
0.0
 10
41.478045
 20
3.179176
 30
0.0
 10
41.207557
 20
3.447660
 30
0.0
 10
40.905908
 20
3.642639
 30
0.0
 10
40.559384
 20
3.781911
 30
0.0
 10
40.167995
 20
3.865476
 30
0.0
 10
39.731730
 20
3.893332
 30
0.0
 10
39.731730
 20
3.890212
 30
0.0
 10
39.731730
 20
3.887092
 30
0.0
 10
39.731730
 20
3.883972
 30
0.0
 10
39.731730
 20
3.880853
 30
0.0
 10
38.041500
 20
3.880853
 30
0.0
 10
36.351279
 20
3.880853
 30
0.0
 10
34.661049
 20
3.880853
 30
0.0
 10
32.970828
 20
3.880853
 30
0.0
 10
32.970828
 20
3.883972
 30
0.0
 10
32.970828
 20
3.887092
 30
0.0
 10
32.970828
 20
3.890212
 30
0.0
 10
32.970828
 20
3.893332
 30
0.0
 10
32.534555
 20
3.865476
 30
0.0
 10
32.143165
 20
3.781911
 30
0.0
 10
31.796641
 20
3.642639
 30
0.0
 10
31.495001
 20
3.447660
 30
0.0
 10
31.224514
 20
3.179176
 30
0.0
 10
31.031309
 20
2.856532
 30
0.0
 10
30.915380
 20
2.479725
 30
0.0
 10
30.876787
 20
2.048759
 30
0.0
 10
30.876787
 20
1.934248
 30
0.0
 10
30.876787
 20
1.819736
 30
0.0
 10
30.876787
 20
1.705224
 30
0.0
 10
30.876787
 20
1.590712
 30
0.0
 10
30.457970
 20
1.590712
 30
0.0
 10
30.039153
 20
1.590712
 30
0.0
 10
29.620336
 20
1.590712
 30
0.0
 10
29.201518
 20
1.590712
 30
0.0
 10
29.201518
 20
1.705224
 30
0.0
 10
29.201518
 20
1.819736
 30
0.0
 10
29.201518
 20
1.934248
 30
0.0
 10
29.201518
 20
2.048759
 30
0.0
 10
29.245765
 20
3.179176
 30
0.0
 10
29.378514
 20
4.205913
 30
0.0
 10
29.599765
 20
5.128971
 30
0.0
 10
29.909518
 20
5.948349
 30
0.0
 10
30.459837
 20
6.858254
 30
0.0
 10
31.153504
 20
7.508185
 30
0.0
 10
31.990519
 20
7.898144
 30
0.0
 10
32.970873
 20
8.028130
 30
0.0
 10
34.661094
 20
8.028130
 30
0.0
 10
36.351324
 20
8.028130
 30
0.0
 10
38.041545
 20
8.028130
 30
0.0
  0
LWPOLYLINE
  5
107
100
AcDbEntity
  8
Layer_1
 62
7
100
AcDbPolyline
 90
4
 70
1
 10
29.201438
 20
-16.516344
 30
0.0
 10
43.501040
 20
-21.827214
 30
0.0
 10
43.501040
 20
-17.717171
 30
0.0
 10
29.201438
 20
-12.406301
 30
0.0
  0
LWPOLYLINE
  5
108
100
AcDbEntity
  8
Layer_1
 62
7
100
AcDbPolyline
 90
8
 70
1
 10
36.211638
 20
-13.966136
 30
0.0
 10
39.263012
 20
-12.827209
 30
0.0
 10
39.263012
 20
-15.105064
 30
0.0
 10
40.938281
 20
-15.724047
 30
0.0
 10
40.938281
 20
-12.208226
 30
0.0
 10
43.501040
 20
-11.254993
 30
0.0
 10
43.501040
 20
-7.144950
 30
0.0
 10
30.677273
 20
-11.911116
 30
0.0
  0
LWPOLYLINE
  5
109
100
AcDbEntity
  8
Layer_1
 62
7
100
AcDbPolyline
 90
7
 70
1
 10
29.201438
 20
-25.326288
 30
0.0
 10
29.201438
 20
-30.476221
 30
0.0
 10
36.630455
 20
-33.274023
 30
0.0
 10
42.104983
 20
-31.218998
 30
0.0
 10
37.388311
 20
-29.436330
 30
0.0
 10
43.501040
 20
-29.436330
 30
0.0
 10
43.501040
 20
-25.326288
 30
0.0
  0
LWPOLYLINE
  5
10a
100
AcDbEntity
  8
Layer_1
 62
7
100
AcDbPolyline
 90
9
 70
1
 10
29.201438
 20
-42.199753
 30
0.0
 10
43.501040
 20
-42.199753
 30
0.0
 10
43.501040
 20
-38.089703
 30
0.0
 10
37.388311
 20
-38.089703
 30
0.0
 10
43.491069
 20
-35.799468
 30
0.0
 10
43.501031
 20
-35.787100
 30
0.0
 10
43.491069
 20
-31.677060
 30
0.0
 10
29.201438
 20
-37.049822
 30
0.0
 10
29.201438
 20
-37.049822
 30
0.0
  0
LWPOLYLINE
  5
10b
100
AcDbEntity
  8
Layer_1
 62
7
100
AcDbPolyline
 90
20
 70
1
 10
-9.532377
 20
-3.818157
 30
0.0
 10
-9.504474
 20
-3.884040
 30
0.0
 10
-5.047199
 20
-5.480536
 30
0.0
 10
2.908891
 20
-2.810550
 30
0.0
 10
14.029459
 20
0.816306
 30
0.0
 10
18.964492
 20
2.417257
 30
0.0
 10
20.513644
 20
2.912134
 30
0.0
 10
20.513644
 20
-0.331302
 30
0.0
 10
20.513644
 20
-3.574419
 30
0.0
 10
20.934373
 20
-3.574419
 30
0.0
 10
21.355129
 20
-3.574419
 30
0.0
 10
21.355129
 20
3.617050
 30
0.0
 10
21.355129
 20
10.808860
 30
0.0
 10
20.934373
 20
10.808860
 30
0.0
 10
20.513644
 20
10.808860
 30
0.0
 10
20.513644
 20
8.751454
 30
0.0
 10
20.406797
 20
6.652869
 30
0.0
 10
3.261267
 20
0.637162
 30
0.0
 10
-9.470926
 20
-3.770027
 30
0.0
 10
-9.532683
 20
-3.818116
 30
0.0
  0
LWPOLYLINE
  5
10c
100
AcDbEntity
  8
Layer_1
 62
7
100
AcDbPolyline
 90
67
 70
1
 10
-9.339124
 20
-39.724682
 30
0.0
 10
-9.204635
 20
-42.653080
 30
0.0
 10
1.899521
 20
-43.050151
 30
0.0
 10
6.109457
 20
-43.043466
 30
0.0
 10
9.610513
 20
-43.027756
 30
0.0
 10
12.075329
 20
-43.004580
 30
0.0
 10
13.176549
 20
-42.976279
 30
0.0
 10
16.742342
 20
-42.031029
 30
0.0
 10
19.471372
 20
-40.009429
 30
0.0
 10
21.306269
 20
-36.975003
 30
0.0
 10
22.189649
 20
-32.991270
 30
0.0
 10
22.187854
 20
-32.991270
 30
0.0
 10
22.186059
 20
-32.991270
 30
0.0
 10
22.184264
 20
-32.991270
 30
0.0
 10
22.182469
 20
-32.991270
 30
0.0
 10
22.228511
 20
-31.967468
 30
0.0
 10
22.222228
 20
-30.736233
 30
0.0
 10
22.169096
 20
-29.522313
 30
0.0
 10
22.074734
 20
-28.550455
 30
0.0
 10
21.567719
 20
-26.265725
 30
0.0
 10
20.761856
 20
-24.294109
 30
0.0
 10
19.660932
 20
-22.642761
 30
0.0
 10
18.268734
 20
-21.318833
 30
0.0
 10
17.598896
 20
-20.876512
 30
0.0
 10
16.809816
 20
-20.453467
 30
0.0
 10
15.989880
 20
-20.092725
 30
0.0
 10
15.227474
 20
-19.837312
 30
0.0
 10
14.150567
 20
-19.587443
 30
0.0
 10
12.479095
 20
-19.461670
 30
0.0
 10
8.897524
 20
-19.417324
 30
0.0
 10
2.090293
 20
-19.411753
 30
0.0
 10
-8.790456
 20
-19.411753
 30
0.0
 10
-9.060883
 20
-19.648894
 30
0.0
 10
-9.331305
 20
-19.886383
 30
0.0
 10
-9.331305
 20
-22.636674
 30
0.0
 10
-8.912588
 20
-25.899683
 30
0.0
 10
1.249472
 20
-25.991684
 30
0.0
 10
5.484170
 20
-25.997143
 30
0.0
 10
8.751716
 20
-26.012742
 30
0.0
 10
10.930642
 20
-26.037478
 30
0.0
 10
11.899509
 20
-26.070302
 30
0.0
 10
12.933650
 20
-26.244245
 30
0.0
 10
13.797985
 20
-26.520377
 30
0.0
 10
14.526098
 20
-26.912856
 30
0.0
 10
15.151573
 20
-27.435842
 30
0.0
 10
15.521575
 20
-27.856893
 30
0.0
 10
15.811305
 20
-28.300884
 30
0.0
 10
16.042788
 20
-28.807905
 30
0.0
 10
16.238038
 20
-29.418079
 30
0.0
 10
16.370374
 20
-30.222683
 30
0.0
 10
16.414083
 20
-31.229962
 30
0.0
 10
16.369746
 20
-32.240215
 30
0.0
 10
16.237967
 20
-33.053789
 30
0.0
 10
15.794513
 20
-34.163909
 30
0.0
 10
15.119802
 20
-35.049571
 30
0.0
 10
14.203618
 20
-35.720660
 30
0.0
 10
13.035732
 20
-36.187079
 30
0.0
 10
12.886433
 20
-36.229307
 30
0.0
 10
12.737143
 20
-36.271536
 30
0.0
 10
12.587845
 20
-36.313764
 30
0.0
 10
12.438555
 20
-36.355993
 30
0.0
 10
9.789510
 20
-36.366021
 30
0.0
 10
7.140466
 20
-36.376049
 30
0.0
 10
4.491421
 20
-36.386077
 30
0.0
 10
1.842377
 20
-36.396104
 30
0.0
 10
-9.208852
 20
-36.797298
 30
0.0
 10
-9.342673
 20
-39.725707
 30
0.0
  0
LWPOLYLINE
  5
10d
100
AcDbEntity
  8
Layer_1
 62
7
100
AcDbPolyline
 90
128
 70
1
 10
-9.323866
 20
14.083102
 30
0.0
 10
-9.258833
 20
14.018066
 30
0.0
 10
-9.193801
 20
13.953029
 30
0.0
 10
-9.128768
 20
13.888004
 30
0.0
 10
-9.063735
 20
13.822968
 30
0.0
 10
-8.998703
 20
13.758021
 30
0.0
 10
-8.933670
 20
13.693073
 30
0.0
 10
-8.868637
 20
13.628126
 30
0.0
 10
-8.803605
 20
13.563179
 30
0.0
 10
-5.118820
 20
13.563179
 30
0.0
 10
-1.434045
 20
13.563179
 30
0.0
 10
2.250738
 20
13.563179
 30
0.0
 10
5.935522
 20
13.563179
 30
0.0
 10
15.102013
 20
13.565519
 30
0.0
 10
19.544150
 20
13.606210
 30
0.0
 10
21.007385
 20
13.735525
 30
0.0
 10
21.237180
 20
14.003784
 30
0.0
 10
21.295607
 20
14.213359
 30
0.0
 10
21.327917
 20
14.675601
 30
0.0
 10
21.339225
 20
15.539701
 30
0.0
 10
21.334738
 20
16.954856
 30
0.0
 10
21.330250
 20
17.640198
 30
0.0
 10
21.325763
 20
18.325540
 30
0.0
 10
21.321275
 20
19.010882
 30
0.0
 10
21.316788
 20
19.696223
 30
0.0
 10
21.254322
 20
19.751990
 30
0.0
 10
21.191856
 20
19.807756
 30
0.0
 10
21.129391
 20
19.863522
 30
0.0
 10
21.066925
 20
19.919288
 30
0.0
 10
21.004459
 20
19.975144
 30
0.0
 10
20.941993
 20
20.030999
 30
0.0
 10
20.879527
 20
20.086854
 30
0.0
 10
20.817061
 20
20.142709
 30
0.0
 10
18.205416
 20
20.142709
 30
0.0
 10
15.593770
 20
20.142709
 30
0.0
 10
12.982124
 20
20.142709
 30
0.0
 10
10.370478
 20
20.142709
 30
0.0
 10
5.716685
 20
20.147389
 30
0.0
 10
2.470670
 20
20.161829
 30
0.0
 10
0.575191
 20
20.186420
 30
0.0
 10
-0.026985
 20
20.221607
 30
0.0
 10
0.397577
 20
20.599857
 30
0.0
 10
1.517088
 20
21.571303
 30
0.0
 10
3.161447
 20
22.988828
 30
0.0
 10
5.160569
 20
24.705320
 30
0.0
 10
7.512685
 20
26.730232
 30
0.0
 10
9.125443
 20
28.140507
 30
0.0
 10
10.065527
 20
28.995302
 30
0.0
 10
10.399638
 20
29.353773
 30
0.0
 10
10.441551
 20
29.477318
 30
0.0
 10
10.458963
 20
29.588315
 30
0.0
 10
10.451783
 20
29.694009
 30
0.0
 10
10.421178
 20
29.801642
 30
0.0
 10
10.033639
 20
30.191812
 30
0.0
 10
8.984069
 20
31.134769
 30
0.0
 10
7.332970
 20
32.577134
 30
0.0
 10
5.140869
 20
34.465527
 30
0.0
 10
3.840215
 20
35.580367
 30
0.0
 10
2.539553
 20
36.695206
 30
0.0
 10
1.238900
 20
37.810046
 30
0.0
 10
-0.061763
 20
38.924885
 30
0.0
 10
2.543529
 20
38.934468
 30
0.0
 10
5.148829
 20
38.944050
 30
0.0
 10
7.754121
 20
38.953632
 30
0.0
 10
10.359412
 20
38.963214
 30
0.0
 10
16.859591
 20
38.989432
 30
0.0
 10
20.006424
 20
39.043928
 30
0.0
 10
21.049738
 20
39.185043
 30
0.0
 10
21.239379
 20
39.471124
 30
0.0
 10
21.297447
 20
39.698501
 30
0.0
 10
21.332539
 20
40.168034
 30
0.0
 10
21.349771
 20
41.011608
 30
0.0
 10
21.354259
 20
42.361098
 30
0.0
 10
21.354259
 20
43.023187
 30
0.0
 10
21.354259
 20
43.685276
 30
0.0
 10
21.354259
 20
44.347363
 30
0.0
 10
21.354259
 20
45.009452
 30
0.0
 10
21.288831
 20
45.080917
 30
0.0
 10
21.223403
 20
45.152394
 30
0.0
 10
21.157976
 20
45.223871
 30
0.0
 10
21.092548
 20
45.295336
 30
0.0
 10
21.027121
 20
45.366723
 30
0.0
 10
20.961693
 20
45.438111
 30
0.0
 10
20.896266
 20
45.509498
 30
0.0
 10
20.830838
 20
45.580885
 30
0.0
 10
17.156690
 20
45.585899
 30
0.0
 10
13.482551
 20
45.590913
 30
0.0
 10
9.808403
 20
45.595927
 30
0.0
 10
6.134264
 20
45.600941
 30
0.0
 10
-2.947504
 20
45.610078
 30
0.0
 10
-7.407803
 20
45.577119
 30
0.0
 10
-8.932256
 20
45.459653
 30
0.0
 10
-9.206482
 20
45.215239
 30
0.0
 10
-9.271012
 20
45.005302
 30
0.0
 10
-9.305350
 20
44.471244
 30
0.0
 10
-9.315653
 20
43.381463
 30
0.0
 10
-9.308114
 20
41.504357
 30
0.0
 10
-9.302819
 20
40.623486
 30
0.0
 10
-9.297524
 20
39.742615
 30
0.0
 10
-9.292228
 20
38.861744
 30
0.0
 10
-9.286933
 20
37.980873
 30
0.0
 10
-9.239070
 20
37.929563
 30
0.0
 10
-9.191206
 20
37.878254
 30
0.0
 10
-9.143343
 20
37.826945
 30
0.0
 10
-9.095479
 20
37.775635
 30
0.0
 10
-8.654490
 20
37.388042
 30
0.0
 10
-7.595163
 20
36.484458
 30
0.0
 10
-6.076258
 20
35.199650
 30
0.0
 10
-4.256540
 20
33.668381
 30
0.0
 10
-1.965112
 20
31.736724
 30
0.0
 10
-0.541367
 20
30.513314
 30
0.0
 10
0.186719
 20
29.847148
 30
0.0
 10
0.391186
 20
29.587222
 30
0.0
 10
0.320464
 20
29.407329
 30
0.0
 10
-0.255263
 20
28.863736
 30
0.0
 10
-1.881080
 20
27.478933
 30
0.0
 10
-5.102108
 20
24.775407
 30
0.0
 10
-6.664505
 20
23.455703
 30
0.0
 10
-7.960545
 20
22.342805
 30
0.0
 10
-8.855382
 20
21.553837
 30
0.0
 10
-9.214176
 20
21.205920
 30
0.0
 10
-9.270377
 20
20.960737
 30
0.0
 10
-9.304159
 20
20.379655
 30
0.0
 10
-9.320655
 20
19.294629
 30
0.0
 10
-9.325053
 20
17.537617
 30
0.0
 10
-9.324949
 20
16.673976
 30
0.0
 10
-9.324846
 20
15.810337
 30
0.0
 10
-9.324742
 20
14.946697
 30
0.0
  0
LWPOLYLINE
  5
10e
100
AcDbEntity
  8
Layer_1
 62
7
100
AcDbPolyline
 90
19
 70
1
 10
-3.813320
 20
-5.914677
 30
0.0
 10
3.571980
 20
-8.513615
 30
0.0
 10
18.543826
 20
-13.804866
 30
0.0
 10
20.513689
 20
-14.541693
 30
0.0
 10
20.513689
 20
-16.441220
 30
0.0
 10
20.513689
 20
-18.340420
 30
0.0
 10
20.934472
 20
-18.340420
 30
0.0
 10
21.355524
 20
-18.340420
 30
0.0
 10
21.355524
 20
-13.635344
 30
0.0
 10
21.355524
 20
-8.929919
 30
0.0
 10
20.934813
 20
-8.929919
 30
0.0
 10
20.514030
 20
-8.929919
 30
0.0
 10
20.514030
 20
-11.080323
 30
0.0
 10
20.408637
 20
-13.190564
 30
0.0
 10
18.782982
 20
-12.674760
 30
0.0
 10
13.953674
 20
-11.051483
 30
0.0
 10
5.116618
 20
-8.076350
 30
0.0
 10
-1.584044
 20
-5.814395
 30
0.0
 10
-2.526075
 20
-5.489403
 30
0.0
  0
LWPOLYLINE
  5
10f
100
AcDbEntity
  8
Layer_1
 62
7
100
AcDbPolyline
 90
6
 70
1
 10
9.630941
 20
-1.475909
 30
0.0
 10
9.649519
 20
-5.092753
 30
0.0
 10
9.649519
 20
-8.730510
 30
0.0
 10
10.644413
 20
-9.059291
 30
0.0
 10
10.644413
 20
-5.096861
 30
0.0
 10
10.644413
 20
-1.140965
 30
0.0
  0
LWPOLYLINE
  5
110
100
AcDbEntity
  8
Layer_1
 62
7
100
AcDbPolyline
 90
7
 70
1
 10
-15.520634
 20
44.713585
 30
0.0
 10
-15.520634
 20
42.620090
 30
0.0
 10
-22.719099
 20
39.395437
 30
0.0
 10
-15.520634
 20
36.137017
 30
0.0
 10
-15.520634
 20
34.026641
 30
0.0
 10
-25.118589
 20
38.382455
 30
0.0
 10
-25.118589
 20
40.391535
 30
0.0
  0
LWPOLYLINE
  5
111
100
AcDbEntity
  8
Layer_1
 62
7
100
AcDbPolyline
 90
4
 70
1
 10
-18.572157
 20
40.509715
 30
0.0
 10
-17.515859
 20
40.999323
 30
0.0
 10
-17.515859
 20
37.774667
 30
0.0
 10
-18.572157
 20
38.247393
 30
0.0
  0
LWPOLYLINE
  5
112
100
AcDbEntity
  8
Layer_1
 62
7
100
AcDbPolyline
 90
20
 70
1
 10
-23.279850
 20
30.194200
 30
0.0
 10
-23.438783
 20
29.996880
 30
0.0
 10
-23.576526
 20
29.793229
 30
0.0
 10
-23.693077
 20
29.583248
 30
0.0
 10
-23.788436
 20
29.366935
 30
0.0
 10
-23.864238
 20
29.143235
 30
0.0
 10
-23.922109
 20
28.911093
 30
0.0
 10
-23.962048
 20
28.670510
 30
0.0
 10
-23.984054
 20
28.421484
 30
0.0
 10
-24.306803
 20
28.421484
 30
0.0
 10
-24.629561
 20
28.421484
 30
0.0
 10
-24.952318
 20
28.421484
 30
0.0
 10
-25.275076
 20
28.421484
 30
0.0
 10
-25.186241
 20
29.328946
 30
0.0
 10
-24.984925
 20
30.160435
 30
0.0
 10
-24.671133
 20
30.915949
 30
0.0
 10
-24.244865
 20
31.595490
 30
0.0
 10
-24.003612
 20
31.245168
 30
0.0
 10
-23.762360
 20
30.894845
 30
0.0
 10
-23.521106
 20
30.544523
 30
0.0
  0
LWPOLYLINE
  5
113
100
AcDbEntity
  8
Layer_1
 62
7
100
AcDbPolyline
 90
24
 70
1
 10
-16.746459
 20
28.421484
 30
0.0
 10
-16.774174
 20
28.607198
 30
0.0
 10
-16.818187
 20
28.911093
 30
0.0
 10
-16.878499
 20
29.143235
 30
0.0
 10
-16.955109
 20
29.366935
 30
0.0
 10
-17.049653
 20
29.589579
 30
0.0
 10
-17.163759
 20
29.801671
 30
0.0
 10
-17.297426
 20
30.003211
 30
0.0
 10
-17.450654
 20
30.194200
 30
0.0
 10
-17.212661
 20
30.544523
 30
0.0
 10
-16.974669
 20
30.894845
 30
0.0
 10
-16.736676
 20
31.245168
 30
0.0
 10
-16.498683
 20
31.595490
 30
0.0
 10
-16.349830
 20
31.318575
 30
0.0
 10
-16.071600
 20
30.915950
 30
0.0
 10
-15.899626
 20
30.547689
 30
0.0
 10
-15.755363
 20
30.160436
 30
0.0
 10
-15.638812
 20
29.754189
 30
0.0
 10
-15.549969
 20
29.328947
 30
0.0
 10
-15.488841
 20
28.884712
 30
0.0
 10
-15.455427
 20
28.421484
 30
0.0
 10
-15.778184
 20
28.421484
 30
0.0
 10
-16.100941
 20
28.421484
 30
0.0
 10
-16.423698
 20
28.421484
 30
0.0
  0
LWPOLYLINE
  5
114
100
AcDbEntity
  8
Layer_1
 62
7
100
AcDbPolyline
 90
73
 70
1
 10
-20.371772
 20
22.951390
 30
0.0
 10
-20.934967
 20
22.973552
 30
0.0
 10
-21.463931
 20
23.040026
 30
0.0
 10
-21.958663
 20
23.150823
 30
0.0
 10
-22.419162
 20
23.305936
 30
0.0
 10
-22.845431
 20
23.508532
 30
0.0
 10
-23.237466
 20
23.744895
 30
0.0
 10
-23.595271
 20
24.015022
 30
0.0
 10
-23.918843
 20
24.318917
 30
0.0
 10
-24.208184
 20
24.653411
 30
0.0
 10
-24.463292
 20
25.015341
 30
0.0
 10
-24.684169
 20
25.404705
 30
0.0
 10
-24.870814
 20
25.821506
 30
0.0
 10
-25.023227
 20
26.269960
 30
0.0
 10
-25.141409
 20
26.737408
 30
0.0
 10
-25.225360
 20
27.223849
 30
0.0
 10
-25.275082
 20
27.729284
 30
0.0
 10
-24.949065
 20
27.729284
 30
0.0
 10
-24.623048
 20
27.729284
 30
0.0
 10
-24.297030
 20
27.729284
 30
0.0
 10
-23.971014
 20
27.729284
 30
0.0
 10
-23.927817
 20
27.454934
 30
0.0
 10
-23.863431
 20
27.189027
 30
0.0
 10
-23.777854
 20
26.931561
 30
0.0
 10
-23.671083
 20
26.682538
 30
0.0
 10
-23.544198
 20
26.446518
 30
0.0
 10
-23.394564
 20
26.223718
 30
0.0
 10
-23.220180
 20
26.015070
 30
0.0
 10
-23.019049
 20
25.821506
 30
0.0
 10
-22.789206
 20
25.645289
 30
0.0
 10
-22.530022
 20
25.488065
 30
0.0
 10
-22.241497
 20
25.349835
 30
0.0
 10
-21.923630
 20
25.230598
 30
0.0
 10
-21.582126
 20
25.140904
 30
0.0
 10
-21.209650
 20
25.074430
 30
0.0
 10
-20.806203
 20
25.031166
 30
0.0
 10
-20.371785
 20
25.011121
 30
0.0
 10
-19.931662
 20
25.031166
 30
0.0
 10
-19.524140
 20
25.074430
 30
0.0
 10
-19.149220
 20
25.140904
 30
0.0
 10
-18.806901
 20
25.230598
 30
0.0
 10
-18.492529
 20
25.345521
 30
0.0
 10
-18.205788
 20
25.484230
 30
0.0
 10
-17.945750
 20
25.643850
 30
0.0
 10
-17.711482
 20
25.821506
 30
0.0
 10
-17.502831
 20
26.014605
 30
0.0
 10
-17.320261
 20
26.222476
 30
0.0
 10
-17.163773
 20
26.445121
 30
0.0
 10
-17.033366
 20
26.682538
 30
0.0
 10
-16.927411
 20
26.937893
 30
0.0
 10
-16.844275
 20
27.197469
 30
0.0
 10
-16.783964
 20
27.461266
 30
0.0
 10
-16.746475
 20
27.729284
 30
0.0
 10
-16.426978
 20
27.729284
 30
0.0
 10
-16.107480
 20
27.729284
 30
0.0
 10
-15.787983
 20
27.729284
 30
0.0
 10
-15.468485
 20
27.729284
 30
0.0
 10
-15.512499
 20
27.223849
 30
0.0
 10
-15.592376
 20
26.737408
 30
0.0
 10
-15.708112
 20
26.269960
 30
0.0
 10
-15.859711
 20
25.821506
 30
0.0
 10
-16.046355
 20
25.404705
 30
0.0
 10
-16.267232
 20
25.015341
 30
0.0
 10
-16.522341
 20
24.653411
 30
0.0
 10
-16.811682
 20
24.318917
 30
0.0
 10
-17.135254
 20
24.015022
 30
0.0
 10
-17.493058
 20
23.744895
 30
0.0
 10
-17.885094
 20
23.508532
 30
0.0
 10
-18.311362
 20
23.305936
 30
0.0
 10
-18.775385
 20
23.145453
 30
0.0
 10
-19.274434
 20
23.035258
 30
0.0
 10
-19.807054
 20
22.971770
 30
0.0
 10
-20.371791
 20
22.951403
 30
0.0
  0
LWPOLYLINE
  5
115
100
AcDbEntity
  8
Layer_1
 62
7
100
AcDbPolyline
 90
4
 70
1
 10
-15.520634
 20
20.064397
 30
0.0
 10
-15.520634
 20
18.004672
 30
0.0
 10
-25.131628
 20
18.004672
 30
0.0
 10
-25.131628
 20
20.064397
 30
0.0
  0
LWPOLYLINE
  5
116
100
AcDbEntity
  8
Layer_1
 62
7
100
AcDbPolyline
 90
8
 70
1
 10
-25.131629
 20
15.539750
 30
0.0
 10
-24.062291
 20
15.539750
 30
0.0
 10
-24.062291
 20
11.825489
 30
0.0
 10
-15.520634
 20
11.825489
 30
0.0
 10
-15.520634
 20
9.782645
 30
0.0
 10
-24.062289
 20
9.782645
 30
0.0
 10
-24.062289
 20
6.068386
 30
0.0
 10
-25.131628
 20
6.068386
 30
0.0
  0
LWPOLYLINE
  5
117
100
AcDbEntity
  8
Layer_1
 62
7
100
AcDbPolyline
 90
73
 70
1
 10
-20.371772
 20
-6.458807
 30
0.0
 10
-20.934967
 20
-6.436645
 30
0.0
 10
-21.463931
 20
-6.370172
 30
0.0
 10
-21.958663
 20
-6.259375
 30
0.0
 10
-22.419162
 20
-6.104262
 30
0.0
 10
-22.851136
 20
-5.901666
 30
0.0
 10
-23.247247
 20
-5.665303
 30
0.0
 10
-23.607497
 20
-5.395175
 30
0.0
 10
-23.931884
 20
-5.091280
 30
0.0
 10
-24.226115
 20
-4.748344
 30
0.0
 10
-24.482854
 20
-4.377974
 30
0.0
 10
-24.702101
 20
-3.980168
 30
0.0
 10
-24.883855
 20
-3.554928
 30
0.0
 10
-25.035453
 20
-3.098032
 30
0.0
 10
-25.151189
 20
-2.622142
 30
0.0
 10
-25.231066
 20
-2.127259
 30
0.0
 10
-25.275079
 20
-1.613383
 30
0.0
 10
-24.949062
 20
-1.613383
 30
0.0
 10
-24.623045
 20
-1.613383
 30
0.0
 10
-24.297028
 20
-1.613383
 30
0.0
 10
-23.971011
 20
-1.613383
 30
0.0
 10
-23.934330
 20
-1.896172
 30
0.0
 10
-23.876460
 20
-2.170521
 30
0.0
 10
-23.797399
 20
-2.436427
 30
0.0
 10
-23.697149
 20
-2.693893
 30
0.0
 10
-23.573262
 20
-2.938698
 30
0.0
 10
-23.423293
 20
-3.166618
 30
0.0
 10
-23.247244
 20
-3.377657
 30
0.0
 10
-23.045113
 20
-3.571812
 30
0.0
 10
-22.815271
 20
-3.748027
 30
0.0
 10
-22.556087
 20
-3.905250
 30
0.0
 10
-22.267562
 20
-4.043479
 30
0.0
 10
-21.949694
 20
-4.162716
 30
0.0
 10
-21.601671
 20
-4.259797
 30
0.0
 10
-21.222675
 20
-4.331552
 30
0.0
 10
-20.812708
 20
-4.377981
 30
0.0
 10
-20.371769
 20
-4.399084
 30
0.0
 10
-19.925126
 20
-4.377981
 30
0.0
 10
-19.511083
 20
-4.331552
 30
0.0
 10
-19.129643
 20
-4.259797
 30
0.0
 10
-18.780805
 20
-4.162716
 30
0.0
 10
-18.467828
 20
-4.043479
 30
0.0
 10
-18.180932
 20
-3.905250
 30
0.0
 10
-17.920118
 20
-3.748027
 30
0.0
 10
-17.685386
 20
-3.571812
 30
0.0
 10
-17.476734
 20
-3.370270
 30
0.0
 10
-17.294164
 20
-3.153957
 30
0.0
 10
-17.137675
 20
-2.922872
 30
0.0
 10
-17.007269
 20
-2.677012
 30
0.0
 10
-16.907833
 20
-2.420600
 30
0.0
 10
-16.831223
 20
-2.157859
 30
0.0
 10
-16.777427
 20
-1.888786
 30
0.0
 10
-16.746454
 20
-1.613383
 30
0.0
 10
-16.423697
 20
-1.613383
 30
0.0
 10
-16.100940
 20
-1.613383
 30
0.0
 10
-15.778183
 20
-1.613383
 30
0.0
 10
-15.455426
 20
-1.613383
 30
0.0
 10
-15.498622
 20
-2.119872
 30
0.0
 10
-15.576050
 20
-2.609479
 30
0.0
 10
-15.687710
 20
-3.082203
 30
0.0
 10
-15.833602
 20
-3.538044
 30
0.0
 10
-16.020246
 20
-3.970672
 30
0.0
 10
-16.241123
 20
-4.373754
 30
0.0
 10
-16.496232
 20
-4.747289
 30
0.0
 10
-16.785573
 20
-5.091280
 30
0.0
 10
-17.115665
 20
-5.395175
 30
0.0
 10
-17.479990
 20
-5.665303
 30
0.0
 10
-17.878547
 20
-5.901666
 30
0.0
 10
-18.311335
 20
-6.104262
 30
0.0
 10
-18.775898
 20
-6.263446
 30
0.0
 10
-19.274887
 20
-6.373786
 30
0.0
 10
-19.807207
 20
-6.437998
 30
0.0
 10
-20.371764
 20
-6.458800
 30
0.0
  0
LWPOLYLINE
  5
118
100
AcDbEntity
  8
Layer_1
 62
7
100
AcDbPolyline
 90
72
 70
1
 10
-25.275076
 20
-0.938063
 30
0.0
 10
-25.236770
 20
-0.432628
 30
0.0
 10
-25.160968
 20
0.053813
 30
0.0
 10
-25.047678
 20
0.521261
 30
0.0
 10
-24.896894
 20
0.969716
 30
0.0
 10
-24.709434
 20
1.401288
 30
0.0
 10
-24.486112
 20
1.801204
 30
0.0
 10
-24.226928
 20
2.169465
 30
0.0
 10
-23.931882
 20
2.506071
 30
0.0
 10
-23.607495
 20
2.817351
 30
0.0
 10
-23.247245
 20
3.092755
 30
0.0
 10
-22.851134
 20
3.332282
 30
0.0
 10
-22.419161
 20
3.535933
 30
0.0
 10
-21.958123
 20
3.697141
 30
0.0
 10
-21.463452
 20
3.813355
 30
0.0
 10
-20.934787
 20
3.883717
 30
0.0
 10
-20.371771
 20
3.907361
 30
0.0
 10
-19.807761
 20
3.884141
 30
0.0
 10
-19.276353
 20
3.814503
 30
0.0
 10
-18.777546
 20
3.698431
 30
0.0
 10
-18.311342
 20
3.535932
 30
0.0
 10
-17.878553
 20
3.332281
 30
0.0
 10
-17.479996
 20
3.092753
 30
0.0
 10
-17.115671
 20
2.817350
 30
0.0
 10
-16.785579
 20
2.506070
 30
0.0
 10
-16.496238
 20
2.170519
 30
0.0
 10
-16.241129
 20
1.805424
 30
0.0
 10
-16.020252
 20
1.410783
 30
0.0
 10
-15.833608
 20
0.986598
 30
0.0
 10
-15.687715
 20
0.537088
 30
0.0
 10
-15.576054
 20
0.066475
 30
0.0
 10
-15.498627
 20
-0.425243
 30
0.0
 10
-15.455430
 20
-0.938064
 30
0.0
 10
-15.778188
 20
-0.938064
 30
0.0
 10
-16.100945
 20
-0.938064
 30
0.0
 10
-16.423702
 20
-0.938064
 30
0.0
 10
-16.746459
 20
-0.938064
 30
0.0
 10
-16.783140
 20
-0.655274
 30
0.0
 10
-16.841010
 20
-0.380926
 30
0.0
 10
-16.920071
 20
-0.115020
 30
0.0
 10
-17.020321
 20
0.142446
 30
0.0
 10
-17.149913
 20
0.387252
 30
0.0
 10
-17.303956
 20
0.615172
 30
0.0
 10
-17.482451
 20
0.826209
 30
0.0
 10
-17.685397
 20
1.020363
 30
0.0
 10
-17.920129
 20
1.196580
 30
0.0
 10
-18.180943
 20
1.353802
 30
0.0
 10
-18.467838
 20
1.492032
 30
0.0
 10
-18.780816
 20
1.611270
 30
0.0
 10
-19.129654
 20
1.708351
 30
0.0
 10
-19.511094
 20
1.780106
 30
0.0
 10
-19.925136
 20
1.826535
 30
0.0
 10
-20.371780
 20
1.847638
 30
0.0
 10
-20.817609
 20
1.826535
 30
0.0
 10
-21.229206
 20
1.780106
 30
0.0
 10
-21.606572
 20
1.708351
 30
0.0
 10
-21.949705
 20
1.611270
 30
0.0
 10
-22.267572
 20
1.490977
 30
0.0
 10
-22.556098
 20
1.349583
 30
0.0
 10
-22.815282
 20
1.187084
 30
0.0
 10
-23.045124
 20
1.003482
 30
0.0
 10
-23.252960
 20
0.809327
 30
0.0
 10
-23.433085
 20
0.598289
 30
0.0
 10
-23.585498
 20
0.370369
 30
0.0
 10
-23.710199
 20
0.125566
 30
0.0
 10
-23.815340
 20
-0.130846
 30
0.0
 10
-23.896034
 20
-0.393587
 30
0.0
 10
-23.952271
 20
-0.662660
 30
0.0
 10
-23.984061
 20
-0.938064
 30
0.0
 10
-24.306818
 20
-0.938064
 30
0.0
 10
-24.629575
 20
-0.938064
 30
0.0
 10
-24.952333
 20
-0.938064
 30
0.0
  0
LWPOLYLINE
  5
119
100
AcDbEntity
  8
Layer_1
 62
7
100
AcDbPolyline
 90
80
 70
1
 10
-20.580424
 20
-11.608122
 30
0.0
 10
-20.511962
 20
-11.207151
 30
0.0
 10
-20.384816
 20
-10.780857
 30
0.0
 10
-20.195727
 20
-10.358781
 30
0.0
 10
-19.941433
 20
-9.970472
 30
0.0
 10
-19.621936
 20
-9.615928
 30
0.0
 10
-19.237235
 20
-9.328917
 30
0.0
 10
-18.799484
 20
-9.140422
 30
0.0
 10
-18.298305
 20
-9.075676
 30
0.0
 10
-17.691911
 20
-9.138985
 30
0.0
 10
-17.176804
 20
-9.328919
 30
0.0
 10
-16.746461
 20
-9.615930
 30
0.0
 10
-16.394363
 20
-9.970474
 30
0.0
 10
-16.123768
 20
-10.363004
 30
0.0
 10
-15.911856
 20
-10.797740
 30
0.0
 10
-15.761888
 20
-11.232477
 30
0.0
 10
-15.651043
 20
-11.658775
 30
0.0
 10
-15.576057
 20
-12.042862
 30
0.0
 10
-15.533677
 20
-12.384742
 30
0.0
 10
-15.520654
 20
-12.650454
 30
0.0
 10
-15.520638
 20
-12.806819
 30
0.0
 10
-15.520638
 20
-13.786033
 30
0.0
 10
-15.520638
 20
-14.765246
 30
0.0
 10
-16.094423
 20
-14.765246
 30
0.0
 10
-16.668215
 20
-14.765246
 30
0.0
 10
-16.668215
 20
-13.845122
 30
0.0
 10
-16.668215
 20
-12.924999
 30
0.0
 10
-16.779061
 20
-12.127277
 30
0.0
 10
-17.111598
 20
-11.523709
 30
0.0
 10
-17.629965
 20
-11.143842
 30
0.0
 10
-18.298302
 20
-11.017220
 30
0.0
 10
-18.947077
 20
-11.148063
 30
0.0
 10
-19.485005
 20
-11.540593
 30
0.0
 10
-19.846884
 20
-12.186369
 30
0.0
 10
-19.967511
 20
-13.076947
 30
0.0
 10
-19.967511
 20
-13.921097
 30
0.0
 10
-19.967511
 20
-14.765246
 30
0.0
 10
-20.495660
 20
-14.765246
 30
0.0
 10
-21.023809
 20
-14.765246
 30
0.0
 10
-21.023809
 20
-14.360055
 30
0.0
 10
-21.023809
 20
-13.954864
 30
0.0
 10
-21.027040
 20
-13.579217
 30
0.0
 10
-21.036831
 20
-13.195127
 30
0.0
 10
-21.079220
 20
-12.819480
 30
0.0
 10
-21.180283
 20
-12.469157
 30
0.0
 10
-21.356333
 20
-12.165263
 30
0.0
 10
-21.623666
 20
-11.928904
 30
0.0
 10
-22.007087
 20
-11.767233
 30
0.0
 10
-22.523475
 20
-11.709428
 30
0.0
 10
-22.761467
 20
-11.730531
 30
0.0
 10
-23.005980
 20
-11.793841
 30
0.0
 10
-23.253422
 20
-11.921461
 30
0.0
 10
-23.475446
 20
-12.131499
 30
0.0
 10
-23.664536
 20
-12.439615
 30
0.0
 10
-23.814503
 20
-12.857469
 30
0.0
 10
-23.912309
 20
-13.406168
 30
0.0
 10
-23.944906
 20
-14.106813
 30
0.0
 10
-23.944906
 20
-14.436031
 30
0.0
 10
-23.944906
 20
-14.765248
 30
0.0
 10
-24.538259
 20
-14.765248
 30
0.0
 10
-25.131611
 20
-14.765248
 30
0.0
 10
-25.131611
 20
-14.334731
 30
0.0
 10
-25.131611
 20
-13.904215
 30
0.0
 10
-25.095747
 20
-13.123376
 30
0.0
 10
-24.988162
 20
-12.367863
 30
0.0
 10
-24.802331
 20
-11.667218
 30
0.0
 10
-24.531736
 20
-11.050989
 30
0.0
 10
-24.169857
 20
-10.536056
 30
0.0
 10
-23.710172
 20
-10.139307
 30
0.0
 10
-23.164717
 20
-9.887558
 30
0.0
 10
-22.523470
 20
-9.801641
 30
0.0
 10
-22.135509
 20
-9.843847
 30
0.0
 10
-21.780150
 20
-9.970468
 30
0.0
 10
-21.473694
 20
-10.160402
 30
0.0
 10
-21.206358
 20
-10.392543
 30
0.0
 10
-20.978146
 20
-10.666891
 30
0.0
 10
-20.789055
 20
-10.983447
 30
0.0
 10
-20.658649
 20
-11.300005
 30
0.0
 10
-20.580405
 20
-11.608119
 30
0.0
 10
-20.580405
 20
-11.608120
 30
0.0
  0
LWPOLYLINE
  5
11a
100
AcDbEntity
  8
Layer_1
 62
7
100
AcDbPolyline
 90
4
 70
1
 10
-25.131629
 20
-17.483410
 30
0.0
 10
-25.131629
 20
-15.457450
 30
0.0
 10
-15.520634
 20
-15.457450
 30
0.0
 10
-15.520634
 20
-17.483410
 30
0.0
  0
LWPOLYLINE
  5
11b
100
AcDbEntity
  8
Layer_1
 62
7
100
AcDbPolyline
 90
36
 70
1
 10
-20.371772
 20
-30.770339
 30
0.0
 10
-21.463931
 20
-30.681759
 30
0.0
 10
-22.419162
 20
-30.415842
 30
0.0
 10
-23.247247
 20
-29.976888
 30
0.0
 10
-23.931884
 20
-29.402870
 30
0.0
 10
-24.482854
 20
-28.689564
 30
0.0
 10
-24.883855
 20
-27.866509
 30
0.0
 10
-25.149701
 20
-26.933168
 30
0.0
 10
-25.275076
 20
-25.924968
 30
0.0
 10
-24.623041
 20
-25.924968
 30
0.0
 10
-23.971007
 20
-25.924968
 30
0.0
 10
-23.876461
 20
-26.482106
 30
0.0
 10
-23.697152
 20
-27.005480
 30
0.0
 10
-23.423297
 20
-27.478205
 30
0.0
 10
-23.045117
 20
-27.883401
 30
0.0
 10
-22.556091
 20
-28.216839
 30
0.0
 10
-21.949698
 20
-28.474299
 30
0.0
 10
-21.222679
 20
-28.643135
 30
0.0
 10
-20.371772
 20
-28.710656
 30
0.0
 10
-19.511087
 20
-28.643135
 30
0.0
 10
-18.780808
 20
-28.474288
 30
0.0
 10
-18.180935
 20
-28.216828
 30
0.0
 10
-17.685389
 20
-27.883389
 30
0.0
 10
-17.294168
 20
-27.465532
 30
0.0
 10
-17.007273
 20
-26.988587
 30
0.0
 10
-16.831223
 20
-26.469434
 30
0.0
 10
-16.746463
 20
-25.924957
 30
0.0
 10
-16.100949
 20
-25.924957
 30
0.0
 10
-15.455435
 20
-25.924957
 30
0.0
 10
-15.576062
 20
-26.921054
 30
0.0
 10
-15.833614
 20
-27.849618
 30
0.0
 10
-16.238264
 20
-28.686400
 30
0.0
 10
-16.785585
 20
-29.402859
 30
0.0
 10
-17.480002
 20
-29.976877
 30
0.0
 10
-18.311348
 20
-30.415831
 30
0.0
 10
-19.276359
 20
-30.681748
 30
0.0
  0
LWPOLYLINE
  5
11c
100
AcDbEntity
  8
Layer_1
 62
7
100
AcDbPolyline
 90
36
 70
1
 10
-25.275076
 20
-25.249592
 30
0.0
 10
-25.160970
 20
-24.257714
 30
0.0
 10
-24.896896
 20
-23.341812
 30
0.0
 10
-24.484694
 20
-22.510867
 30
0.0
 10
-23.931884
 20
-21.805460
 30
0.0
 10
-23.243423
 20
-21.222419
 30
0.0
 10
-22.419162
 20
-20.775594
 30
0.0
 10
-21.463931
 20
-20.497024
 30
0.0
 10
-20.371772
 20
-20.404166
 30
0.0
 10
-19.276354
 20
-20.497024
 30
0.0
 10
-18.311344
 20
-20.775594
 30
0.0
 10
-17.479998
 20
-21.218774
 30
0.0
 10
-16.785581
 20
-21.805460
 30
0.0
 10
-16.241131
 20
-22.506103
 30
0.0
 10
-15.833610
 20
-23.324929
 30
0.0
 10
-15.576056
 20
-24.245053
 30
0.0
 10
-15.455430
 20
-25.249592
 30
0.0
 10
-16.100945
 20
-25.249592
 30
0.0
 10
-16.746459
 20
-25.249592
 30
0.0
 10
-16.841005
 20
-24.692453
 30
0.0
 10
-17.020314
 20
-24.169080
 30
0.0
 10
-17.303948
 20
-23.696356
 30
0.0
 10
-17.685389
 20
-23.291164
 30
0.0
 10
-18.180935
 20
-22.957724
 30
0.0
 10
-18.780808
 20
-22.700257
 30
0.0
 10
-19.511087
 20
-22.531428
 30
0.0
 10
-20.371772
 20
-22.463895
 30
0.0
 10
-21.229199
 20
-22.531428
 30
0.0
 10
-21.949698
 20
-22.700259
 30
0.0
 10
-22.556091
 20
-22.961947
 30
0.0
 10
-23.045117
 20
-23.308049
 30
0.0
 10
-23.433078
 20
-23.713240
 30
0.0
 10
-23.710192
 20
-24.185966
 30
0.0
 10
-23.896022
 20
-24.705119
 30
0.0
 10
-23.984049
 20
-25.249595
 30
0.0
 10
-24.629563
 20
-25.249595
 30
0.0
  0
LWPOLYLINE
  5
11d
100
AcDbEntity
  8
Layer_1
 62
7
100
AcDbPolyline
 90
4
 70
1
 10
-25.131629
 20
-41.693635
 30
0.0
 10
-25.131629
 20
-39.667679
 30
0.0
 10
-15.520634
 20
-39.667679
 30
0.0
 10
-15.520634
 20
-41.693635
 30
0.0
  0
LWPOLYLINE
  5
11e
100
AcDbEntity
  8
Layer_1
 62
7
100
AcDbPolyline
 90
52
 70
1
 10
-15.520634
 20
-33.252140
 30
0.0
 10
-15.520634
 20
-34.324210
 30
0.0
 10
-15.520634
 20
-35.396280
 30
0.0
 10
-17.261567
 20
-36.569643
 30
0.0
 10
-19.002501
 20
-37.743016
 30
0.0
 10
-18.999270
 20
-37.797947
 30
0.0
 10
-18.989478
 20
-37.861234
 30
0.0
 10
-18.989478
 20
-37.945691
 30
0.0
 10
-18.989478
 20
-38.030148
 30
0.0
 10
-18.989478
 20
-38.207419
 30
0.0
 10
-18.989478
 20
-38.384689
 30
0.0
 10
-18.989478
 20
-38.680144
 30
0.0
 10
-18.989478
 20
-38.975599
 30
0.0
 10
-19.563249
 20
-38.975599
 30
0.0
 10
-20.137039
 20
-38.975599
 30
0.0
 10
-20.137039
 20
-38.401581
 30
0.0
 10
-20.137039
 20
-37.827551
 30
0.0
 10
-20.159863
 20
-37.456130
 30
0.0
 10
-20.228324
 20
-37.084708
 30
0.0
 10
-20.358931
 20
-36.729353
 30
0.0
 10
-20.554340
 20
-36.409386
 30
0.0
 10
-20.818414
 20
-36.135034
 30
0.0
 10
-21.167254
 20
-35.919780
 30
0.0
 10
-21.617158
 20
-35.780493
 30
0.0
 10
-22.158346
 20
-35.734030
 30
0.0
 10
-22.409380
 20
-35.755200
 30
0.0
 10
-22.693014
 20
-35.818487
 30
0.0
 10
-22.995977
 20
-35.950187
 30
0.0
 10
-23.279847
 20
-36.173029
 30
0.0
 10
-23.540662
 20
-36.481141
 30
0.0
 10
-23.749312
 20
-36.899003
 30
0.0
 10
-23.896020
 20
-37.447706
 30
0.0
 10
-23.944924
 20
-38.148343
 30
0.0
 10
-23.944924
 20
-38.561971
 30
0.0
 10
-23.944924
 20
-38.975610
 30
0.0
 10
-24.538277
 20
-38.975610
 30
0.0
 10
-25.131629
 20
-38.975610
 30
0.0
 10
-25.131629
 20
-38.545091
 30
0.0
 10
-25.131629
 20
-38.114572
 30
0.0
 10
-25.082724
 20
-37.325299
 30
0.0
 10
-24.936015
 20
-36.544461
 30
0.0
 10
-24.691500
 20
-35.810041
 30
0.0
 10
-24.349184
 20
-35.160045
 30
0.0
 10
-23.915581
 20
-34.598684
 30
0.0
 10
-23.397213
 20
-34.163953
 30
0.0
 10
-22.813641
 20
-33.872721
 30
0.0
 10
-22.158346
 20
-33.775674
 30
0.0
 10
-21.193334
 20
-33.931841
 30
0.0
 10
-20.384810
 20
-34.400344
 30
0.0
 10
-19.749077
 20
-35.134764
 30
0.0
 10
-19.302433
 20
-36.088650
 30
0.0
 10
-17.411533
 20
-34.670450
 30
0.0
  0
LWPOLYLINE
  5
11f
100
AcDbEntity
  8
Layer_1
 62
7
100
AcDbPolyline
 90
10
 70
1
 10
-28.093192
 20
-0.029144
 30
0.0
 10
-43.111476
 20
2.541530
 30
0.0
 10
-43.321865
 20
2.584170
 30
0.0
 10
-43.321865
 20
7.666371
 30
0.0
 10
-43.321865
 20
12.748560
 30
0.0
 10
-38.331705
 20
12.728894
 30
0.0
 10
-33.341551
 20
12.709229
 30
0.0
 10
-30.681011
 20
6.401640
 30
0.0
 10
-28.020473
 20
0.032428
 30
0.0
 10
-28.093206
 20
-0.029132
 30
0.0
  0
ENDSEC
  0
SECTION
  2
OBJECTS
  0
DICTIONARY
  5
C
330
0
100
AcDbDictionary
  3
ACAD_GROUP
350
D
  3
ACAD_MLINESTYLE
350
17
  0
DICTIONARY
  5
D
330
C
100
AcDbDictionary
  0
DICTIONARY
  5
1A
330
C
100
AcDbDictionary
  0
DICTIONARY
  5
17
330
C
100
AcDbDictionary
  3
STANDARD
350
18
  0
DICTIONARY
  5
19
330
C
100
AcDbDictionary
  0
ENDSEC
  0
EOF
