<?xml version="1.0" encoding="UTF-8" standalone="no"?>
<svg
   width="122mm"
   height="122mm"
   viewBox="-61 -61 122 122"
   version="1.1"
   id="svg6"
   sodipodi:docname="pegatina.svg"
   inkscape:version="1.1.2 (0a00cf5339, 2022-02-04)"
   xmlns:inkscape="http://www.inkscape.org/namespaces/inkscape"
   xmlns:sodipodi="http://sodipodi.sourceforge.net/DTD/sodipodi-0.dtd"
   xmlns="http://www.w3.org/2000/svg"
   xmlns:svg="http://www.w3.org/2000/svg">
  <defs
     id="defs10" />
  <sodipodi:namedview
     id="namedview8"
     pagecolor="#ffffff"
     bordercolor="#666666"
     borderopacity="1.0"
     inkscape:pageshadow="2"
     inkscape:pageopacity="0.0"
     inkscape:pagecheckerboard="0"
     inkscape:document-units="mm"
     showgrid="false"
     inkscape:zoom="0.96611362"
     inkscape:cx="194.07655"
     inkscape:cy="163.0243"
     inkscape:window-width="1280"
     inkscape:window-height="965"
     inkscape:window-x="0"
     inkscape:window-y="0"
     inkscape:window-maximized="1"
     inkscape:current-layer="svg6" />
  <title
     id="title2">OpenSCAD Model</title>
  <path
     d=" M -60.0412,4.74893 L -59.9635,5.64544 L -59.8725,6.54069 L -59.7681,7.43448 L -57.6254,8.1191 L -56.966,8.32978  L -55.8715,8.56725 L -55.5343,8.64039 L -54.6367,8.76811 L -54.3612,8.8073 L -53.4702,8.86655 L -53.3454,8.86985  L -52.8147,8.86626 L -52.6344,8.85314 L -52.5007,8.84272 L -52.1894,8.79311 L -51.9101,8.86901 L -51.6529,9.00196  L -51.4295,9.18601 L -51.2498,9.41294 L -51.1218,9.67259 L -51.0513,9.95336 L -50.9829,10.2979 L -50.9122,10.642  L -50.8391,10.9856 L -50.7932,11.2715 L -50.8084,11.5605 L -50.8841,11.84 L -51.0168,12.0972 L -51.2007,12.3208  L -51.4275,12.5007 L -51.7331,12.5779 L -51.8808,12.6288 L -52.0519,12.688 L -52.5521,12.9008 L -52.6661,12.9534  L -53.4288,13.3441 L -53.8305,13.6018 L -55.1369,14.44 L -55.4406,14.677 L -56.4264,15.446 L -57.5199,16.434  L -57.8562,16.7379 L -57.5996,17.6004 L -57.3302,18.459 L -57.0481,19.3135 L -54.8114,19.5528 L -54.1231,19.6264  L -53.0032,19.6387 L -52.6582,19.6425 L -51.7533,19.5869 L -51.4755,19.5698 L -50.5908,19.4485 L -50.4679,19.4266  L -49.9488,19.3163 L -49.7748,19.2671 L -49.646,19.23 L -49.3511,19.1188 L -49.0622,19.1369 L -48.7835,19.2153  L -48.5276,19.3507 L -48.3059,19.5368 L -48.1282,19.7653 L -48.0026,20.0262 L -47.8663,20.3499 L -47.7278,20.6727  L -47.587,20.9946 L -47.4845,21.2653 L -47.4412,21.5516 L -47.4591,21.8405 L -47.5374,22.1192 L -47.6725,22.3752  L -47.8584,22.5971 L -48.1422,22.7342 L -48.2766,22.8138 L -48.4323,22.9062 L -48.8794,23.2153 L -48.9805,23.2899  L -49.649,23.8261 L -49.9906,24.1593 L -51.1015,25.2433 L -51.3513,25.5366 L -52.1621,26.4884 L -53.0343,27.6763  L -53.3025,28.0417 L -52.8776,28.8349 L -52.4409,29.6217 L -51.9925,30.4019 L -49.7535,30.186 L -49.0644,30.1196  L -47.965,29.9062 L -47.6263,29.8404 L -46.7511,29.6038 L -46.4824,29.5312 L -45.6403,29.2343 L -45.5243,29.1881  L -45.038,28.9755 L -44.8775,28.8923 L -44.7588,28.83 L -44.4923,28.6617 L -44.2056,28.6213 L -43.9169,28.6421  L -43.639,28.7231 L -43.3843,28.8607 L -43.1643,29.0489 L -42.9888,29.2791 L -42.7901,29.5688 L -42.5894,29.8571  L -42.3867,30.1441 L -42.2318,30.3886 L -42.1318,30.6603 L -42.0912,30.9469 L -42.1117,31.2356 L -42.1925,31.5136  L -42.33,31.7684 L -42.5804,31.9598 L -42.696,32.0648 L -42.8299,32.1867 L -43.2056,32.5795 L -43.2897,32.6729  L -43.8365,33.3326 L -44.104,33.7278 L -44.974,35.0133 L -45.1597,35.3508 L -45.7622,36.4463 L -46.3775,37.7855  L -46.5667,38.1974 L -45.9908,38.8888 L -45.4047,39.5716 L -44.8084,40.2455 L -42.6586,39.5834 L -41.997,39.3796  L -40.9631,38.9493 L -40.6445,38.8167 L -39.8349,38.4088 L -39.5863,38.2835 L -38.8212,37.8232 L -38.7169,37.7546  L -38.2833,37.4484 L -38.1429,37.3347 L -38.0391,37.2498 L -37.812,37.0312 L -37.5393,36.9339 L -37.2523,36.8962  L -36.9638,36.9196 L -36.6866,37.0032 L -36.4332,37.1432 L -36.215,37.3333 L -35.962,37.5771 L -35.7074,37.8191  L -35.4511,38.0594 L -35.2502,38.2677 L -35.0975,38.5137 L -35,38.7863 L -34.962,39.0732 L -34.9852,39.3618  L -35.0686,39.639 L -35.2753,39.8769 L -35.3674,40.0031 L -35.474,40.1494 L -35.763,40.6098 L -35.8265,40.7182  L -36.2294,41.4746 L -36.4118,41.9155 L -37.0052,43.3497 L -37.1192,43.7178 L -37.4889,44.9121 L -37.822,46.3477  L -37.9244,46.7893 L -37.2211,47.3506 L -36.5095,47.9015 L -35.7898,48.4416 L -33.8173,47.3602 L -33.2103,47.0275  L -32.2841,46.3978 L -31.9988,46.2038 L -31.2878,45.6412 L -31.0696,45.4685 L -30.4128,44.8636 L -30.3244,44.7754  L -29.9614,44.3882 L -29.8467,44.2485 L -29.7621,44.1445 L -29.5836,43.8847 L -29.3361,43.7345 L -29.0626,43.6397  L -28.7753,43.6046 L -28.487,43.6307 L -28.2106,43.7168 L -27.9585,43.8591 L -27.6616,44.0469 L -27.3635,44.2328  L -27.0641,44.4166 L -26.8254,44.5802 L -26.6263,44.7904 L -26.4759,45.0378 L -26.3809,45.3112 L -26.3456,45.5985  L -26.3714,45.8869 L -26.5261,46.1615 L -26.5909,46.3036 L -26.6659,46.4684 L -26.8562,46.9775 L -26.8967,47.0965  L -27.139,47.9185 L -27.2289,48.3871 L -27.5215,49.9115 L -27.559,50.2949 L -27.6807,51.5392 L -27.718,53.0125  L -27.7295,53.4656 L -26.9276,53.8739 L -26.1197,54.2702 L -25.3059,54.6544 L -23.5915,53.1982 L -23.0639,52.75  L -22.2835,51.9468 L -22.043,51.6993 L -21.4599,51.0052 L -21.2808,50.792 L -20.7593,50.0673 L -20.6905,49.9631  L -20.4128,49.5108 L -20.3285,49.3509 L -20.2667,49.2319 L -20.1441,48.9415 L -19.9319,48.7446 L -19.6831,48.5967  L -19.4087,48.5044 L -19.121,48.4719 L -18.833,48.5007 L -18.5574,48.5893 L -18.2288,48.7136 L -17.8994,48.8356  L -17.5692,48.9553 L -17.3023,49.0676 L -17.065,49.2334 L -16.8679,49.4454 L -16.7198,49.6941 L -16.6274,49.9685  L -16.5946,50.2561 L -16.6908,50.5563 L -16.7257,50.7085 L -16.766,50.885 L -16.85,51.422 L -16.8656,51.5467  L -16.9375,52.4006 L -16.9313,52.8778 L -16.911,54.4298 L -16.8706,54.813 L -16.7393,56.0563 L -16.4793,57.5069  L -16.3993,57.9531 L -15.5316,58.1916 L -14.6605,58.4172 L -13.7861,58.6297 L -12.3999,56.8581 L -11.9733,56.3129  L -11.3705,55.3691 L -11.1848,55.0782 L -10.7533,54.2809 L -10.6209,54.0361 L -10.2559,53.2212 L -10.2094,53.1053  L -10.0285,52.6064 L -9.97815,52.4327 L -9.94149,52.3038 L -9.8799,51.9946 L -9.71171,51.759 L -9.49773,51.5641  L -9.24753,51.4185 L -8.97231,51.3287 L -8.68437,51.2989 L -8.39659,51.3303 L -8.04971,51.3858 L -7.70247,51.439  L -7.35488,51.4899 L -7.0709,51.5461 L -6.8051,51.6607 L -6.56936,51.8287 L -6.37422,52.0426 L -6.22842,52.2927  L -6.13848,52.5678 L -6.17225,52.8812 L -6.17579,53.0374 L -6.17973,53.2183 L -6.15389,53.7613 L -6.1441,53.8866  L -6.04265,54.7375 L -5.94051,55.2036 L -5.60822,56.7198 L -5.49148,57.087 L -5.11264,58.2784 L -4.56589,59.647  L -4.39773,60.0679 L -3.4998,60.1269 L -2.60109,60.1725 L -1.7018,60.2046 L -0.700614,58.1903 L -0.392501,57.5704  L 0.00795224,56.5245 L 0.131317,56.2023 L 0.393484,55.3344 L 0.473948,55.068 L 0.667428,54.1962 L 0.689589,54.0734  L 0.76641,53.5482 L 0.78074,53.368 L 0.790681,53.2343 L 0.788785,52.9191 L 0.906107,52.6545 L 1.07646,52.4204  L 1.29223,52.2274 L 1.54376,52.0841 L 1.8198,51.997 L 2.108,51.9698 L 2.45895,51.9543 L 2.8098,51.9366  L 3.16051,51.9164 L 3.44999,51.9143 L 3.73343,51.9731 L 3.99816,52.0902 L 4.23235,52.2604 L 4.42551,52.476  L 4.569,52.7274 L 4.599,53.0412 L 4.62697,53.1949 L 4.65954,53.3729 L 4.79415,53.8996 L 4.82896,54.0203  L 5.09962,54.8334 L 5.2935,55.2694 L 5.92419,56.6876 L 6.11245,57.0238 L 6.72337,58.1146 L 7.53442,59.3451  L 7.78387,59.7236 L 8.6753,59.6006 L 9.56478,59.4643 L 10.4521,59.3148 L 11.0274,57.1402 L 11.2044,56.4709  L 11.3861,55.3659 L 11.4421,55.0254 L 11.5242,54.1225 L 11.5493,53.8453 L 11.5634,52.9525 L 11.5604,52.8277  L 11.5299,52.2978 L 11.5077,52.1184 L 11.4905,51.9855 L 11.4252,51.6771 L 11.4868,51.3942 L 11.6066,51.1307  L 11.7791,50.8982 L 11.9966,50.7072 L 12.2495,50.5662 L 12.5263,50.4816 L 12.867,50.3959 L 13.207,50.3078  L 13.5465,50.2174 L 13.8296,50.1571 L 14.1191,50.1577 L 14.402,50.2191 L 14.6656,50.3386 L 14.8983,50.511  L 15.0894,50.7283 L 15.182,51.0297 L 15.2403,51.1746 L 15.3081,51.3424 L 15.5459,51.8312 L 15.6043,51.9425  L 16.0331,52.6844 L 16.3108,53.0725 L 17.2141,54.3347 L 17.4661,54.6261 L 18.2841,55.5716 L 19.3263,56.6137  L 19.6468,56.9341 L 20.4952,56.6343 L 21.3391,56.3217 L 22.1782,55.9966 L 22.3039,53.7507 L 22.3425,53.0596  L 22.2981,51.9405 L 22.2844,51.5957 L 22.183,50.6948 L 22.1519,50.4182 L 21.9859,49.5408 L 21.9579,49.4192  L 21.8214,48.9063 L 21.7635,48.7351 L 21.7199,48.6083 L 21.5938,48.3194 L 21.5973,48.0299 L 21.6615,47.7477  L 21.7837,47.4852 L 21.9583,47.2543 L 22.1776,47.0654 L 22.4317,46.9267 L 22.7482,46.7741 L 23.0636,46.6194  L 23.3779,46.4626 L 23.6431,46.3465 L 23.9268,46.2888 L 24.2162,46.292 L 24.4985,46.356 L 24.7611,46.478  L 24.9921,46.6525 L 25.1434,46.929 L 25.2297,47.0592 L 25.3299,47.21 L 25.6612,47.6408 L 25.7408,47.7381  L 26.3102,48.3785 L 26.6603,48.7027 L 27.7992,49.7573 L 28.1048,49.992 L 29.0963,50.7535 L 30.3269,51.5644  L 30.7054,51.8138 L 31.4761,51.3493 L 32.2397,50.8733 L 32.9962,50.3859 L 32.6672,48.1607 L 32.566,47.4759  L 32.2972,46.3887 L 32.2143,46.0537 L 31.9337,45.1917 L 31.8476,44.927 L 31.5084,44.101 L 31.4564,43.9875  L 31.2194,43.5126 L 31.1283,43.3565 L 31.06,43.2411 L 30.8784,42.9835 L 30.8235,42.6992 L 30.8296,42.4098  L 30.8965,42.1282 L 31.0211,41.8669 L 31.1978,41.6376 L 31.4188,41.4506 L 31.6981,41.2375 L 31.9759,41.0225  L 32.2522,40.8056 L 32.4886,40.6385 L 32.7548,40.5248 L 33.039,40.4697 L 33.3285,40.4756 L 33.6102,40.5422  L 33.8716,40.6666 L 34.0754,40.907 L 34.1862,41.0172 L 34.3146,41.1447 L 34.726,41.5001 L 34.8235,41.5793  L 35.5101,42.092 L 35.9184,42.3391 L 37.2462,43.1428 L 37.5928,43.3112 L 38.7173,43.8575 L 40.086,44.4041  L 40.5069,44.5722 L 41.1683,43.9621 L 41.8205,43.3421 L 42.4634,42.7125 L 41.6932,40.599 L 41.4562,39.9486  L 40.9741,38.9378 L 40.8255,38.6263 L 40.3771,37.8384 L 40.2394,37.5965 L 39.7409,36.8557 L 39.6671,36.755  L 39.3394,36.3375 L 39.2187,36.2029 L 39.1286,36.1036 L 38.8988,35.8878 L 38.7879,35.6205 L 38.7356,35.3357  L 38.7444,35.0464 L 38.8138,34.7654 L 38.9408,34.5052 L 39.1197,34.2776 L 39.3503,34.0126 L 39.5791,33.746  L 39.8061,33.478 L 40.004,33.2667 L 40.2419,33.1018 L 40.5092,32.9906 L 40.7939,32.9381 L 41.0833,32.9466  L 41.3643,33.0159 L 41.6124,33.2103 L 41.7431,33.2959 L 41.8946,33.395 L 42.369,33.6603 L 42.4805,33.7182  L 43.2563,34.0822 L 43.7059,34.2421 L 45.1684,34.7621 L 45.5417,34.8573 L 46.7533,35.166 L 48.2039,35.4259  L 48.65,35.5059 L 49.1751,34.7751 L 49.6892,34.0365 L 50.1921,33.2903 L 49.0123,31.3752 L 48.6492,30.7858  L 47.9734,29.8927 L 47.7652,29.6175 L 47.1674,28.936 L 46.9838,28.7268 L 46.3464,28.1014 L 46.2538,28.0177  L 45.8488,27.6747 L 45.7035,27.5672 L 45.5952,27.488 L 45.3267,27.3229 L 45.1642,27.0834 L 45.0557,26.815  L 45.0061,26.5298 L 45.0175,26.2405 L 45.0895,25.9602 L 45.2189,25.7012 L 45.3915,25.3952 L 45.5619,25.088  L 45.7303,24.7798 L 45.8817,24.533 L 46.0815,24.3235 L 46.3209,24.1608 L 46.5892,24.0521 L 46.8744,24.0022  L 47.1637,24.0134 L 47.4458,24.154 L 47.591,24.2115 L 47.7594,24.2781 L 48.2775,24.4424 L 48.3984,24.4767  L 49.2316,24.6771 L 49.7041,24.7432 L 51.2413,24.9582 L 51.6262,24.9762 L 52.8751,25.0348 L 54.3483,24.9974  L 54.8015,24.9859 L 55.1686,24.1643 L 55.5235,23.3374 L 55.866,22.5053 L 54.3248,20.8668 L 53.8504,20.3626  L 53.0088,19.6238 L 52.7494,19.3962 L 52.0266,18.8489 L 51.8047,18.6809 L 51.0544,18.1968 L 50.9469,18.1333  L 50.4811,17.8789 L 50.3171,17.8029 L 50.1952,17.7471 L 49.899,17.6394 L 49.6915,17.4375 L 49.5312,17.1964  L 49.4252,16.9271 L 49.3782,16.6414 L 49.3923,16.3523 L 49.4669,16.0726 L 49.5743,15.7381 L 49.6795,15.4029  L 49.7824,15.0671 L 49.8809,14.7949 L 50.0345,14.5495 L 50.2363,14.3419 L 50.4772,14.1814 L 50.7465,14.0752  L 51.0321,14.0279 L 51.3367,14.1088 L 51.4906,14.1359 L 51.6689,14.1672 L 52.2095,14.2239 L 52.3348,14.2332  L 53.1912,14.2617 L 53.6675,14.2314 L 55.2165,14.1325 L 55.5971,14.0727 L 56.8322,13.8787 L 58.2678,13.5455  L 58.7093,13.443 L 58.9036,12.5643 L 59.0847,11.6829 L 59.2527,10.7988 L 57.4132,9.50417 L 56.8471,9.10573  L 55.8739,8.55152 L 55.574,8.38078 L 54.7559,7.99022 L 54.5047,7.87034 L 53.6723,7.54708 L 53.5542,7.50657  L 53.0468,7.35112 L 52.8708,7.30966 L 52.7402,7.27959 L 52.4283,7.23374 L 52.1845,7.07769 L 51.9789,6.87386  L 51.8209,6.63136 L 51.7173,6.36103 L 51.6729,6.07497 L 51.6897,5.78598 L 51.7276,5.43673 L 51.7631,5.08724  L 51.7963,4.73752 L 51.838,4.45106 L 51.9391,4.17979 L 52.095,3.93585 L 52.2986,3.73013 L 52.541,3.57185  L 52.8112,3.46808 L 53.1259,3.48594 L 53.2821,3.48157 L 53.463,3.47633 L 54.004,3.42302 L 54.1286,3.4069  L 54.9733,3.26249 L 55.4336,3.13687 L 56.931,2.72821 L 57.2918,2.59302 L 58.4626,2.15433 L 59.8017,1.53896  L 60.2136,1.3497 L 60.227,0.449932 L 60.227,-0.449932 L 60.2136,-1.3497 L 58.1511,-2.24758 L 57.5164,-2.52389  L 56.4516,-2.87086 L 56.1235,-2.97775 L 55.2435,-3.19562 L 54.9733,-3.26249 L 54.0929,-3.41156 L 53.969,-3.42747  L 53.4407,-3.4776 L 53.26,-3.48279 L 53.1259,-3.48594 L 52.8112,-3.46808 L 52.541,-3.57185 L 52.2986,-3.73013  L 52.095,-3.93585 L 51.9391,-4.17979 L 51.838,-4.45106 L 51.7963,-4.73752 L 51.7631,-5.08724 L 51.7276,-5.43673  L 51.6897,-5.78598 L 51.6729,-6.07497 L 51.7173,-6.36103 L 51.8209,-6.63136 L 51.9789,-6.87386 L 52.1845,-7.07769  L 52.4283,-7.23374 L 52.7402,-7.27959 L 52.8922,-7.3153 L 53.0684,-7.35686 L 53.5876,-7.51797 L 53.7064,-7.55884  L 54.5047,-7.87034 L 54.9304,-8.08605 L 56.3148,-8.78777 L 56.641,-8.99282 L 57.6995,-9.6582 L 58.8873,-10.5305  L 59.2527,-10.7988 L 59.0847,-11.6829 L 58.9036,-12.5643 L 58.7093,-13.443 L 56.5083,-13.9073 L 55.831,-14.0502  L 54.7181,-14.1757 L 54.3752,-14.2144 L 53.4693,-14.2506 L 53.1912,-14.2617 L 52.2988,-14.2305 L 52.1744,-14.2212  L 51.6467,-14.1639 L 51.4687,-14.1326 L 51.3367,-14.1088 L 51.0321,-14.0279 L 50.7465,-14.0752 L 50.4772,-14.1814  L 50.2363,-14.3419 L 50.0345,-14.5495 L 49.8809,-14.7949 L 49.7824,-15.0671 L 49.6795,-15.4029 L 49.5743,-15.7381  L 49.4669,-16.0726 L 49.3923,-16.3523 L 49.3782,-16.6414 L 49.4252,-16.9271 L 49.5312,-17.1964 L 49.6915,-17.4375  L 49.899,-17.6394 L 50.1952,-17.7471 L 50.337,-17.8127 L 50.5012,-17.8889 L 50.9773,-18.1512 L 51.0854,-18.2151  L 51.8047,-18.6809 L 52.1782,-18.9779 L 53.3931,-19.944 L 53.6713,-20.2105 L 54.5742,-21.0753 L 55.5621,-22.1689  L 55.866,-22.5053 L 55.5235,-23.3374 L 55.1686,-24.1643 L 54.8015,-24.9859 L 52.5521,-24.9977 L 51.8598,-25.0013  L 50.7445,-24.9002 L 50.4008,-24.869 L 49.5062,-24.7222 L 49.2316,-24.6771 L 48.3637,-24.4669 L 48.2436,-24.4327  L 47.7383,-24.2704 L 47.5702,-24.2039 L 47.4458,-24.154 L 47.1637,-24.0134 L 46.8744,-24.0022 L 46.5892,-24.0521  L 46.3209,-24.1608 L 46.0815,-24.3235 L 45.8817,-24.533 L 45.7303,-24.7798 L 45.5619,-25.088 L 45.3915,-25.3952  L 45.2189,-25.7012 L 45.0895,-25.9602 L 45.0175,-26.2405 L 45.0061,-26.5298 L 45.0557,-26.815 L 45.1642,-27.0834  L 45.3267,-27.3229 L 45.5952,-27.488 L 45.7209,-27.5808 L 45.8664,-27.6885 L 46.28,-28.0413 L 46.373,-28.1257  L 46.9838,-28.7268 L 47.2899,-29.0929 L 48.2854,-30.2837 L 48.5043,-30.6007 L 49.2146,-31.6296 L 49.9622,-32.8997  L 50.1921,-33.2903 L 49.6892,-34.0365 L 49.1751,-34.7751 L 48.65,-35.5059 L 46.4443,-35.0646 L 45.7655,-34.9288  L 44.6934,-34.6053 L 44.363,-34.5056 L 43.5163,-34.1817 L 43.2563,-34.0822 L 42.4485,-33.7016 L 42.3378,-33.6439  L 41.8755,-33.3832 L 41.7242,-33.2843 L 41.6124,-33.2103 L 41.3643,-33.0159 L 41.0833,-32.9466 L 40.7939,-32.9381  L 40.5092,-32.9906 L 40.2419,-33.1018 L 40.004,-33.2667 L 39.8061,-33.478 L 39.5791,-33.746 L 39.3503,-34.0126  L 39.1197,-34.2776 L 38.9408,-34.5052 L 38.8138,-34.7654 L 38.7444,-35.0464 L 38.7356,-35.3357 L 38.7879,-35.6205  L 38.8988,-35.8878 L 39.1286,-36.1036 L 39.233,-36.2198 L 39.3539,-36.3545 L 39.6879,-36.7834 L 39.7621,-36.8848  L 40.2394,-37.5965 L 40.4655,-38.0167 L 41.201,-39.3836 L 41.3516,-39.7382 L 41.8402,-40.889 L 42.3168,-42.2836  L 42.4634,-42.7125 L 41.8205,-43.3421 L 41.1683,-43.9621 L 40.5069,-44.5722 L 38.4352,-43.696 L 37.7976,-43.4263  L 36.8125,-42.8936 L 36.509,-42.7295 L 35.7447,-42.2417 L 35.5101,-42.092 L 34.7955,-41.5566 L 34.6987,-41.4778  L 34.2983,-41.1294 L 34.1701,-41.002 L 34.0754,-40.907 L 33.8716,-40.6666 L 33.6102,-40.5422 L 33.3285,-40.4756  L 33.039,-40.4697 L 32.7548,-40.5248 L 32.4886,-40.6385 L 32.2522,-40.8056 L 31.9759,-41.0225 L 31.6981,-41.2375  L 31.4188,-41.4506 L 31.1978,-41.6376 L 31.0211,-41.8669 L 30.8965,-42.1282 L 30.8296,-42.4098 L 30.8235,-42.6992  L 30.8784,-42.9835 L 31.06,-43.2411 L 31.1389,-43.3759 L 31.2302,-43.5322 L 31.4711,-44.0195 L 31.5233,-44.1338  L 31.8476,-44.927 L 31.9845,-45.3842 L 32.4297,-46.8711 L 32.5059,-47.2488 L 32.7529,-48.4744 L 32.939,-49.9363  L 32.9962,-50.3859 L 32.2397,-50.8733 L 31.4761,-51.3493 L 30.7054,-51.8138 L 28.8525,-50.5385 L 28.2822,-50.146  L 27.4245,-49.4259 L 27.1602,-49.204 L 26.5099,-48.5724 L 26.3102,-48.3785 L 25.718,-47.7102 L 25.639,-47.6135  L 25.3169,-47.1916 L 25.217,-47.0411 L 25.1434,-46.929 L 24.9921,-46.6525 L 24.7611,-46.478 L 24.4985,-46.356  L 24.2162,-46.292 L 23.9268,-46.2888 L 23.6431,-46.3465 L 23.3779,-46.4626 L 23.0636,-46.6194 L 22.7482,-46.7741  L 22.4317,-46.9267 L 22.1776,-47.0654 L 21.9583,-47.2543 L 21.7837,-47.4852 L 21.6615,-47.7477 L 21.5973,-48.0299  L 21.5938,-48.3194 L 21.7199,-48.6083 L 21.77,-48.7562 L 21.8279,-48.9277 L 21.9658,-49.4535 L 21.994,-49.576  L 22.1519,-50.4182 L 22.194,-50.8936 L 22.3308,-52.4397 L 22.3294,-52.825 L 22.3246,-54.0752 L 22.2126,-55.5447  L 22.1782,-55.9966 L 21.3391,-56.3217 L 20.4952,-56.6343 L 19.6468,-56.9341 L 18.0885,-55.3119 L 17.609,-54.8127  L 16.9138,-53.9347 L 16.6996,-53.6641 L 16.1896,-52.9145 L 16.0331,-52.6844 L 15.5875,-51.9106 L 15.5296,-51.8  L 15.2991,-51.3219 L 15.2315,-51.1543 L 15.182,-51.0297 L 15.0894,-50.7283 L 14.8983,-50.511 L 14.6656,-50.3386  L 14.402,-50.2191 L 14.1191,-50.1577 L 13.8296,-50.1571 L 13.5465,-50.2174 L 13.207,-50.3078 L 12.867,-50.3959  L 12.5263,-50.4816 L 12.2495,-50.5662 L 11.9966,-50.7072 L 11.7791,-50.8982 L 11.6066,-51.1307 L 11.4868,-51.3942  L 11.4252,-51.6771 L 11.4905,-51.9855 L 11.5098,-52.1404 L 11.532,-52.3201 L 11.5613,-52.8629 L 11.5642,-52.9885  L 11.5493,-53.8453 L 11.4949,-54.3194 L 11.3177,-55.8614 L 11.2387,-56.2385 L 10.9823,-57.4622 L 10.5769,-58.879  L 10.4521,-59.3148 L 9.56478,-59.4643 L 8.6753,-59.6006 L 7.78387,-59.7236 L 6.58404,-57.8209 L 6.21479,-57.2353  L 5.71058,-56.2353 L 5.55524,-55.9272 L 5.20662,-55.0903 L 5.09962,-54.8334 L 4.81894,-53.9857 L 4.78446,-53.8657  L 4.65491,-53.351 L 4.62242,-53.1732 L 4.599,-53.0412 L 4.569,-52.7274 L 4.42551,-52.476 L 4.23235,-52.2604  L 3.99816,-52.0902 L 3.73343,-51.9731 L 3.44999,-51.9143 L 3.16051,-51.9164 L 2.8098,-51.9366 L 2.45895,-51.9543  L 2.108,-51.9698 L 1.8198,-51.997 L 1.54376,-52.0841 L 1.29223,-52.2274 L 1.07646,-52.4204 L 0.906107,-52.6545  L 0.788785,-52.9191 L 0.790681,-53.2343 L 0.778406,-53.39 L 0.764014,-53.5705 L 0.68337,-54.1081 L 0.660962,-54.2317  L 0.473948,-55.068 L 0.325175,-55.5214 L -0.158803,-56.9961 L -0.312087,-57.3496 L -0.809519,-58.4967 L -1.49192,-59.8029  L -1.7018,-60.2046 L -2.60109,-60.1725 L -3.4998,-60.1269 L -4.39773,-60.0679 L -5.19,-57.9626 L -5.43381,-57.3147  L -5.7264,-56.2337 L -5.81653,-55.9006 L -5.98955,-55.0107 L -6.04265,-54.7375 L -6.14694,-53.8506 L -6.15656,-53.7262  L -6.17986,-53.1959 L -6.17589,-53.0152 L -6.17225,-52.8812 L -6.13848,-52.5678 L -6.22842,-52.2927 L -6.37422,-52.0426  L -6.56936,-51.8287 L -6.8051,-51.6607 L -7.0709,-51.5461 L -7.35488,-51.4899 L -7.70247,-51.439 L -8.04971,-51.3858  L -8.39659,-51.3303 L -8.68437,-51.2989 L -8.97231,-51.3287 L -9.24753,-51.4185 L -9.49773,-51.5641 L -9.71171,-51.759  L -9.8799,-51.9946 L -9.94149,-52.3038 L -9.98486,-52.4538 L -10.0353,-52.6277 L -10.2225,-53.138 L -10.2693,-53.2546  L -10.6209,-54.0361 L -10.8579,-54.4503 L -11.6288,-55.7975 L -11.8501,-56.1129 L -12.5682,-57.1363 L -13.4996,-58.2784  L -13.7861,-58.6297 L -14.6605,-58.4172 L -15.5316,-58.1916 L -16.3993,-57.9531 L -16.7516,-55.7314 L -16.86,-55.0477  L -16.9289,-53.9299 L -16.9502,-53.5855 L -16.9405,-52.6789 L -16.9375,-52.4006 L -16.8612,-51.5109 L -16.8455,-51.3871  L -16.7616,-50.863 L -16.7214,-50.6868 L -16.6908,-50.5563 L -16.5946,-50.2561 L -16.6274,-49.9685 L -16.7198,-49.6941  L -16.8679,-49.4454 L -17.065,-49.2334 L -17.3023,-49.0676 L -17.5692,-48.9553 L -17.8994,-48.8356 L -18.2288,-48.7136  L -18.5574,-48.5893 L -18.833,-48.5007 L -19.121,-48.4719 L -19.4087,-48.5044 L -19.6831,-48.5967 L -19.9319,-48.7446  L -20.1441,-48.9415 L -20.2667,-49.2319 L -20.3394,-49.3702 L -20.4237,-49.5303 L -20.7098,-49.9925 L -20.7792,-50.0973  L -21.2808,-50.792 L -21.5964,-51.15 L -22.6227,-52.3144 L -22.903,-52.5788 L -23.8124,-53.4367 L -24.9546,-54.368  L -25.3059,-54.6544 L -26.1197,-54.2702 L -26.9276,-53.8739 L -27.7295,-53.4656 L -27.6273,-51.2185 L -27.5958,-50.527  L -27.4384,-49.4182 L -27.3899,-49.0765 L -27.1979,-48.1905 L -27.139,-47.9185 L -26.8851,-47.0624 L -26.8449,-46.9442  L -26.6572,-46.4478 L -26.5822,-46.2833 L -26.5261,-46.1615 L -26.3714,-45.8869 L -26.3456,-45.5985 L -26.3809,-45.3112  L -26.4759,-45.0378 L -26.6263,-44.7904 L -26.8254,-44.5802 L -27.0641,-44.4166 L -27.3635,-44.2328 L -27.6616,-44.0469  L -27.9585,-43.8591 L -28.2106,-43.7168 L -28.487,-43.6307 L -28.7753,-43.6046 L -29.0626,-43.6397 L -29.3361,-43.7345  L -29.5836,-43.8847 L -29.7621,-44.1445 L -29.8611,-44.2653 L -29.976,-44.4052 L -30.3493,-44.8003 L -30.4384,-44.889  L -31.0696,-45.4685 L -31.4507,-45.7557 L -32.6904,-46.6896 L -33.0182,-46.8922 L -34.0817,-47.5495 L -35.388,-48.2317  L -35.7898,-48.4416 L -36.5095,-47.9015 L -37.2211,-47.3506 L -37.9244,-46.7893 L -37.372,-44.6087 L -37.202,-43.9377  L -36.8246,-42.8833 L -36.7082,-42.5584 L -36.3419,-41.7291 L -36.2294,-41.4746 L -35.8083,-40.6871 L -35.7451,-40.5794  L -35.4614,-40.1309 L -35.3549,-39.9849 L -35.2753,-39.8769 L -35.0686,-39.639 L -34.9852,-39.3618 L -34.962,-39.0732  L -35,-38.7863 L -35.0975,-38.5137 L -35.2502,-38.2677 L -35.4511,-38.0594 L -35.7074,-37.8191 L -35.962,-37.5771  L -36.215,-37.3333 L -36.4332,-37.1432 L -36.6866,-37.0032 L -36.9638,-36.9196 L -37.2523,-36.8962 L -37.5393,-36.9339  L -37.812,-37.0312 L -38.0391,-37.2498 L -38.1604,-37.3482 L -38.3011,-37.462 L -38.7463,-37.774 L -38.8514,-37.8429  L -39.5863,-38.2835 L -40.0175,-38.4881 L -41.4198,-39.1534 L -41.7816,-39.2858 L -42.9557,-39.7155 L -44.3726,-40.1209  L -44.8084,-40.2455 L -45.4047,-39.5716 L -45.9908,-38.8888 L -46.5667,-38.1974 L -45.5866,-36.1727 L -45.285,-35.5496  L -44.7031,-34.5927 L -44.5238,-34.2979 L -43.998,-33.5594 L -43.8365,-33.3326 L -43.2656,-32.6461 L -43.182,-32.5533  L -42.8138,-32.1711 L -42.68,-32.0495 L -42.5804,-31.9598 L -42.33,-31.7684 L -42.1925,-31.5136 L -42.1117,-31.2356  L -42.0912,-30.9469 L -42.1318,-30.6603 L -42.2318,-30.3886 L -42.3867,-30.1441 L -42.5894,-29.8571 L -42.7901,-29.5688  L -42.9888,-29.2791 L -43.1643,-29.0489 L -43.3843,-28.8607 L -43.639,-28.7231 L -43.9169,-28.6421 L -44.2056,-28.6213  L -44.4923,-28.6617 L -44.7588,-28.83 L -44.8974,-28.902 L -45.0582,-28.9852 L -45.557,-29.2011 L -45.6738,-29.2475  L -46.4824,-29.5312 L -46.9459,-29.6448 L -48.4534,-30.0141 L -48.8345,-30.071 L -50.0711,-30.2556 L -51.5406,-30.3675  L -51.9925,-30.4019 L -52.4409,-29.6217 L -52.8776,-28.8349 L -53.3025,-28.0417 L -51.935,-26.2557 L -51.5141,-25.7061  L -50.7515,-24.8859 L -50.5165,-24.6332 L -49.8528,-24.0157 L -49.649,-23.8261 L -48.9516,-23.2685 L -48.851,-23.1945  L -48.4134,-22.8942 L -48.2579,-22.802 L -48.1422,-22.7342 L -47.8584,-22.5971 L -47.6725,-22.3752 L -47.5374,-22.1192  L -47.4591,-21.8405 L -47.4412,-21.5516 L -47.4845,-21.2653 L -47.587,-20.9946 L -47.7278,-20.6727 L -47.8663,-20.3499  L -48.0026,-20.0262 L -48.1282,-19.7653 L -48.3059,-19.5368 L -48.5276,-19.3507 L -48.7835,-19.2153 L -49.0622,-19.1369  L -49.3511,-19.1188 L -49.646,-19.23 L -49.7963,-19.2726 L -49.9705,-19.3218 L -50.5026,-19.4328 L -50.6263,-19.4548  L -51.4755,-19.5698 L -51.9524,-19.5878 L -53.5034,-19.6461 L -53.8881,-19.6252 L -55.1365,-19.5571 L -56.5984,-19.3708  L -57.0481,-19.3135 L -57.3302,-18.459 L -57.5996,-17.6004 L -57.8562,-16.7379 L -56.1571,-15.2638 L -55.6342,-14.8101  L -54.7221,-14.1603 L -54.441,-13.9601 L -53.6666,-13.4888 L -53.4288,-13.3441 L -52.6334,-12.9383 L -52.52,-12.8861  L -52.0309,-12.6801 L -51.8601,-12.621 L -51.7331,-12.5779 L -51.4275,-12.5007 L -51.2007,-12.3208 L -51.0168,-12.0972  L -50.8841,-11.84 L -50.8084,-11.5605 L -50.7932,-11.2715 L -50.8391,-10.9856 L -50.9122,-10.642 L -50.9829,-10.2979  L -51.0513,-9.95336 L -51.1218,-9.67259 L -51.2498,-9.41294 L -51.4295,-9.18601 L -51.6529,-9.00196 L -51.9101,-8.86901  L -52.1894,-8.79311 L -52.5007,-8.84272 L -52.6565,-8.85416 L -52.837,-8.86726 L -53.3806,-8.86895 L -53.5062,-8.86553  L -54.3612,-8.8073 L -54.8319,-8.7289 L -56.3629,-8.47383 L -56.7355,-8.37584 L -57.9447,-8.05783 L -59.3392,-7.5811  L -59.7681,-7.43448 L -59.8725,-6.54069 L -59.9635,-5.64544 L -60.0412,-4.74893 L -58.0801,-3.64701 L -57.4766,-3.30789  L -56.4524,-2.85498 L -56.1368,-2.71545 L -55.2833,-2.40966 L -55.0213,-2.31581 L -54.1605,-2.07842 L -54.0389,-2.05007  L -53.5183,-1.94675 L -53.3391,-1.92331 L -53.206,-1.90661 L -52.8912,-1.89254 L -52.6328,-1.76196 L -52.4077,-1.57997  L -52.2259,-1.35471 L -52.0955,-1.09624 L -52.0224,-0.816142 L -52.0098,-0.526932 L -52.0122,-0.175647 L -52.0122,0.175647  L -52.0098,0.526932 L -52.0224,0.816142 L -52.0955,1.09624 L -52.2259,1.35471 L -52.4077,1.57997 L -52.6328,1.76196  L -52.8912,1.89254 L -53.206,1.90661 L -53.3609,1.92675 L -53.5404,1.95027 L -54.0732,2.05803 L -54.1956,2.08668  L -55.0213,2.31581 L -55.4666,2.48735 L -56.9149,3.04541 L -57.2602,3.2164 L -58.3806,3.77129 L -59.6506,4.51897  z M -47.09,-2.32559 L -47.09,-11.4741 L -42.5988,-11.4557 L -38.1076,-11.4381 L -35.7126,-5.76123 L -33.3185,-0.0290031  L -33.3835,0.0263672 L -46.9002,-2.28779 z M -30.8479,23.3323 L -29.6736,23.3323 L -29.5884,23.8342 L -29.4275,24.3053 L -29.1806,24.7307 L -28.8404,25.0954  L -28.4001,25.3951 L -27.8543,25.6271 L -27.2004,25.7792 L -26.4349,25.8398 L -25.6597,25.7792 L -25.0031,25.6271  L -24.4626,25.3951 L -24.017,25.0954 L -23.6646,24.7192 L -23.4062,24.2895 L -23.2479,23.8228 L -23.1715,23.3323  L -22.0096,23.3323 L -22.1186,24.2288 L -22.3506,25.0646 L -22.7145,25.8179 L -23.2066,26.463 L -23.8324,26.9789  L -24.5804,27.3744 L -25.4487,27.6135 L -26.4349,27.6935 L -27.4175,27.6135 L -28.2771,27.3744 L -29.0224,26.9789  L -29.6385,26.463 L -30.1342,25.8205 L -30.4954,25.0796 L -30.7345,24.2402 z M -30.8479,22.725 L -30.745,21.832 L -30.5068,21.0076 L -30.1359,20.2597 L -29.6385,19.6251 L -29.0188,19.1004  L -28.2771,18.6979 L -27.4175,18.4474 L -26.4349,18.3639 L -25.4487,18.4474 L -24.5804,18.6979 L -23.8324,19.0969  L -23.2066,19.6251 L -22.7171,20.2553 L -22.3506,20.9927 L -22.1186,21.8206 L -22.0096,22.725 L -23.1715,22.725  L -23.2567,22.2231 L -23.4185,21.7521 L -23.6733,21.3267 L -24.017,20.9619 L -24.4626,20.6622 L -25.0031,20.4302  L -25.6597,20.2781 L -26.4349,20.2175 L -27.2065,20.2781 L -27.8543,20.4302 L -28.4001,20.6657 L -28.8404,20.9769  L -29.1894,21.3416 L -29.439,21.767 L -29.6068,22.2346 L -29.6859,22.725 z M -30.8479,1.45195 L -29.6736,1.45195 L -29.6411,1.70684 L -29.5884,1.95381 L -29.5181,2.19287 L -29.4275,2.4249  L -29.3159,2.64463 L -29.1806,2.85029 L -29.0224,3.04014 L -28.8404,3.21504 L -28.6339,3.37324 L -28.4001,3.51475  L -28.1408,3.63955 L -27.8543,3.74678 L -27.5414,3.83379 L -27.2004,3.89883 L -26.8312,3.94014 L -26.4349,3.95947  L -26.0323,3.94014 L -25.6597,3.89883 L -25.3169,3.83379 L -25.0031,3.74678 L -24.721,3.63955 L -24.4626,3.51475  L -24.2279,3.37324 L -24.017,3.21504 L -23.8289,3.0331 L -23.6646,2.83887 L -23.5239,2.63057 L -23.4062,2.40908  L -23.3174,2.17881 L -23.2479,1.94238 L -23.1996,1.6998 L -23.1715,1.45195 L -22.0096,1.45195 L -22.0491,1.9081  L -22.1186,2.34844 L -22.2188,2.77383 L -22.3506,3.18428 L -22.5185,3.57363 L -22.7171,3.93662 L -22.9465,4.27236  L -23.2066,4.58174 L -23.5037,4.85596 L -23.8324,5.09853 L -24.191,5.31123 L -24.5804,5.49404 L -24.9987,5.6373  L -25.447,5.73662 L -25.9269,5.79463 L -26.4349,5.81309 L -26.9411,5.79287 L -27.4175,5.7331 L -27.8631,5.63379  L -28.2771,5.49404 L -28.6664,5.31123 L -29.0224,5.09853 L -29.3467,4.85596 L -29.6385,4.58174 L -29.9039,4.27324  L -30.1342,3.94014 L -30.3319,3.58242 L -30.4954,3.19922 L -30.6316,2.78789 L -30.7362,2.35986 L -30.8083,1.91426  z M -30.8479,0.844628 L -30.8127,0.389355 L -30.745,-0.0483398 L -30.6431,-0.469336 L -30.5068,-0.872753 L -30.3381,-1.26123  L -30.1377,-1.6207 L -29.9039,-1.95293 L -29.6385,-2.25527 L -29.3467,-2.53564 L -29.0224,-2.7835 L -28.6664,-2.99883  L -28.2771,-3.18252 L -27.8622,-3.32754 L -27.4175,-3.43213 L -26.9411,-3.49541 L -26.4349,-3.5165 L -25.9269,-3.49541  L -25.4487,-3.43301 L -24.9996,-3.32842 L -24.5804,-3.18252 L -24.191,-2.99883 L -23.8324,-2.7835 L -23.5037,-2.53564  L -23.2066,-2.25527 L -22.9465,-1.95381 L -22.7171,-1.6251 L -22.5185,-1.27002 L -22.3506,-0.887695 L -22.2188,-0.483398  L -22.1186,-0.0597649 L -22.0491,0.382324 L -22.0096,0.844628 L -23.1715,0.844628 L -23.2049,0.589746 L -23.2567,0.342773  L -23.3279,0.10371 L -23.4185,-0.12832 L -23.5354,-0.348926 L -23.6733,-0.553711 L -23.8342,-0.743554 L -24.017,-0.918457  L -24.2279,-1.07666 L -24.4626,-1.21816 L -24.721,-1.34297 L -25.0031,-1.4502 L -25.3169,-1.53721 L -25.6597,-1.60225  L -26.0323,-1.64355 L -26.4349,-1.66289 L -26.8356,-1.64355 L -27.2065,-1.60225 L -27.5458,-1.53721 L -27.8543,-1.4502  L -28.1408,-1.34209 L -28.4001,-1.21465 L -28.6339,-1.06875 L -28.8404,-0.903515 L -29.0276,-0.728613 L -29.1894,-0.538769  L -29.3273,-0.333105 L -29.439,-0.113379 L -29.5339,0.117773 L -29.6068,0.354198 L -29.6569,0.596777 L -29.6859,0.844628  z M -30.8479,-24.9565 L -29.6736,-24.9565 L -29.635,-24.7096 L -29.577,-24.4705 L -29.5005,-24.2385 L -29.4038,-24.0144  L -29.2896,-23.8017 L -29.1551,-23.6013 L -28.9978,-23.4132 L -28.8176,-23.2392 L -28.6102,-23.081 L -28.3772,-22.9395  L -28.1171,-22.8146 L -27.8314,-22.7074 L -27.5238,-22.6266 L -27.189,-22.5668 L -26.826,-22.5281 L -26.4349,-22.5097  L -26.0385,-22.5281 L -25.672,-22.5668 L -25.3345,-22.6266 L -25.026,-22.7074 L -24.743,-22.8111 L -24.4854,-22.9359  L -24.2508,-23.0792 L -24.0407,-23.2392 L -23.8526,-23.4132 L -23.6883,-23.6004 L -23.5477,-23.8008 L -23.4299,-24.0144  L -23.335,-24.2437 L -23.2603,-24.4775 L -23.2058,-24.7148 L -23.1715,-24.9565 L -22.0219,-24.9565 L -22.0614,-24.5013  L -22.1335,-24.0636 L -22.2372,-23.6426 L -22.3734,-23.2392 L -22.5413,-22.8639 L -22.7408,-22.5141 L -22.9702,-22.188  L -23.2304,-21.8874 L -23.5222,-21.6132 L -23.8438,-21.3706 L -24.1963,-21.1579 L -24.5804,-20.9751 L -24.9979,-20.831  L -25.447,-20.7316 L -25.926,-20.6745 L -26.4349,-20.6561 L -26.9411,-20.6763 L -27.4175,-20.736 L -27.8631,-20.8354  L -28.2771,-20.9751 L -28.6611,-21.1579 L -29.0136,-21.3706 L -29.3361,-21.6132 L -29.6271,-21.8874 L -29.8872,-22.188  L -30.1166,-22.5141 L -30.3161,-22.8639 L -30.484,-23.2392 L -30.6211,-23.6426 L -30.7274,-24.0636 L -30.803,-24.5013  z M -30.8479,-25.5797 L -30.7679,-26.3962 L -30.5868,-27.1441 L -30.3038,-27.8244 L -29.9206,-28.4361 L -29.4864,-27.8051  L -29.2693,-27.4904 L -29.0522,-27.1749 L -29.1946,-26.9974 L -29.3186,-26.8137 L -29.424,-26.6247 L -29.5093,-26.4305  L -29.5778,-26.2292 L -29.6297,-26.02 L -29.6657,-25.8038 L -29.6859,-25.5797 z M -30.7187,37.524 L -30.7187,35.7012 L -22.0685,35.7012 L -22.0685,37.524 z M -30.7187,35.078 L -30.7187,34.3028 L -30.6747,33.5927 L -30.542,32.8904 L -30.3223,32.2286 L -30.0146,31.6441  L -29.6244,31.1388 L -29.1577,30.7477 L -28.6321,30.4857 L -28.0424,30.3979 L -27.174,30.5385 L -26.4463,30.9604  L -25.8741,31.6213 L -25.4725,32.48 L -23.77,31.2038 L -22.0685,29.9268 L -22.0685,31.8568 L -23.6355,32.9124  L -25.2026,33.9688 L -25.1991,34.0181 L -25.1903,34.0752 L -25.1903,35.078 L -26.223,35.078 L -26.223,34.0444  L -26.2441,33.7104 L -26.3057,33.3765 L -26.4234,33.0565 L -26.5992,32.7683 L -26.8365,32.5213 L -27.1503,32.3279  L -27.5555,32.2022 L -28.0424,32.1609 L -28.2683,32.1794 L -28.524,32.2365 L -28.7965,32.3552 L -29.0522,32.5556  L -29.2869,32.8333 L -29.4741,33.2095 L -29.6068,33.7025 L -29.6508,34.3336 L -29.6508,35.078 z M -30.7187,15.7351 L -30.7187,13.9113 L -22.0685,13.9113 L -22.0685,15.7351 z M -30.7187,13.2891 L -30.7187,12.5139 L -30.6861,11.8107 L -30.5895,11.1313 L -30.4225,10.5003 L -30.1781,9.9457  L -29.8529,9.48252 L -29.439,9.12568 L -28.9485,8.89893 L -28.3711,8.82158 L -28.0222,8.85938 L -27.7022,8.97363  L -27.4263,9.14414 L -27.1854,9.35332 L -26.9807,9.60029 L -26.8102,9.88506 L -26.6924,10.1698 L -26.6221,10.4476  L -26.5605,10.0863 L -26.4463,9.70312 L -26.2758,9.32256 L -26.0473,8.97363 L -25.7599,8.65459 L -25.4136,8.39619  L -25.0198,8.22656 L -24.5681,8.16768 L -24.0231,8.2248 L -23.5591,8.39619 L -23.1715,8.65459 L -22.8551,8.97363  L -22.6116,9.32695 L -22.4209,9.71807 L -22.2855,10.1092 L -22.1862,10.4933 L -22.1186,10.8387 L -22.0799,11.1463  L -22.0685,11.3854 L -22.0685,13.2891 L -23.1012,13.2891 L -23.1012,11.6323 L -23.2014,10.9143 L -23.5002,10.3711  L -23.9669,10.0292 L -24.5681,9.91582 L -25.1525,10.0336 L -25.6368,10.3869 L -25.962,10.9679 L -26.071,11.7694  L -26.071,13.2891 L -27.0211,13.2891 L -27.0211,12.5596 L -27.0246,12.2212 L -27.0334,11.8758 L -27.0712,11.5374  L -27.1626,11.2219 L -27.3208,10.9485 L -27.5616,10.7358 L -27.9062,10.5908 L -28.3711,10.5381 L -28.5855,10.5574  L -28.8053,10.6146 L -29.0285,10.7297 L -29.228,10.9187 L -29.3977,11.1955 L -29.533,11.5717 L -29.6209,12.0656  L -29.6508,12.6958 L -29.6508,13.2891 z M -30.7187,-5.46152 L -30.7187,-13.986 L -29.7562,-13.986 L -29.7562,-10.6427 L -22.0685,-10.6427 L -22.0685,-8.804  L -29.7562,-8.804 L -29.7562,-5.46152 z M -30.7187,-16.2044 L -30.7187,-18.058 L -22.0685,-18.058 L -22.0685,-16.2044 z M -30.7063,-34.5445 L -30.7063,-36.3524 L -22.0685,-40.2425 L -22.0685,-38.3581 L -28.5469,-35.456 L -22.0685,-32.523  L -22.0685,-30.6237 z M -24.815,-34.4224 L -24.815,-36.4588 L -23.8641,-36.8991 L -23.8641,-33.997 z M -23.8052,-27.1749 L -23.5916,-27.4904 L -23.3771,-27.8051 L -23.1627,-28.1206 L -22.9491,-28.4361 L -22.8146,-28.1865  L -22.5642,-27.8244 L -22.4095,-27.4931 L -22.2794,-27.1441 L -22.1748,-26.7785 L -22.0948,-26.3962 L -22.0403,-25.9963  L -22.0096,-25.5797 L -23.1715,-25.5797 L -23.197,-25.7467 L -23.2365,-26.02 L -23.291,-26.2292 L -23.3596,-26.4305  L -23.4448,-26.6309 L -23.5477,-26.8216 L -23.6681,-27.0026 z M -16.679,3.43652 L -16.6236,3.39346 L -5.16445,-0.573047 L 10.2665,-5.98799 L 10.3623,-7.87588 L 10.3623,-9.72773  L 11.1199,-9.72773 L 11.1199,3.2168 L 10.3623,3.2168 L 10.3623,-2.6209 L 8.96836,-2.17529 L 4.52637,-0.734765  L -5.48174,2.52949 L -12.6422,4.93242 L -16.6544,3.49541 z M -16.5085,35.753 L -16.3881,33.1172 L -6.4415,32.7568 L -4.05791,32.7472 L 3.09463,32.7208 L 3.2291,32.6821  L 3.63252,32.5687 L 4.68369,32.1486 L 5.50811,31.5448 L 6.11543,30.7477 L 6.51445,29.7483 L 6.63311,29.0162  L 6.67266,28.1065 L 6.63311,27.2004 L 6.51445,26.4762 L 6.33867,25.9269 L 6.13037,25.4707 L 5.86934,25.0708  L 5.53623,24.692 L 4.97373,24.2218 L 4.31807,23.8685 L 3.54023,23.6197 L 2.60947,23.4633 L 1.7376,23.4334  L -0.223242,23.4114 L -3.16406,23.3974 L -6.97588,23.3921 L -16.1209,23.3095 L -16.4979,20.373 L -16.4979,17.898  L -16.2545,17.6836 L -16.011,17.4709 L -6.21914,17.4709 L -0.0922852,17.4753 L 3.13154,17.5157 L 4.63535,17.6291  L 5.60478,17.8532 L 6.29121,18.0835 L 7.02861,18.4078 L 7.73877,18.7893 L 8.3417,19.1865 L 9.59502,20.3783  L 10.5855,21.8646 L 11.3106,23.6391 L 11.7677,25.6957 L 11.8521,26.5702 L 11.9004,27.6627 L 11.9057,28.771  L 11.8644,29.6921 L 11.8705,29.6921 L 11.076,33.2771 L 9.42451,36.0088 L 6.96797,37.8281 L 3.75908,38.6789  L 2.76768,38.7044 L 0.549316,38.7246 L -2.60156,38.7396 L -6.39053,38.7448 L -16.3846,38.388 L -16.505,35.7521  z M -16.4927,-13.4517 L -16.4927,-15.7843 L -16.4883,-17.3654 L -16.4733,-18.3419 L -16.4435,-18.8648 L -16.3925,-19.0854  L -16.0699,-19.3983 L -15.2648,-20.1085 L -14.0977,-21.1104 L -12.6923,-22.2979 L -9.79277,-24.7307 L -8.32939,-25.977  L -7.81172,-26.4665 L -7.74756,-26.6282 L -7.93213,-26.862 L -8.58691,-27.4623 L -9.86836,-28.5627 L -11.9312,-30.3012  L -13.5686,-31.6793 L -14.9353,-32.8359 L -15.8889,-33.6489 L -16.2861,-33.9979 L -16.3292,-34.0444 L -16.3723,-34.0901  L -16.4153,-34.1367 L -16.4584,-34.1824 L -16.4628,-34.9752 L -16.4681,-35.768 L -16.4725,-36.5607 L -16.4777,-37.3535  L -16.4839,-39.0437 L -16.4751,-40.0245 L -16.4443,-40.5044 L -16.3854,-40.6934 L -16.1394,-40.914 L -14.7674,-41.0194  L -10.7525,-41.0493 L -2.57959,-41.0405 L 10.6479,-41.0229 L 10.8246,-40.8305 L 10.8835,-40.7654 L 11.119,-40.5088  L 11.119,-38.1252 L 11.1146,-36.9105 L 11.0997,-36.1512 L 11.0681,-35.7284 L 11.0153,-35.5236 L 10.8448,-35.2661  L 9.90615,-35.1396 L 7.07344,-35.0903 L 1.22344,-35.0666 L -1.12148,-35.0587 L -8.15537,-35.0323 L -6.98467,-34.0286  L -5.81396,-33.0258 L -4.64414,-32.0221 L -3.47344,-31.0192 L -1.50029,-29.3194 L -0.0140619,-28.0213 L 0.929882,-27.1723  L 1.27881,-26.8216 L 1.30693,-26.7249 L 1.31309,-26.6291 L 1.29727,-26.5298 L 1.25947,-26.4182 L 0.958886,-26.0956  L 0.112499,-25.3266 L -1.33857,-24.0574 L -3.45586,-22.2346 L -5.25498,-20.6903 L -6.73506,-19.4142 L -7.74228,-18.5396  L -8.12461,-18.1995 L -7.58232,-18.1679 L -5.87637,-18.1459 L -2.95488,-18.1327 L 1.2331,-18.1283 L 10.6356,-18.1283  L 10.8044,-17.978 L 10.8606,-17.9271 L 10.916,-17.877 L 11.0848,-17.7267 L 11.0936,-16.4927 L 11.0971,-15.8766  L 11.1015,-15.2596 L 11.105,-13.986 L 11.0953,-13.2082 L 11.0663,-12.7916 L 11.0136,-12.6035 L 10.807,-12.3618  L 9.48955,-12.2458 L 5.49141,-12.2089 L -2.75801,-12.2071 L -16.0233,-12.2071 L -16.1402,-12.324 L -16.1991,-12.382  L -16.2571,-12.4409 L -16.316,-12.4989 L -16.374,-12.5578 L -16.4329,-12.6158 L -16.4918,-12.6747 z M -11.5321,5.32353 L -10.3737,4.94033 L -9.52559,5.23301 L -3.49541,7.26855 L 4.45869,9.94658 L 8.80488,11.4073  L 10.2674,11.8714 L 10.3623,9.97207 L 10.3623,8.03672 L 11.1199,8.03672 L 11.1199,16.5067 L 10.3623,16.5067  L 10.3623,13.0878 L 8.58955,12.4242 L -4.88496,7.6623 z M 0.567773,1.32803 L 1.48008,1.02656 L 1.48008,8.15361 L 0.584473,7.85742 L 0.584473,4.5835 z M 18.1723,-10.4528 L 18.1723,-14.1513 L 31.0509,-14.1513 L 31.0509,-10.4528 z M 18.1723,-15.0987 L 18.1723,-15.4995 L 18.2118,-16.5173 L 18.3313,-17.441 L 18.5309,-18.2716 L 18.8095,-19.009  L 19.3052,-19.8334 L 19.931,-20.4214 L 20.6877,-20.7747 L 21.5736,-20.8925 L 22.4024,-20.7896 L 23.1196,-20.4829  L 23.7261,-19.9714 L 24.2209,-19.2542 L 24.7122,-19.9714 L 25.316,-20.4829 L 26.0314,-20.7896 L 26.8594,-20.8925  L 31.0509,-20.8925 L 31.0509,-17.1598 L 26.8594,-17.1598 L 26.463,-17.1343 L 26.1079,-17.0596 L 25.7941,-16.9339  L 25.5226,-16.759 L 25.2791,-16.5173 L 25.1051,-16.2264 L 25.0005,-15.8871 L 24.9662,-15.4995 L 24.9662,-15.0987  L 23.458,-15.0987 L 23.458,-15.4995 L 23.4237,-15.8871 L 23.3191,-16.2264 L 23.1451,-16.5173 L 22.9017,-16.759  L 22.6301,-16.9339 L 22.3189,-17.0596 L 21.9665,-17.1343 L 21.5736,-17.1598 L 21.1772,-17.1343 L 20.8222,-17.0596  L 20.5084,-16.9339 L 20.2368,-16.759 L 19.9934,-16.5173 L 19.8193,-16.2264 L 19.7147,-15.8871 L 19.6805,-15.4995  L 19.6805,-15.0987 z M 18.1811,37.9802 L 18.1811,33.3448 L 31.0421,28.5091 L 31.0509,32.2084 L 31.0421,32.2198 L 25.5498,34.2809  L 31.0509,34.2809 L 31.0509,37.9802 z M 18.1811,27.4289 L 18.1811,22.7936 L 31.0509,22.7936 L 31.0509,26.4929 L 25.5498,26.4929 L 29.7949,28.0969  L 24.8678,29.947 z M 18.1811,14.8649 L 18.1811,11.1656 L 31.0509,15.9451 L 31.0509,19.6444 z M 18.1811,3.20361 L 18.1811,-0.495703 L 31.0509,-0.495703 L 31.0509,3.20361 z M 18.1811,-1.43174 L 18.1811,-1.84394 L 18.2215,-2.86084 L 18.341,-3.78545 L 18.5396,-4.61602 L 18.8183,-5.35342  L 19.314,-6.17256 L 19.938,-6.75703 L 20.6912,-7.10859 L 21.5736,-7.22549 L 27.6583,-7.22549 L 28.5451,-7.10859  L 29.301,-6.75703 L 29.9268,-6.17256 L 30.4225,-5.35342 L 30.6976,-4.62041 L 30.8936,-3.79072 L 31.0113,-2.86523  L 31.0509,-1.84394 L 31.0509,-1.43174 L 29.5436,-1.43174 L 29.5436,-1.84394 L 29.5084,-2.23154 L 29.4038,-2.5708  L 29.2307,-2.86084 L 28.9872,-3.10254 L 28.7156,-3.27832 L 28.4036,-3.404 L 28.0512,-3.47871 L 27.6583,-3.5042  L 27.6583,-3.49277 L 21.5736,-3.49277 L 21.5736,-3.5042 L 21.1808,-3.47871 L 20.8292,-3.404 L 20.5172,-3.27832  L 20.2456,-3.10254 L 20.0021,-2.86084 L 19.8281,-2.5708 L 19.7235,-2.23154 L 19.6893,-1.84394 L 19.6893,-1.43174  z M 18.1811,-24.0855 L 18.1811,-27.7849 L 31.0509,-27.7849 L 31.0509,-24.0855 z M 18.1811,-30.9902 L 18.1811,-34.6887 L 31.0509,-34.6887 L 31.0509,-30.9902 z M 18.1811,-35.6247 L 18.1811,-36.0369 L 18.2215,-37.0547 L 18.341,-37.9784 L 18.5396,-38.809 L 18.8183,-39.5464  L 19.314,-40.3655 L 19.938,-40.9509 L 20.6912,-41.3016 L 21.5736,-41.4185 L 27.6583,-41.4185 L 28.5451,-41.3016  L 29.301,-40.9509 L 29.9268,-40.3655 L 30.4225,-39.5464 L 30.6976,-38.8134 L 30.8936,-37.9837 L 31.0113,-37.0582  L 31.0509,-36.0369 L 31.0509,-35.6247 L 29.5436,-35.6247 L 29.5436,-36.0369 L 29.5084,-36.4245 L 29.4038,-36.7638  L 29.2307,-37.0547 L 28.9872,-37.2964 L 28.7156,-37.4713 L 28.4036,-37.597 L 28.0512,-37.6717 L 27.6583,-37.6972  L 27.6583,-37.6857 L 21.5736,-37.6857 L 21.5736,-37.6972 L 21.1808,-37.6717 L 20.8292,-37.597 L 20.5172,-37.4713  L 20.2456,-37.2964 L 20.0021,-37.0547 L 19.8281,-36.7638 L 19.7235,-36.4245 L 19.6893,-36.0369 L 19.6893,-35.6247  z M 19.51,10.72 L 31.0509,6.43008 L 31.0509,10.1294 L 28.7446,10.9872 L 28.7446,14.1513 L 27.2364,13.5949  L 27.2364,11.5444 L 24.4907,12.5692 z "
     stroke="black"
     fill="lightgray"
     stroke-width="0.5"
     id="path4"
     style="stroke:none;fill:#000000" />
</svg>
