<?xml version="1.0" encoding="UTF-8" standalone="no"?>
<!-- Created with Inkscape (http://www.inkscape.org/) -->

<svg
   xmlns:dc="http://purl.org/dc/elements/1.1/"
   xmlns:cc="http://creativecommons.org/ns#"
   xmlns:rdf="http://www.w3.org/1999/02/22-rdf-syntax-ns#"
   xmlns:svg="http://www.w3.org/2000/svg"
   xmlns="http://www.w3.org/2000/svg"
   xmlns:sodipodi="http://sodipodi.sourceforge.net/DTD/sodipodi-0.dtd"
   xmlns:inkscape="http://www.inkscape.org/namespaces/inkscape"
   width="210mm"
   height="297mm"
   viewBox="0 0 210 297"
   version="1.1"
   id="svg8"
   inkscape:version="0.91 r13725"
   sodipodi:docname="camiseta_crm_front.svg">
  <defs
     id="defs2">
    <clipPath
       clipPathUnits="userSpaceOnUse"
       id="clipPath3726">
      <rect
         style="fill:#000000;fill-opacity:1;stroke:none;stroke-width:0.26458332;stroke-miterlimit:4;stroke-dasharray:none;stroke-opacity:1"
         id="rect3728"
         width="355.29764"
         height="204.86308"
         x="-153.45833"
         y="30.90476"
         rx="0.088879623" />
    </clipPath>
    <clipPath
       clipPathUnits="userSpaceOnUse"
       id="clipPath4537">
      <rect
         style="fill:none;fill-opacity:1;stroke:#000000;stroke-width:0.26458332;stroke-miterlimit:4;stroke-dasharray:none;stroke-opacity:1"
         id="rect4539"
         width="77.485123"
         height="76.729164"
         x="37.797619"
         y="132.95834"
         rx="0.088879623" />
    </clipPath>
    <clipPath
       clipPathUnits="userSpaceOnUse"
       id="clipPath4537-3">
      <rect
         style="fill:none;fill-opacity:1;stroke:#000000;stroke-width:0.26458332;stroke-miterlimit:4;stroke-dasharray:none;stroke-opacity:1"
         id="rect4539-8"
         width="77.485123"
         height="76.729164"
         x="37.797619"
         y="132.95834"
         rx="0.088879623" />
    </clipPath>
    <clipPath
       clipPathUnits="userSpaceOnUse"
       id="clipPath4537-3-9">
      <rect
         style="fill:none;fill-opacity:1;stroke:#000000;stroke-width:0.26458332;stroke-miterlimit:4;stroke-dasharray:none;stroke-opacity:1"
         id="rect4539-8-0"
         width="77.485123"
         height="76.729164"
         x="37.797619"
         y="132.95834"
         rx="0.088879623" />
    </clipPath>
    <clipPath
       clipPathUnits="userSpaceOnUse"
       id="clipPath4537-3-7">
      <rect
         style="fill:none;fill-opacity:1;stroke:#000000;stroke-width:0.26458332;stroke-miterlimit:4;stroke-dasharray:none;stroke-opacity:1"
         id="rect4539-8-3"
         width="77.485123"
         height="76.729164"
         x="37.797619"
         y="132.95834"
         rx="0.088879623" />
    </clipPath>
  </defs>
  <sodipodi:namedview
     id="base"
     pagecolor="#ffffff"
     bordercolor="#666666"
     borderopacity="1.0"
     inkscape:pageopacity="0.0"
     inkscape:pageshadow="2"
     inkscape:zoom="0.35"
     inkscape:cx="103.52998"
     inkscape:cy="883.98935"
     inkscape:document-units="mm"
     inkscape:current-layer="layer1"
     showgrid="false"
     inkscape:window-width="1280"
     inkscape:window-height="995"
     inkscape:window-x="1280"
     inkscape:window-y="0"
     inkscape:window-maximized="1"
     inkscape:snap-global="false"
     units="mm" />
  <metadata
     id="metadata5">
    <rdf:RDF>
      <cc:Work
         rdf:about="">
        <dc:format>image/svg+xml</dc:format>
        <dc:type
           rdf:resource="http://purl.org/dc/dcmitype/StillImage" />
        <dc:title />
      </cc:Work>
    </rdf:RDF>
  </metadata>
  <g
     inkscape:label="Layer 1"
     inkscape:groupmode="layer"
     id="layer1">
    <g
       aria-label="I       ROBOTS"
       transform="matrix(0,-1,1,0,0,-7.3377773)"
       style="font-style:normal;font-variant:normal;font-weight:normal;font-stretch:normal;font-size:11.67158794px;line-height:125%;font-family:arcitectura;-inkscape-font-specification:arcitectura;letter-spacing:0px;word-spacing:0px;fill:#000000;fill-opacity:1;stroke:none;stroke-width:0.29178971px;stroke-linecap:butt;stroke-linejoin:miter;stroke-opacity:1"
       id="text140">
      <path
         d="m -285.74949,111.93262 9.08195,0 0,-39.227482 -9.08195,0 z"
         style="font-style:normal;font-variant:normal;font-weight:normal;font-stretch:normal;font-size:56.02362442px;font-family:'50 Blizzards';-inkscape-font-specification:'50 Blizzards';stroke-width:0.29178971px"
         id="path864"
         inkscape:connector-curvature="0" />
      <path
         d="m -155.64775,91.115245 q 4.02123,-2.680818 4.02123,-8.069809 0,-5.799321 -4.62305,-8.425428 -3.39205,-1.942225 -8.61691,-1.942225 l -0.98479,0 0,4.595688 0.98479,0 q 2.02429,0 3.09114,1.696027 0.98479,1.531896 0.98479,4.075938 0,2.516686 -0.98479,4.048582 -1.06685,1.696028 -3.09114,1.696028 l -0.98479,0 0,4.595688 0.98479,0 q 2.02429,0 3.09114,1.696027 0.98479,1.531896 0.98479,4.075938 l 0,0 0,12.774921 9.16403,0 0,-12.774921 q 0,-5.388991 -4.02123,-8.042454 z m -21.61068,-18.437462 9.08196,0 0,39.254837 -9.08196,0 z"
         style="font-style:normal;font-variant:normal;font-weight:normal;font-stretch:normal;font-size:56.02362442px;font-family:'50 Blizzards';-inkscape-font-specification:'50 Blizzards';stroke-width:0.29178971px"
         id="path866"
         inkscape:connector-curvature="0" />
      <path
         d="m -136.08872,72.677783 -0.84802,0 0,0.02736 q -0.49239,0 -0.98479,0.05471 l 0,4.978661 q 0.60182,-0.355618 1.39512,-0.437684 1.83281,0.191487 2.79024,1.832804 0.87537,1.504541 0.87537,3.911806 l 0,18.51952 q 0,2.40727 -0.87537,3.91181 -0.95743,1.64132 -2.79024,1.8328 -0.7933,-0.0821 -1.39512,-0.43768 l 0,4.97866 q 0.4924,0.0547 0.98479,0.0547 l 0,0.0274 0.84802,0 0,-0.0274 q 5.03337,-0.16413 8.17923,-2.13371 4.21271,-2.65346 4.21271,-8.20659 l 0,-18.519514 q 0,-5.525768 -4.21271,-8.17923 -3.17322,-1.996936 -8.17923,-2.161068 z m -4.15801,38.899217 q -3.93916,-0.73859 -6.237,-2.84495 -2.84495,-2.62611 -2.84495,-7.16709 l 0,-18.519524 q 0,-8.288652 9.08195,-10.012035 z"
         style="font-style:normal;font-variant:normal;font-weight:normal;font-stretch:normal;font-size:56.02362442px;font-family:'50 Blizzards';-inkscape-font-specification:'50 Blizzards';stroke-width:0.29178971px"
         id="path868"
         inkscape:connector-curvature="0" />
      <path
         d="m -99.514709,91.115245 q 4.021226,-2.653463 4.021226,-8.069809 0,-5.771965 -4.595687,-8.398073 -3.39206,-1.942225 -8.61692,-1.942225 l -1.01214,0 0,4.595688 1.01214,0 q 2.0243,0 3.09115,1.696028 0.98479,1.531896 0.98479,4.048582 0,2.544041 -0.98479,4.075937 -1.06685,1.696028 -3.09115,1.696028 l -1.01214,0 0,4.595688 1.01214,0 q 2.0243,0 3.09115,1.696028 0.98479,1.531896 0.98479,4.048582 l 0,2.434621 q 0,2.51669 -0.98479,4.04858 -1.06685,1.69603 -3.09115,1.69603 l -1.01214,0 0,4.59569 1.01214,0 q 5.25222,0 8.61692,-1.91487 4.595687,-2.62611 4.595687,-8.42543 l 0,-2.434621 q 0,-5.361636 -4.021226,-8.042454 z m -21.583321,-18.410107 9.08196,0 0,39.227482 -9.08196,0 z"
         style="font-style:normal;font-variant:normal;font-weight:normal;font-stretch:normal;font-size:56.02362442px;font-family:'50 Blizzards';-inkscape-font-specification:'50 Blizzards';stroke-width:0.29178971px"
         id="path870"
         inkscape:connector-curvature="0" />
      <path
         d="m -79.62742,72.677783 -0.848013,0 0,0.02736 q -0.492396,0 -0.984791,0.05471 l 0,4.978661 q 0.601817,-0.355618 1.39512,-0.437684 1.832804,0.191487 2.790239,1.832804 0.875369,1.504541 0.875369,3.911806 l 0,18.51952 q 0,2.40727 -0.875369,3.91181 -0.957435,1.64132 -2.790239,1.8328 -0.793303,-0.0821 -1.39512,-0.43768 l 0,4.97866 q 0.492395,0.0547 0.984791,0.0547 l 0,0.0274 0.848013,0 0,-0.0274 q 5.033373,-0.16413 8.179231,-2.13371 4.212714,-2.65346 4.212714,-8.20659 l 0,-18.519514 q 0,-5.525768 -4.212714,-8.17923 -3.173213,-1.996936 -8.179231,-2.161068 z M -83.785423,111.577 q -3.939161,-0.73859 -6.237005,-2.84495 -2.84495,-2.62611 -2.84495,-7.16709 l 0,-18.519524 q 0,-8.288652 9.081955,-10.012035 z"
         style="font-style:normal;font-variant:normal;font-weight:normal;font-stretch:normal;font-size:56.02362442px;font-family:'50 Blizzards';-inkscape-font-specification:'50 Blizzards';stroke-width:0.29178971px"
         id="path872"
         inkscape:connector-curvature="0" />
      <path
         d="m -44.804144,77.300826 6.045518,0 0,-4.595688 -6.045518,0 z m -19.750516,-4.595688 0,4.595688 8.370717,0 0,34.631794 9.081955,0 0,-39.227482 z"
         style="font-style:normal;font-variant:normal;font-weight:normal;font-stretch:normal;font-size:56.02362442px;font-family:'50 Blizzards';-inkscape-font-specification:'50 Blizzards';stroke-width:0.29178971px"
         id="path874"
         inkscape:connector-curvature="0" />
      <path
         d="m -26.612869,101.59232 -9.081955,0 q 0,8.28865 9.081955,9.98468 z m 4.130648,-12.774919 q -1.012145,0 -1.832804,-0.46504 l 0,5.006017 q 0.519751,0.02736 1.012146,0.02736 l 0,0.02736 q 1.996936,0 3.091147,1.696028 0.957435,1.531896 0.957435,4.048582 l 0,2.434622 0.02736,0 q 0,2.37991 -0.902724,3.88445 -0.957435,1.66867 -2.762884,1.8328 -0.793303,-0.0821 -1.422475,-0.43768 l 0,4.97866 q 0.519751,0.0547 1.012146,0.0547 l 0,0.0274 0.820658,0 0,-0.0274 q 5.033373,-0.16413 8.179231,-2.13371 4.212714,-2.65346 4.212714,-8.17923 l 0,-2.434622 q 0,-5.498412 -4.212714,-8.151875 -3.145858,-1.996936 -8.179231,-2.188423 z m -13.212603,-5.74461 q 0,8.288652 9.081955,9.984679 l 0,-19.969358 q -3.939161,0.738593 -6.237005,2.84495 -2.84495,2.598752 -2.84495,7.139729 z m 12.802274,-5.74461 q -0.793303,0.08207 -1.422475,0.437685 l 0,-4.978662 q 0.519751,-0.05471 1.012146,-0.05471 l 0,-0.02736 0.820658,0 0,0.02736 q 5.033373,0.164132 8.179231,2.161068 4.212714,2.653462 4.212714,8.17923 l -9.136666,0 q 0,-2.407265 -0.902724,-3.911806 -0.957435,-1.641317 -2.762884,-1.832804 z"
         style="font-style:normal;font-variant:normal;font-weight:normal;font-stretch:normal;font-size:56.02362442px;font-family:'50 Blizzards';-inkscape-font-specification:'50 Blizzards';stroke-width:0.29178971px"
         id="path876"
         inkscape:connector-curvature="0" />
    </g>
    <path
       inkscape:connector-curvature="0"
       id="path4764-3-9-7"
       d="m 111.93377,237.82039 -2.61976,2.58742 -2.9076,-1.99513 c -1.59921,-1.09734 -3.02263,-1.99515 -3.16313,-1.99515 -0.43374,0 -5.253871,1.97334 -5.514358,2.25759 -0.135207,0.14745 -0.509948,1.74909 -0.832745,3.55922 -0.322908,1.81012 -0.665115,3.36917 -0.76051,3.46455 -0.09484,0.0954 -1.843817,0.14624 -3.885591,0.11303 l -3.712227,-0.0604 -0.663792,-3.56025 c -0.365036,-1.95816 -0.762605,-3.65427 -0.883365,-3.76916 -0.261039,-0.24819 -4.863578,-2.22421 -5.180751,-2.22421 -0.12076,0 -1.574066,0.93696 -3.22963,2.08213 l -3.010057,2.08211 -2.735122,-2.73188 -2.735122,-2.73187 2.162093,-3.17692 2.161983,-3.17694 -0.941484,-2.37767 c -0.517888,-1.30772 -1.056178,-2.50333 -1.196457,-2.65689 -0.14017,-0.15353 -1.87999,-0.59827 -3.866182,-0.98829 l -3.611307,-0.70911 0,-3.84342 0,-3.84341 3.611307,-0.70913 c 1.986192,-0.39003 3.726012,-0.83475 3.866182,-0.9883 0.140279,-0.15357 0.6789,-1.34976 1.197009,-2.65823 l 0.942035,-2.37909 -2.159005,-3.17916 -2.158895,-3.17916 2.731483,-2.72825 2.731482,-2.72825 3.010057,2.08211 c 1.655564,1.14516 3.10887,2.0821 3.22963,2.0821 0.317173,0 4.919712,-1.97601 5.180751,-2.22418 0.12065,-0.11485 0.518329,-1.81102 0.883365,-3.76917 l 0.663792,-3.56025 3.712227,-0.0604 c 2.041774,-0.0332 3.790307,0.0177 3.885591,0.11289 0.09595,0.0954 0.437602,1.65444 0.76051,3.46455 0.322797,1.81014 0.697538,3.41178 0.832745,3.55922 0.260487,0.28426 5.080618,2.2576 5.514358,2.2576 0.1405,0 1.56392,-0.89781 3.16313,-1.99514 l 2.9076,-1.99514 2.61976,2.58741 c 1.44074,1.42308 2.61966,2.71162 2.61966,2.8634 0,0.15178 -0.84003,1.50641 -1.86687,3.01029 -1.02673,1.50386 -1.86675,2.85941 -1.86675,3.01229 0,0.15292 0.30416,0.81697 0.67592,1.47568 0.40253,0.71329 0.59564,1.27792 0.47752,1.39611 -0.24096,0.24094 -11.68114,5.01874 -12.017058,5.01874 -0.130796,0 -0.680224,-0.5871 -1.22083,-1.30469 -2.366337,-3.14042 -6.109884,-4.14774 -9.548499,-2.56933 -4.668709,2.14306 -5.881378,8.43473 -2.350236,12.19355 3.35447,3.57076 8.857578,3.17052 11.898735,-0.86538 0.540606,-0.71757 1.090034,-1.30469 1.22083,-1.30469 0.335918,0 11.776098,4.77781 12.017058,5.01875 0.11812,0.11822 -0.075,0.68283 -0.47752,1.39613 -0.37176,0.65872 -0.67592,1.32274 -0.67592,1.47565 0,0.15289 0.84002,1.50844 1.86675,3.0123 1.02684,1.50388 1.86687,2.85851 1.86687,3.01029 0,0.15178 -1.17892,1.44032 -2.61966,2.8634 z"
       style="fill:#000000;stroke-width:0.21962348" />
    <g
       aria-label="crm.ii.uam.es"
       transform="matrix(0,-1,1,0,0,-7.3377773)"
       style="font-style:normal;font-variant:normal;font-weight:normal;font-stretch:normal;font-size:6.58079767px;line-height:125%;font-family:arcitectura;-inkscape-font-specification:arcitectura;letter-spacing:0px;word-spacing:0px;fill:#000000;fill-opacity:1;stroke:none;stroke-width:0.16451991px;stroke-linecap:butt;stroke-linejoin:miter;stroke-opacity:1"
       id="text4786-4-6">
      <path
         d="m -232.49752,144.70905 q -0.46272,-0.55525 -1.2956,-1.01796 -0.80203,-0.49356 -2.15932,-0.58611 l 0,-2.96136 q 1.69661,0.0925 2.89966,0.74034 1.2339,0.61695 2.22102,1.82001 z m -3.45492,9.96374 q 1.11051,-0.12339 1.88169,-0.52441 0.80204,-0.43186 1.51153,-0.98712 l 1.38814,2.00509 q -0.95628,1.20305 -2.06678,1.85085 -1.11051,0.61695 -2.71458,0.70949 z m -8.60645,-5.76848 q 0,-1.75831 0.49356,-3.30068 0.52441,-1.54237 1.51152,-2.71458 0.98712,-1.1722 2.31357,-1.8817 1.35729,-0.74034 3.02305,-0.86373 l 0,2.99221 q -1.54237,0.33932 -2.4678,1.91255 -0.92542,1.54237 -0.92542,3.76339 0,1.14136 0.21593,2.15932 0.24678,0.98712 0.67864,1.75831 0.43187,0.77119 1.04882,1.29559 0.6478,0.52441 1.44983,0.6478 l 0,3.0539 q -1.69661,-0.0925 -3.0539,-0.80203 -1.35729,-0.74034 -2.31356,-1.91255 -0.95627,-1.20305 -1.48068,-2.77627 -0.49356,-1.57322 -0.49356,-3.33153 z"
         style="font-style:normal;font-variant:normal;font-weight:normal;font-stretch:normal;font-size:31.58782578px;font-family:'Allerta Stencil';-inkscape-font-specification:'Allerta Stencil';stroke-width:0.16451991px"
         id="path837"
         inkscape:connector-curvature="0" />
      <path
         d="m -222.65718,140.20532 0.40102,1.78915 0,9.43933 0,0.0617 0,6.1078 -3.73254,0 0,-17.39798 z m 1.66577,0.77119 q 0.77119,-0.43187 1.85085,-0.6478 1.07966,-0.24678 2.93051,-0.24678 l 0,3.88678 q -0.86373,-0.24678 -2.09763,-0.27762 -0.67865,0 -1.38814,0.12339 -0.67864,0.0925 -1.29559,0.30847 z"
         style="font-style:normal;font-variant:normal;font-weight:normal;font-stretch:normal;font-size:31.58782578px;font-family:'Allerta Stencil';-inkscape-font-specification:'Allerta Stencil';stroke-width:0.16451991px"
         id="path839"
         inkscape:connector-curvature="0" />
      <path
         d="m -208.86835,140.20532 0.40102,1.78915 0,15.60883 -3.7634,0 0,-17.39798 z m 14.56001,-0.18509 q 1.04882,0 1.97424,0.43187 0.92543,0.40102 1.60407,1.1722 0.70949,0.77119 1.07966,1.85085 0.40102,1.04882 0.40102,2.28272 l 0,11.84543 -3.7017,0 0,-9.47018 q 0,-1.04881 -0.0308,-1.97424 0,-0.95627 -0.18509,-1.69661 -0.18508,-0.74034 -0.61695,-1.14135 -0.40102,-0.43187 -1.26475,-0.43187 -0.21593,0 -0.92542,0.0925 -0.70949,0.0925 -1.63492,0.52441 l 0,-2.43695 q 0.83288,-0.49356 1.69661,-0.77119 0.86373,-0.27763 1.60407,-0.27763 z m -5.33661,2.37526 q 0.37017,0.55526 0.52441,1.20305 0.18508,0.61695 0.21593,1.2956 0.0617,0.67864 0.0308,1.41898 0,0.70949 0,1.51153 l 0,9.77865 -3.73255,0 0,-9.47018 q 0,-1.04881 0,-1.97424 0,-0.95627 -0.18509,-1.69661 -0.18508,-0.74034 -0.61694,-1.14135 -0.43187,-0.43187 -1.26475,-0.43187 -0.37017,0 -1.11051,0.15424 -0.70949,0.12339 -1.41899,0.46271 l 0,-2.43695 q 0.74034,-0.43187 1.57323,-0.70949 0.86373,-0.27763 1.69661,-0.27763 1.41898,0 2.37525,0.5861 0.98712,0.5861 1.91255,1.72746 z"
         style="font-style:normal;font-variant:normal;font-weight:normal;font-stretch:normal;font-size:31.58782578px;font-family:'Allerta Stencil';-inkscape-font-specification:'Allerta Stencil';stroke-width:0.16451991px"
         id="path841"
         inkscape:connector-curvature="0" />
      <path
         d="m -181.13646,155.50567 q 0,0.92543 -0.6478,1.57322 -0.64779,0.6478 -1.57322,0.6478 -0.92542,0 -1.57322,-0.6478 -0.61695,-0.64779 -0.61695,-1.57322 0,-0.92542 0.6478,-1.54237 0.64779,-0.6478 1.54237,-0.6478 0.92543,0 1.57322,0.6478 0.6478,0.61695 0.6478,1.54237 z"
         style="font-style:normal;font-variant:normal;font-weight:normal;font-stretch:normal;font-size:31.58782578px;font-family:'Allerta Stencil';-inkscape-font-specification:'Allerta Stencil';stroke-width:0.16451991px"
         id="path843"
         inkscape:connector-curvature="0" />
      <path
         d="m -173.76391,157.6033 -3.76339,0 0,-17.39798 3.76339,0 z m 0.33932,-22.95053 q 0,0.92543 -0.64779,1.57322 -0.6478,0.61695 -1.57322,0.61695 -0.92543,0 -1.57323,-0.64779 -0.61695,-0.6478 -0.61695,-1.54238 0,-0.92542 0.6478,-1.57322 0.6478,-0.6478 1.54238,-0.6478 0.92542,0 1.57322,0.6478 0.64779,0.6478 0.64779,1.57322 z"
         style="font-style:normal;font-variant:normal;font-weight:normal;font-stretch:normal;font-size:31.58782578px;font-family:'Allerta Stencil';-inkscape-font-specification:'Allerta Stencil';stroke-width:0.16451991px"
         id="path845"
         inkscape:connector-curvature="0" />
      <path
         d="m -164.75645,157.6033 -3.76339,0 0,-17.39798 3.76339,0 z m 0.33933,-22.95053 q 0,0.92543 -0.6478,1.57322 -0.6478,0.61695 -1.57322,0.61695 -0.92543,0 -1.57323,-0.64779 -0.61694,-0.6478 -0.61694,-1.54238 0,-0.92542 0.64779,-1.57322 0.6478,-0.6478 1.54238,-0.6478 0.92542,0 1.57322,0.6478 0.6478,0.6478 0.6478,1.57322 z"
         style="font-style:normal;font-variant:normal;font-weight:normal;font-stretch:normal;font-size:31.58782578px;font-family:'Allerta Stencil';-inkscape-font-specification:'Allerta Stencil';stroke-width:0.16451991px"
         id="path847"
         inkscape:connector-curvature="0" />
      <path
         d="m -156.70525,155.50567 q 0,0.92543 -0.6478,1.57322 -0.64779,0.6478 -1.57322,0.6478 -0.92542,0 -1.57322,-0.6478 -0.61695,-0.64779 -0.61695,-1.57322 0,-0.92542 0.6478,-1.54237 0.64779,-0.6478 1.54237,-0.6478 0.92543,0 1.57322,0.6478 0.6478,0.61695 0.6478,1.54237 z"
         style="font-style:normal;font-variant:normal;font-weight:normal;font-stretch:normal;font-size:31.58782578px;font-family:'Allerta Stencil';-inkscape-font-specification:'Allerta Stencil';stroke-width:0.16451991px"
         id="path849"
         inkscape:connector-curvature="0" />
      <path
         d="m -149.42524,149.6755 q 0,1.07966 0.0925,2.03593 0.0925,0.92543 0.40101,1.63492 0.30848,0.70949 0.92543,1.14136 0.61695,0.43186 1.63492,0.43186 0.40101,0 1.14135,-0.12339 0.74034,-0.12339 1.41899,-0.40102 l 0,2.28272 q -0.80204,0.43186 -1.75831,0.77118 -0.92542,0.30848 -1.85085,0.30848 -0.74034,0 -1.32644,-0.15424 -0.5861,-0.12339 -1.11051,-0.40102 -0.49356,-0.30847 -0.95627,-0.67864 -0.46271,-0.37017 -0.92543,-0.83288 -0.5244,-0.52441 -0.83288,-1.20305 -0.30847,-0.7095 -0.46271,-1.44984 -0.12339,-0.77118 -0.15424,-1.54237 0,-0.77119 0,-1.51153 l 0,-9.77865 3.7634,0 z m 10.64238,-9.47018 0,17.39798 -3.36238,0 -0.40102,-1.78915 0,-15.60883 z"
         style="font-style:normal;font-variant:normal;font-weight:normal;font-stretch:normal;font-size:31.58782578px;font-family:'Allerta Stencil';-inkscape-font-specification:'Allerta Stencil';stroke-width:0.16451991px"
         id="path851"
         inkscape:connector-curvature="0" />
      <path
         d="m -130.48489,152.35923 q 0,1.38814 0.55525,2.06678 0.58611,0.67865 1.66577,0.80204 l 0,2.49864 q -0.12339,0.0309 -0.40102,0.0309 -1.04881,0 -2.03593,-0.27763 -0.95627,-0.27763 -1.69661,-0.89458 -0.74034,-0.61694 -1.17221,-1.63491 -0.40102,-1.01797 -0.40102,-2.49865 0,-1.41898 0.58611,-2.43695 0.61695,-1.04881 1.54237,-1.69661 0.95627,-0.67865 2.15932,-0.98712 1.20306,-0.33932 2.43696,-0.33932 l 1.35729,0 0,2.19017 -0.67865,0 q -0.61695,0 -1.29559,0.12339 -0.67865,0.12339 -1.26475,0.46271 -0.5861,0.33932 -0.98712,0.98712 -0.37017,0.61695 -0.37017,1.60407 z m 9.59357,0.0925 q 0,0.24678 0.0308,0.74034 0.0308,0.46271 0.12339,0.95627 0.0925,0.49356 0.27762,0.89458 0.21594,0.40102 0.55526,0.52441 l -0.98712,2.06678 q -0.40102,0 -0.86373,-0.18509 -0.43187,-0.18508 -0.86373,-0.5244 -0.40102,-0.33933 -0.70949,-0.74034 -0.27763,-0.43187 -0.43187,-0.92543 -0.30847,0.77119 -1.2339,1.38814 -0.89457,0.5861 -2.00508,0.86373 l 0,-2.34441 q 0.74034,-0.15424 1.32644,-0.5861 0.61695,-0.46271 1.04881,-1.07966 l 0,-6.50882 q 0,-1.51153 -0.15424,-2.40611 -0.15423,-0.89457 -0.5244,-1.29559 -0.37017,-0.43187 -0.92543,-0.52441 -0.5244,-0.12339 -1.26474,-0.12339 -0.67865,0 -1.2956,0.18509 -0.5861,0.15423 -1.11051,0.40101 -0.49356,0.21594 -0.89458,0.49356 -0.37016,0.27763 -0.55525,0.43187 l -1.38814,-2.12848 q 0.30848,-0.33932 0.92543,-0.67864 0.61695,-0.37017 1.41898,-0.6478 0.80204,-0.27763 1.72746,-0.43187 0.95627,-0.18508 1.97424,-0.18508 0.92543,0 1.78915,0.18508 0.89458,0.18509 1.60407,0.61695 0.74034,0.43187 1.26475,1.17221 0.55526,0.70949 0.77119,1.78915 0.21593,1.07967 0.27763,2.19017 0.0925,1.07967 0.0925,2.15933 l 0,4.01017 z"
         style="font-style:normal;font-variant:normal;font-weight:normal;font-stretch:normal;font-size:31.58782578px;font-family:'Allerta Stencil';-inkscape-font-specification:'Allerta Stencil';stroke-width:0.16451991px"
         id="path853"
         inkscape:connector-curvature="0" />
      <path
         d="m -111.63707,140.20532 0.40102,1.78915 0,15.60883 -3.76339,0 0,-17.39798 z m 14.560015,-0.18509 q 1.048814,0 1.974239,0.43187 0.925424,0.40102 1.604069,1.1722 0.709492,0.77119 1.079662,1.85085 0.401017,1.04882 0.401017,2.28272 l 0,11.84543 -3.701698,0 0,-9.47018 q 0,-1.04881 -0.03085,-1.97424 0,-0.95627 -0.185085,-1.69661 -0.185085,-0.74034 -0.61695,-1.14135 -0.401017,-0.43187 -1.264747,-0.43187 -0.215932,0 -0.925425,0.0925 -0.709492,0.0925 -1.634917,0.52441 l 0,-2.43695 q 0.832883,-0.49356 1.696612,-0.77119 0.86373,-0.27763 1.60407,-0.27763 z m -5.336615,2.37526 q 0.37017,0.55526 0.52441,1.20305 0.18508,0.61695 0.21593,1.2956 0.0617,0.67864 0.0309,1.41898 0,0.70949 0,1.51153 l 0,9.77865 -3.73255,0 0,-9.47018 q 0,-1.04881 0,-1.97424 0,-0.95627 -0.18508,-1.69661 -0.18509,-0.74034 -0.61695,-1.14135 -0.43187,-0.43187 -1.26475,-0.43187 -0.37017,0 -1.11051,0.15424 -0.70949,0.12339 -1.41898,0.46271 l 0,-2.43695 q 0.74034,-0.43187 1.57322,-0.70949 0.86373,-0.27763 1.69661,-0.27763 1.41898,0 2.37526,0.5861 0.98712,0.5861 1.91254,1.72746 z"
         style="font-style:normal;font-variant:normal;font-weight:normal;font-stretch:normal;font-size:31.58782578px;font-family:'Allerta Stencil';-inkscape-font-specification:'Allerta Stencil';stroke-width:0.16451991px"
         id="path855"
         inkscape:connector-curvature="0" />
      <path
         d="m -83.905178,155.50567 q 0,0.92543 -0.647797,1.57322 -0.647797,0.6478 -1.573222,0.6478 -0.925424,0 -1.573222,-0.6478 -0.616949,-0.64779 -0.616949,-1.57322 0,-0.92542 0.647797,-1.54237 0.647797,-0.6478 1.542374,-0.6478 0.925425,0 1.573222,0.6478 0.647797,0.61695 0.647797,1.54237 z"
         style="font-style:normal;font-variant:normal;font-weight:normal;font-stretch:normal;font-size:31.58782578px;font-family:'Allerta Stencil';-inkscape-font-specification:'Allerta Stencil';stroke-width:0.16451991px"
         id="path857"
         inkscape:connector-curvature="0" />
      <path
         d="m -72.183135,140.05108 q 1.665764,0.15424 2.992206,0.89458 1.357289,0.74034 2.313561,1.91254 0.956273,1.17221 1.449832,2.68373 0.524408,1.51153 0.524408,3.14645 0,0.74034 -0.09254,1.48068 l -10.580688,0 0,-2.71458 7.12577,0 q 0,-0.80204 -0.277628,-1.54238 -0.24678,-0.74033 -0.771187,-1.35728 -0.49356,-0.6478 -1.172204,-1.07967 -0.678645,-0.43186 -1.511527,-0.5244 z m -0.12339,14.65256 q 0.339322,0 0.832882,-0.0617 0.524407,-0.0925 1.079662,-0.27762 0.586102,-0.21594 1.141357,-0.52441 0.586102,-0.30848 1.017967,-0.74034 l 1.357289,2.06678 q -1.017967,1.26475 -2.375256,1.91254 -1.357289,0.6478 -3.454918,0.6478 -1.696612,0 -3.177291,-0.67864 -1.48068,-0.70949 -2.529494,-1.91255 -1.048815,-1.20305 -1.665765,-2.80712 -0.616949,-1.60407 -0.616949,-3.45492 0,-1.7583 0.555254,-3.33153 0.586103,-1.57322 1.573222,-2.74542 0.98712,-1.20305 2.282714,-1.94339 1.326442,-0.74034 2.837969,-0.83289 l 0,2.96136 q -1.141357,0.21594 -1.881697,0.92543 -0.740339,0.70949 -1.172204,1.63491 -0.401018,0.89458 -0.586102,1.85085 -0.154238,0.95628 -0.154238,1.63492 0,1.20305 0.277628,2.25187 0.308474,1.01796 0.925424,1.78915 0.61695,0.74034 1.511527,1.20305 0.925425,0.43187 2.221019,0.43187 z"
         style="font-style:normal;font-variant:normal;font-weight:normal;font-stretch:normal;font-size:31.58782578px;font-family:'Allerta Stencil';-inkscape-font-specification:'Allerta Stencil';stroke-width:0.16451991px"
         id="path859"
         inkscape:connector-curvature="0" />
      <path
         d="m -60.183467,145.17177 q 0,-1.17221 0.431865,-2.09763 0.431865,-0.95628 1.203052,-1.60407 0.771187,-0.67865 1.727459,-1.04882 0.98712,-0.40102 2.035934,-0.49356 l 0,3.08475 q -0.802034,0.15424 -1.264747,0.6478 -0.431864,0.49356 -0.431864,1.38814 0,0.74033 0.462712,1.20305 0.49356,0.43186 1.233899,0.77118 l 0,3.30069 q -0.524407,-0.15424 -1.079662,-0.33933 -0.524407,-0.21593 -1.048814,-0.46271 -1.634917,-0.86373 -2.467799,-1.82 -0.802035,-0.95627 -0.802035,-2.52949 z m 10.303061,-1.2956 q -0.832883,-0.43186 -1.789155,-0.6478 -0.925424,-0.21593 -1.850849,-0.27762 l 0,-3.05391 q 1.388137,0.0617 2.560342,0.40102 1.172204,0.30848 2.282714,1.01797 z m -8.668144,9.84035 q 0.61695,0.43186 1.449832,0.80203 0.863729,0.37017 2.159324,0.37017 l 0.154237,0 0,2.86882 q -0.771187,0 -1.418984,-0.0617 -0.647797,-0.0308 -1.295594,-0.18508 -0.61695,-0.18509 -1.264747,-0.49356 -0.647798,-0.30848 -1.35729,-0.80203 z m 5.02814,-6.20035 q 0.925425,0.30848 1.881697,0.67865 0.956272,0.37017 1.727459,0.92542 0.802035,0.55526 1.295595,1.38814 0.524407,0.80203 0.524407,2.03593 0,1.20306 -0.431865,2.09763 -0.431865,0.89458 -1.172204,1.54238 -0.709493,0.64779 -1.696612,1.01796 -0.98712,0.37017 -2.128477,0.49356 l 0,-2.93051 q 1.048815,-0.18508 1.60407,-0.64779 0.586102,-0.49356 0.586102,-1.2956 0,-0.80203 -0.647797,-1.2339 -0.61695,-0.46271 -1.542375,-0.80203 z"
         style="font-style:normal;font-variant:normal;font-weight:normal;font-stretch:normal;font-size:31.58782578px;font-family:'Allerta Stencil';-inkscape-font-specification:'Allerta Stencil';stroke-width:0.16451991px"
         id="path861"
         inkscape:connector-curvature="0" />
    </g>
  </g>
</svg>
