<?xml version="1.0" encoding="UTF-8" standalone="no"?>
<!-- Created with Inkscape (http://www.inkscape.org/) -->

<svg
   xmlns:dc="http://purl.org/dc/elements/1.1/"
   xmlns:cc="http://creativecommons.org/ns#"
   xmlns:rdf="http://www.w3.org/1999/02/22-rdf-syntax-ns#"
   xmlns:svg="http://www.w3.org/2000/svg"
   xmlns="http://www.w3.org/2000/svg"
   xmlns:sodipodi="http://sodipodi.sourceforge.net/DTD/sodipodi-0.dtd"
   xmlns:inkscape="http://www.inkscape.org/namespaces/inkscape"
   width="210mm"
   height="297mm"
   viewBox="0 0 210 297"
   version="1.1"
   id="svg8"
   inkscape:version="0.91 r13725"
   sodipodi:docname="camiseta_crm_back2.svg">
  <defs
     id="defs2">
    <clipPath
       clipPathUnits="userSpaceOnUse"
       id="clipPath3726">
      <rect
         style="fill:#000000;fill-opacity:1;stroke:none;stroke-width:0.26458332;stroke-miterlimit:4;stroke-dasharray:none;stroke-opacity:1"
         id="rect3728"
         width="355.29764"
         height="204.86308"
         x="-153.45833"
         y="30.90476"
         rx="0.088879623" />
    </clipPath>
    <clipPath
       clipPathUnits="userSpaceOnUse"
       id="clipPath4537">
      <rect
         style="fill:none;fill-opacity:1;stroke:#000000;stroke-width:0.26458332;stroke-miterlimit:4;stroke-dasharray:none;stroke-opacity:1"
         id="rect4539"
         width="77.485123"
         height="76.729164"
         x="37.797619"
         y="132.95834"
         rx="0.088879623" />
    </clipPath>
    <clipPath
       clipPathUnits="userSpaceOnUse"
       id="clipPath4537-3">
      <rect
         style="fill:none;fill-opacity:1;stroke:#000000;stroke-width:0.26458332;stroke-miterlimit:4;stroke-dasharray:none;stroke-opacity:1"
         id="rect4539-8"
         width="77.485123"
         height="76.729164"
         x="37.797619"
         y="132.95834"
         rx="0.088879623" />
    </clipPath>
    <clipPath
       clipPathUnits="userSpaceOnUse"
       id="clipPath4537-3-9">
      <rect
         style="fill:none;fill-opacity:1;stroke:#000000;stroke-width:0.26458332;stroke-miterlimit:4;stroke-dasharray:none;stroke-opacity:1"
         id="rect4539-8-0"
         width="77.485123"
         height="76.729164"
         x="37.797619"
         y="132.95834"
         rx="0.088879623" />
    </clipPath>
    <clipPath
       clipPathUnits="userSpaceOnUse"
       id="clipPath4537-3-7">
      <rect
         style="fill:none;fill-opacity:1;stroke:#000000;stroke-width:0.26458332;stroke-miterlimit:4;stroke-dasharray:none;stroke-opacity:1"
         id="rect4539-8-3"
         width="77.485123"
         height="76.729164"
         x="37.797619"
         y="132.95834"
         rx="0.088879623" />
    </clipPath>
  </defs>
  <sodipodi:namedview
     id="base"
     pagecolor="#ffffff"
     bordercolor="#666666"
     borderopacity="1.0"
     inkscape:pageopacity="0.0"
     inkscape:pageshadow="2"
     inkscape:zoom="0.35"
     inkscape:cx="-145.04141"
     inkscape:cy="621.85734"
     inkscape:document-units="mm"
     inkscape:current-layer="layer1"
     showgrid="false"
     inkscape:window-width="1280"
     inkscape:window-height="995"
     inkscape:window-x="1280"
     inkscape:window-y="0"
     inkscape:window-maximized="1"
     inkscape:snap-global="false"
     units="mm" />
  <metadata
     id="metadata5">
    <rdf:RDF>
      <cc:Work
         rdf:about="">
        <dc:format>image/svg+xml</dc:format>
        <dc:type
           rdf:resource="http://purl.org/dc/dcmitype/StillImage" />
        <dc:title />
      </cc:Work>
    </rdf:RDF>
  </metadata>
  <g
     inkscape:label="Layer 1"
     inkscape:groupmode="layer"
     id="layer1">
    <path
       style="fill:#000000;stroke-width:0.23727496"
       d="m 92.776804,143.18173 c -0.227176,0 -45.358851,-7.72517 -46.576911,-7.97255 l -0.652488,-0.13223 0,-15.76167 0,-15.76163 15.47622,0.061 15.476199,0.061 8.251255,19.56202 c 4.538169,10.7591 8.251254,19.64801 8.251254,19.75314 0,0.10502 -0.100924,0.19092 -0.225529,0.19092 z"
       id="path3732-4-8-2-8"
       inkscape:connector-curvature="0"
       sodipodi:nodetypes="cccccccsscc" />
    <g
       id="g4559-3-5-7"
       transform="matrix(0,-0.61811244,0.75420394,0,35.835673,370.5136)">
      <g
         aria-label="ROBOTICA"
         transform="scale(1.2568548,0.79563686)"
         style="font-style:normal;font-variant:normal;font-weight:normal;font-stretch:normal;font-size:14.37825775px;line-height:125%;font-family:arcitectura;-inkscape-font-specification:arcitectura;letter-spacing:0px;word-spacing:0px;fill:#000000;fill-opacity:1;stroke:none;stroke-width:0.35945642px;stroke-linecap:butt;stroke-linejoin:miter;stroke-opacity:1"
         id="text3715-3-2-9">
        <path
           d="m 126.29514,110.19664 8.08777,0 0,49.67239 -8.08777,0 z m 33.69904,49.67239 -8.55956,0 -9.36833,-17.99529 q -0.2022,0 -0.47179,0.0674 -0.20219,0 -0.67398,0 -0.47179,0 -1.41536,0 -0.87617,0 -2.35893,0 l 0,-5.93103 4.58307,0 q 1.48276,0 2.96551,-0.47179 1.48276,-0.53918 2.69593,-1.68495 1.21316,-1.14576 1.95454,-3.16771 0.74138,-2.08934 0.74138,-5.12225 0,-1.21317 -0.33699,-2.76332 -0.33699,-1.61756 -1.41536,-3.03292 -1.01097,-1.48276 -2.89812,-2.42633 -1.88714,-1.01097 -4.98746,-1.01097 l -3.3025,0 0,-6.13323 3.4373,0 q 3.16771,0 6.26802,1.01098 3.10032,1.01097 5.52665,3.03291 2.49373,2.02194 3.97648,4.92006 1.55016,2.83072 1.55016,6.40282 0,5.39184 -2.49373,9.16614 -2.49373,3.77429 -6.73981,5.59404 z"
           style="font-style:normal;font-variant:normal;font-weight:normal;font-stretch:normal;font-size:69.01564026px;font-family:'Allerta Stencil';-inkscape-font-specification:'Allerta Stencil';stroke-width:0.35945642px"
           id="path842"
           inkscape:connector-curvature="0" />
        <path
           d="m 169.9017,134.79695 q 0,-5.99843 1.41536,-10.5815 1.48276,-4.65047 4.04389,-7.81818 2.62852,-3.23511 6.13322,-4.92006 3.5721,-1.75235 7.75078,-2.02194 l 0,6.7398 q -2.29153,0.2696 -4.31348,1.41536 -2.02194,1.14577 -3.5047,3.36991 -1.48275,2.22413 -2.35893,5.66144 -0.87618,3.4373 -0.94357,8.15517 0.0674,4.78526 0.94357,8.22256 0.87618,3.36991 2.35893,5.66144 1.55016,2.29154 3.5721,3.5047 2.02194,1.14577 4.24608,1.34796 l 0,6.67241 q -4.11128,-0.26959 -7.68338,-1.95454 -3.5721,-1.75235 -6.20062,-4.92006 -2.56113,-3.23511 -4.04389,-7.88558 -1.41536,-4.65046 -1.41536,-10.64889 z m 22.03917,-25.34168 q 4.11129,0.20219 7.61599,1.95454 3.5721,1.75235 6.13322,4.98746 2.62853,3.16771 4.11129,7.81818 1.48276,4.58307 1.48276,10.5815 0,5.99843 -1.48276,10.64889 -1.48276,4.65047 -4.11129,7.88558 -2.56112,3.16771 -6.06582,4.92006 -3.5047,1.68495 -7.68339,1.95454 l 0,-6.67241 q 2.29154,-0.26959 4.31348,-1.41536 2.02194,-1.21316 3.5047,-3.4373 1.48276,-2.29153 2.35894,-5.66144 0.87617,-3.4373 0.94357,-8.22256 -0.0674,-4.78527 -0.94357,-8.15517 -0.87618,-3.43731 -2.42634,-5.66144 -1.48275,-2.29154 -3.5047,-3.4373 -2.02194,-1.21317 -4.24608,-1.41536 z"
           style="font-style:normal;font-variant:normal;font-weight:normal;font-stretch:normal;font-size:69.01564026px;font-family:'Allerta Stencil';-inkscape-font-specification:'Allerta Stencil';stroke-width:0.35945642px"
           id="path844"
           inkscape:connector-curvature="0" />
        <path
           d="m 246.39853,133.71858 q 1.55015,0.20219 3.3025,1.01097 1.75235,0.80877 3.23511,2.29153 1.55016,1.48276 2.56113,3.6395 1.01097,2.08934 1.01097,4.85266 0,3.36991 -1.01097,5.79624 -1.01097,2.42633 -2.56113,4.04388 -1.48276,1.55016 -3.3025,2.49373 -1.75235,0.87618 -3.43731,1.34796 -1.61755,0.47179 -2.89811,0.60659 -1.28057,0.0674 -1.68496,0.0674 l -7.81817,0 0,-5.93104 7.34639,0 q 3.5721,0 5.59404,-2.29153 2.02194,-2.29154 2.02194,-6.13323 0,-3.6395 -2.08934,-6.13322 -2.08934,-2.49373 -6.13323,-2.49373 l -6.7398,0 0,-5.45925 3.2351,0 q 1.48276,0 3.03292,-0.0674 1.55015,-0.0674 2.89812,-0.74138 1.34796,-0.67398 2.15673,-2.29153 0.87618,-1.61755 0.87618,-4.65047 0,-1.21316 -0.33699,-2.49373 -0.33699,-1.34796 -1.34796,-2.42633 -1.01097,-1.07837 -2.89812,-1.75235 -1.88715,-0.67398 -4.98746,-0.67398 l -2.62852,0 0,-6.13323 3.4373,0 q 3.16771,0 6.13322,0.74138 2.96552,0.74138 5.25705,2.35894 2.29154,1.61755 3.6395,4.24608 1.34796,2.56112 1.34796,6.13322 0,2.08934 -0.67398,3.84169 -0.67398,1.68495 -1.68495,2.96552 -1.01097,1.28056 -2.35893,2.15674 -1.28057,0.80877 -2.49373,1.07837 z m -23.45454,-23.52194 8.08777,0 0,49.67239 -8.08777,0 z"
           style="font-style:normal;font-variant:normal;font-weight:normal;font-stretch:normal;font-size:69.01564026px;font-family:'Allerta Stencil';-inkscape-font-specification:'Allerta Stencil';stroke-width:0.35945642px"
           id="path846"
           inkscape:connector-curvature="0" />
        <path
           d="m 266.95494,134.79695 q 0,-5.99843 1.41536,-10.5815 1.48276,-4.65047 4.04389,-7.81818 2.62852,-3.23511 6.13322,-4.92006 3.5721,-1.75235 7.75078,-2.02194 l 0,6.7398 q -2.29153,0.2696 -4.31347,1.41536 -2.02195,1.14577 -3.50471,3.36991 -1.48275,2.22413 -2.35893,5.66144 -0.87617,3.4373 -0.94357,8.15517 0.0674,4.78526 0.94357,8.22256 0.87618,3.36991 2.35893,5.66144 1.55016,2.29154 3.5721,3.5047 2.02195,1.14577 4.24608,1.34796 l 0,6.67241 q -4.11128,-0.26959 -7.68338,-1.95454 -3.5721,-1.75235 -6.20062,-4.92006 -2.56113,-3.23511 -4.04389,-7.88558 -1.41536,-4.65046 -1.41536,-10.64889 z m 22.03918,-25.34168 q 4.11128,0.20219 7.61598,1.95454 3.5721,1.75235 6.13323,4.98746 2.62852,3.16771 4.11128,7.81818 1.48276,4.58307 1.48276,10.5815 0,5.99843 -1.48276,10.64889 -1.48276,4.65047 -4.11128,7.88558 -2.56113,3.16771 -6.06583,4.92006 -3.5047,1.68495 -7.68338,1.95454 l 0,-6.67241 q 2.29153,-0.26959 4.31347,-1.41536 2.02195,-1.21316 3.5047,-3.4373 1.48276,-2.29153 2.35894,-5.66144 0.87617,-3.4373 0.94357,-8.22256 -0.0674,-4.78527 -0.94357,-8.15517 -0.87618,-3.43731 -2.42633,-5.66144 -1.48276,-2.29154 -3.5047,-3.4373 -2.02195,-1.21317 -4.24608,-1.41536 z"
           style="font-style:normal;font-variant:normal;font-weight:normal;font-stretch:normal;font-size:69.01564026px;font-family:'Allerta Stencil';-inkscape-font-specification:'Allerta Stencil';stroke-width:0.35945642px"
           id="path848"
           inkscape:connector-curvature="0" />
        <path
           d="m 354.77465,110.19664 0,5.52665 -14.82758,0 0,44.14574 -8.15517,0 0,-44.14574 -14.82757,0 0,-5.52665 z"
           style="font-style:normal;font-variant:normal;font-weight:normal;font-stretch:normal;font-size:69.01564026px;font-family:'Allerta Stencil';-inkscape-font-specification:'Allerta Stencil';stroke-width:0.35945642px"
           id="path850"
           inkscape:connector-curvature="0" />
        <path
           d="m 372.83734,159.86903 -8.22256,0 0,-49.67239 8.22256,0 z"
           style="font-style:normal;font-variant:normal;font-weight:normal;font-stretch:normal;font-size:69.01564026px;font-family:'Allerta Stencil';-inkscape-font-specification:'Allerta Stencil';stroke-width:0.35945642px"
           id="path852"
           inkscape:connector-curvature="0" />
        <path
           d="m 413.27619,119.76717 q -1.55015,-1.75235 -3.3025,-2.62852 -1.75235,-0.87618 -3.7743,-1.01097 l 0,-6.67241 q 7.54859,0.33699 12.67084,5.32444 z m -7.0768,33.76644 q 2.02195,-0.20219 3.7743,-1.07837 1.81974,-0.87617 3.3025,-2.56112 l 5.59404,4.92006 q -2.56112,2.49373 -5.72883,3.84169 -3.16771,1.34796 -6.94201,1.55015 z m -21.83698,-18.73666 q 0,-5.99843 1.41536,-10.5815 1.48276,-4.58307 4.04389,-7.75078 2.56112,-3.16771 5.99843,-4.92006 3.5047,-1.75235 7.61598,-2.08934 l 0,6.7398 q -2.22414,0.33699 -4.17868,1.55016 -1.95454,1.14577 -3.4373,3.3699 -1.48276,2.22414 -2.35894,5.66144 -0.80877,3.36991 -0.87617,8.02038 0.0674,4.71786 0.87617,8.08777 0.87618,3.3699 2.35894,5.66144 1.48276,2.29153 3.4373,3.5047 2.02194,1.21316 4.17868,1.48275 l 0,6.60502 q -4.11128,-0.2696 -7.61598,-2.02195 -3.43731,-1.75235 -5.99843,-4.92006 -2.56113,-3.16771 -4.04389,-7.75078 -1.41536,-4.65046 -1.41536,-10.64889 z"
           style="font-style:normal;font-variant:normal;font-weight:normal;font-stretch:normal;font-size:69.01564026px;font-family:'Allerta Stencil';-inkscape-font-specification:'Allerta Stencil';stroke-width:0.35945642px"
           id="path854"
           inkscape:connector-curvature="0" />
        <path
           d="m 471.23854,159.86903 -8.35737,0 -12.87303,-37.20374 -13.00783,37.20374 -8.42476,0 17.3887,-49.60499 8.02038,0 z m -16.78213,-15.77115 1.95455,5.45925 -12.87304,0 1.88715,-5.45925 z"
           style="font-style:normal;font-variant:normal;font-weight:normal;font-stretch:normal;font-size:69.01564026px;font-family:'Allerta Stencil';-inkscape-font-specification:'Allerta Stencil';stroke-width:0.35945642px"
           id="path856"
           inkscape:connector-curvature="0" />
      </g>
    </g>
  </g>
</svg>
