<?xml version="1.0" encoding="UTF-8" standalone="no"?>
<!-- Created with Inkscape (http://www.inkscape.org/) -->

<svg
   xmlns:dc="http://purl.org/dc/elements/1.1/"
   xmlns:cc="http://creativecommons.org/ns#"
   xmlns:rdf="http://www.w3.org/1999/02/22-rdf-syntax-ns#"
   xmlns:svg="http://www.w3.org/2000/svg"
   xmlns="http://www.w3.org/2000/svg"
   xmlns:sodipodi="http://sodipodi.sourceforge.net/DTD/sodipodi-0.dtd"
   xmlns:inkscape="http://www.inkscape.org/namespaces/inkscape"
   width="210mm"
   height="297mm"
   viewBox="0 0 210 297"
   version="1.1"
   id="svg8"
   inkscape:version="0.92.3 (2405546, 2018-03-11)"
   sodipodi:docname="camiseta_crm_back.svg">
  <defs
     id="defs2">
    <clipPath
       clipPathUnits="userSpaceOnUse"
       id="clipPath3726">
      <rect
         style="fill:#000000;fill-opacity:1;stroke:none;stroke-width:0.26458332;stroke-miterlimit:4;stroke-dasharray:none;stroke-opacity:1"
         id="rect3728"
         width="355.29764"
         height="204.86308"
         x="-153.45833"
         y="30.90476"
         rx="0.088879623" />
    </clipPath>
    <clipPath
       clipPathUnits="userSpaceOnUse"
       id="clipPath4537">
      <rect
         style="fill:none;fill-opacity:1;stroke:#000000;stroke-width:0.26458332;stroke-miterlimit:4;stroke-dasharray:none;stroke-opacity:1"
         id="rect4539"
         width="77.485123"
         height="76.729164"
         x="37.797619"
         y="132.95834"
         rx="0.088879623" />
    </clipPath>
    <clipPath
       clipPathUnits="userSpaceOnUse"
       id="clipPath4537-3">
      <rect
         style="fill:none;fill-opacity:1;stroke:#000000;stroke-width:0.26458332;stroke-miterlimit:4;stroke-dasharray:none;stroke-opacity:1"
         id="rect4539-8"
         width="77.485123"
         height="76.729164"
         x="37.797619"
         y="132.95834"
         rx="0.088879623" />
    </clipPath>
    <clipPath
       clipPathUnits="userSpaceOnUse"
       id="clipPath4537-3-9">
      <rect
         style="fill:none;fill-opacity:1;stroke:#000000;stroke-width:0.26458332;stroke-miterlimit:4;stroke-dasharray:none;stroke-opacity:1"
         id="rect4539-8-0"
         width="77.485123"
         height="76.729164"
         x="37.797619"
         y="132.95834"
         rx="0.088879623" />
    </clipPath>
    <clipPath
       clipPathUnits="userSpaceOnUse"
       id="clipPath4537-3-7">
      <rect
         style="fill:none;fill-opacity:1;stroke:#000000;stroke-width:0.26458332;stroke-miterlimit:4;stroke-dasharray:none;stroke-opacity:1"
         id="rect4539-8-3"
         width="77.485123"
         height="76.729164"
         x="37.797619"
         y="132.95834"
         rx="0.088879623" />
    </clipPath>
  </defs>
  <sodipodi:namedview
     id="base"
     pagecolor="#ffffff"
     bordercolor="#666666"
     borderopacity="1.0"
     inkscape:pageopacity="0.0"
     inkscape:pageshadow="2"
     inkscape:zoom="0.35"
     inkscape:cx="1074.9586"
     inkscape:cy="621.85734"
     inkscape:document-units="mm"
     inkscape:current-layer="layer1"
     showgrid="false"
     inkscape:window-width="1920"
     inkscape:window-height="1020"
     inkscape:window-x="0"
     inkscape:window-y="36"
     inkscape:window-maximized="1"
     inkscape:snap-global="false"
     units="mm" />
  <metadata
     id="metadata5">
    <rdf:RDF>
      <cc:Work
         rdf:about="">
        <dc:format>image/svg+xml</dc:format>
        <dc:type
           rdf:resource="http://purl.org/dc/dcmitype/StillImage" />
        <dc:title />
      </cc:Work>
    </rdf:RDF>
  </metadata>
  <g
     inkscape:label="Layer 1"
     inkscape:groupmode="layer"
     id="layer1">
    <path
       style="fill:#000000;stroke-width:0.23727496"
       d="m -33.467244,153.90609 c -0.227176,0 -45.358851,-7.72517 -46.576911,-7.97255 l -0.652488,-0.13223 v -15.76167 -15.76163 l 15.47622,0.061 15.476199,0.061 8.251255,19.56202 c 4.538169,10.7591 8.251254,19.64801 8.251254,19.75314 0,0.10502 -0.100924,0.19092 -0.225529,0.19092 z"
       id="path3732-4-8-2-8"
       inkscape:connector-curvature="0"
       sodipodi:nodetypes="cccccccsscc" />
    <g
       id="g4559-3-5-7"
       transform="matrix(0,-0.61811244,0.75420394,0,-90.408375,381.23796)">
      <text
         transform="scale(1.2568548,0.79563686)"
         id="text3715-3-2-9"
         y="159.86903"
         x="120.22931"
         style="font-style:normal;font-variant:normal;font-weight:normal;font-stretch:normal;font-size:14.37825775px;line-height:125%;font-family:arcitectura;-inkscape-font-specification:arcitectura;letter-spacing:0px;word-spacing:0px;fill:#000000;fill-opacity:1;stroke:none;stroke-width:0.35945642px;stroke-linecap:butt;stroke-linejoin:miter;stroke-opacity:1"
         xml:space="preserve"><tspan
           style="font-style:normal;font-variant:normal;font-weight:normal;font-stretch:normal;font-size:69.01564026px;font-family:'Allerta Stencil';-inkscape-font-specification:'Allerta Stencil';stroke-width:0.35945642px"
           y="159.86903"
           x="120.22931"
           id="tspan3713-8-6-6"
           sodipodi:role="line">ROBOTICA</tspan></text>
    </g>
    <path
       style="fill:#000000;stroke-width:0.23727496"
       d="m 24.096283,165.65713 c -0.02059,0.0595 0.02059,0.12872 0.08649,0.20431 0.06795,0.0677 5.640267,2.05684 13.823555,4.95129 l 24.674675,-8.28055 34.488771,-11.24814 15.305246,-4.96511 4.80447,-1.53478 v 10.05902 10.05803 h 1.30477 1.30498 v -22.30324 -22.3043 h -1.30498 -1.30477 v 6.38073 c 0,5.23978 -0.0597,6.4042 -0.33119,6.50844 -4.63476,1.77853 -21.644336,7.74684 -53.174253,18.6568 -21.532731,7.45069 -39.301691,13.60128 -39.487066,13.66822 -0.109139,0.0398 -0.173009,0.0893 -0.191542,0.14911 z M 24.69563,277.0157 c 4.12e-4,4.34307 0.140062,8.6861 0.417084,9.082 0.915082,1.30643 -0.986766,1.2376 34.437886,1.23144 18.423104,-0.006 33.690884,-0.10296 34.974024,-0.22777 16.396016,-1.59571 26.346256,-12.61856 27.952756,-30.96698 h -0.0206 c 0.30606,-3.49491 0.13387,-10.56394 -0.33407,-13.7725 -1.47345,-10.08518 -5.44976,-17.63997 -11.80369,-22.42777 -2.40152,-1.80958 -6.52014,-3.81562 -9.43204,-4.59473 -5.037196,-1.34862 -4.111606,-1.3181 -40.743003,-1.31978 H 26.399153 l -0.838685,0.73545 -0.838674,0.73654 v 8.52959 c 0,9.25179 0.03707,9.54535 1.298589,10.11972 0.472064,0.21508 8.072891,0.28363 31.516119,0.28522 19.343342,0 31.692432,0.0929 33.029532,0.24376 4.67369,0.5275 7.66529,1.78305 10.085746,4.23501 1.72637,1.74898 2.60665,3.3559 3.36954,6.1476 0.73117,2.63293 0.72499,8.59327 0,11.27558 -1.36965,5.06827 -4.567416,8.1983 -9.931266,9.71743 l -1.85202,0.52365 -32.862502,0.12131 c -34.90542,0.12913 -33.456074,0.0768 -34.273744,1.24423 -0.277422,0.39574 -0.41563,4.73892 -0.415012,9.082 z m 0.04736,-166.87658 0.806756,0.80673 0.806756,0.80574 h 45.711226 c 50.078452,0 46.649812,0.0993 47.455732,-1.3666 0.30236,-0.54986 0.34746,-1.95547 0.30215,-9.1523 l -0.0535,-8.501929 -0.77484,-0.691845 -0.77482,-0.692897 H 85.824004 c -22.233626,0 -32.351309,-0.07682 -32.246266,-0.244786 0.08443,-0.134905 7.322775,-6.392282 16.088524,-13.905552 11.346862,-9.725614 16.027572,-13.878778 16.248162,-14.416463 0.2245,-0.54681 0.24324,-0.929899 0.0679,-1.389009 -0.15035,-0.396889 -6.27629,-5.806958 -16.376058,-14.464328 L 53.470998,33.095869 85.790794,32.976617 c 35.535036,-0.130375 33.000676,-0.01235 33.742556,-1.57522 0.29432,-0.621614 0.35673,-2.154693 0.35673,-8.962811 v -8.213461 l -0.81211,-0.886625 -0.81211,-0.885535 -45.579209,-0.06179 c -49.432965,-0.06611 -46.704593,-0.135317 -47.577049,1.19631 -0.337769,0.517212 -0.374846,1.799573 -0.315118,11.508731 l 0.06589,10.927545 0.593787,0.636485 c 0.326249,0.350136 7.07933,6.082213 15.007229,12.738023 11.506488,9.660117 14.414253,12.214047 14.414253,12.657093 0,0.650098 0.332221,0.35895 -17.036771,14.923108 -6.825588,5.723296 -12.563485,10.704882 -12.752968,11.070217 -0.285876,0.550989 -0.343752,2.490206 -0.343752,11.376682 z m 17.090117,62.02005 c 6.716426,2.37136 14.007077,4.94327 22.904433,8.06022 22.177184,7.76939 43.07244,15.15352 46.43293,16.41 l 6.10924,2.28514 v 5.8911 5.89004 h 1.30497 1.30581 v -14.59205 -14.59315 h -1.30478 -1.30497 v 6.66915 c 0,5.56585 -0.0535,6.64922 -0.32665,6.54459 -0.1792,-0.069 -2.44848,-0.78903 -5.04176,-1.59968 -2.59347,-0.81065 -9.33316,-3.0762 -14.977346,-5.03433 l -27.406762,-9.22695 -20.781162,-7.01509 -2.921573,-1.00791 z m 41.695397,-13.76616 c 0.0453,2.04065 0.0577,5.47814 0.0577,11.21709 v 11.28196 l 3.08552,1.01963 v -12.28885 -12.26861 z"
       id="path3732-4-5-0"
       inkscape:connector-curvature="0"
       sodipodi:nodetypes="cccccccccccccccscsccccccccsscccccsccccccccccccccscccccscsccccccscccccccccsccscccscccccccccsccccccccsccscccc" />
    <text
       transform="matrix(0,-1.1142093,0.89749744,0,0,0)"
       id="text3715-9-7-8-4"
       y="210.1078"
       x="-257.16418"
       style="font-style:normal;font-variant:normal;font-weight:normal;font-stretch:normal;font-size:14.70214462px;line-height:125%;font-family:arcitectura;-inkscape-font-specification:arcitectura;letter-spacing:0px;word-spacing:0px;fill:#000000;fill-opacity:1;stroke:none;stroke-width:0.3675535px;stroke-linecap:butt;stroke-linejoin:miter;stroke-opacity:1"
       xml:space="preserve"><tspan
         style="font-style:normal;font-variant:normal;font-weight:normal;font-stretch:normal;font-size:70.57028198px;font-family:'50 Blizzards';-inkscape-font-specification:'50 Blizzards';letter-spacing:6.81055927px;word-spacing:0px;fill:#000000;stroke-width:0.3675535px"
         y="210.1078"
         x="-257.16418"
         id="tspan3713-1-6-7-1"
         sodipodi:role="line">MADRID</tspan></text>
  </g>
</svg>
